<svg width="301" height="301" viewBox="0 0 301 301" fill="none" xmlns="http://www.w3.org/2000/svg">
<path d="M251.209 125.866C255.423 111.003 258.433 96.9701 246.904 82.179C232.534 63.7277 211.386 63.4026 189.63 68.622C165.947 74.3109 142.674 83.6358 118.835 72.836C109.901 68.7845 102.027 62.602 92.5093 59.9532C65.6179 52.5245 44.2229 76.6767 38.1246 98.6256C34.3682 112.248 34.3433 126.63 38.0523 140.266C41.3814 152.517 53.5238 160.638 55.8836 172.985C58.9658 189.106 41.4356 205.577 59.8267 218.737C66.7798 223.715 76.1108 225.082 84.7736 223.95C104.591 221.367 121.11 208.683 138.827 201.02C156.442 193.398 176.609 189.118 194.675 197.883C205.312 203.043 220.392 211.007 232.45 205.168C245.128 199.033 252.503 185.362 250.914 172.377C249.649 161.986 244.809 151.18 247.211 140.651C248.361 135.576 249.83 130.676 251.209 125.866Z" fill="#5E53B8"/>
<path opacity="0.5" d="M251.209 125.866C255.423 111.003 258.433 96.9701 246.904 82.179C232.534 63.7277 211.386 63.4026 189.63 68.622C165.947 74.3109 142.674 83.6358 118.835 72.836C109.901 68.7845 102.027 62.602 92.5093 59.9532C65.6179 52.5245 44.2229 76.6767 38.1246 98.6256C34.3682 112.248 34.3433 126.63 38.0523 140.266C41.3814 152.517 53.5238 160.638 55.8836 172.985C58.9658 189.106 41.4356 205.577 59.8267 218.737C66.7798 223.715 76.1108 225.082 84.7736 223.95C104.591 221.367 121.11 208.683 138.827 201.02C156.442 193.398 176.609 189.118 194.675 197.883C205.312 203.043 220.392 211.007 232.45 205.168C245.128 199.033 252.503 185.362 250.914 172.377C249.649 161.986 244.809 151.18 247.211 140.651C248.361 135.576 249.83 130.676 251.209 125.866Z" fill="white"/>
<path d="M156.117 238.392C209.11 238.392 252.07 235.004 252.07 230.825C252.07 226.646 209.11 223.258 156.117 223.258C103.124 223.258 60.1641 226.646 60.1641 230.825C60.1641 235.004 103.124 238.392 156.117 238.392Z" fill="#5E53B8"/>
<path opacity="0.3" d="M156.117 238.392C209.11 238.392 252.07 235.004 252.07 230.825C252.07 226.646 209.11 223.258 156.117 223.258C103.124 223.258 60.1641 226.646 60.1641 230.825C60.1641 235.004 103.124 238.392 156.117 238.392Z" fill="white"/>
<path d="M258.86 243.611H44.5481V250.432H258.86V243.611Z" fill="#5E53B8"/>
<path opacity="0.5" d="M258.86 243.611H44.5481V250.432H258.86V243.611Z" fill="white"/>
<path d="M57.8463 197.029C58.6198 196.438 59.3014 195.736 59.869 194.946C60.0809 194.585 60.2121 194.184 60.2537 193.768C60.2952 193.352 60.2462 192.933 60.1098 192.538C60.0284 192.363 59.9112 192.207 59.7658 192.08C59.6203 191.953 59.4498 191.858 59.2654 191.802C59.081 191.745 58.8867 191.728 58.6952 191.751C58.5036 191.774 58.319 191.837 58.1534 191.936C57.1661 192.538 57.0577 194.651 57.3105 195.656C57.3346 195.716 57.8343 197.041 57.8463 197.029Z" fill="#2E353A"/>
<path d="M42.9888 207.6C43.055 207.66 44.1928 208.491 44.1928 208.473C44.1928 208.454 44.8309 206.528 44.7286 205.619C44.7093 205.202 44.5998 204.795 44.4075 204.425C44.2152 204.055 43.9447 203.731 43.6149 203.476C43.4516 203.372 43.2683 203.304 43.0769 203.276C42.8855 203.248 42.6904 203.26 42.5042 203.313C42.3179 203.365 42.1448 203.456 41.9959 203.579C41.8471 203.703 41.726 203.856 41.6403 204.03C41.1527 205.089 42.2243 206.895 42.9888 207.6Z" fill="#2E353A"/>
<path d="M76.6648 198.949C76.6648 198.949 70.7832 205.023 70.8133 212.482C70.8434 219.941 76.7792 225.967 76.7792 225.967C76.7792 225.967 82.6607 219.893 82.6306 212.434C82.6005 204.975 76.6648 198.949 76.6648 198.949Z" fill="#2E353A"/>
<path d="M68.2729 216.949C68.3508 216.865 68.4232 216.777 68.4896 216.684C68.7431 216.35 68.9208 215.965 69.0102 215.555C69.0996 215.145 69.0986 214.721 69.0073 214.312C68.9486 214.127 68.8517 213.957 68.7228 213.813C68.5939 213.668 68.436 213.552 68.2594 213.472C68.0827 213.393 67.8913 213.352 67.6976 213.351C67.5039 213.35 67.3122 213.391 67.1351 213.469C66.3404 213.842 65.9311 215.125 65.8649 216.172C65.5458 216.1 65.2629 216.046 65.01 216.004C64.9077 215.763 64.7993 215.528 64.691 215.287C64.5826 215.046 64.4923 214.788 64.39 214.535C64.2515 214.161 64.1251 213.77 63.9987 213.379C64.8404 213.035 65.6241 212.564 66.3224 211.982C66.6232 211.691 66.8571 211.337 67.0079 210.947C67.1586 210.556 67.2225 210.137 67.1953 209.719C67.1656 209.527 67.0959 209.344 66.9906 209.181C66.8854 209.019 66.747 208.88 66.5846 208.774C66.4221 208.669 66.2392 208.598 66.0477 208.568C65.8563 208.538 65.6607 208.548 65.4736 208.599C64.3599 208.93 63.7037 210.923 63.6676 211.964C63.6676 212 63.6676 212.217 63.7037 212.482C63.5953 212.097 63.4809 211.711 63.3786 211.32C63.0896 210.2 62.8368 209.056 62.5719 207.907C62.5177 207.666 62.4575 207.431 62.4034 207.19C63.2741 206.838 64.0861 206.355 64.8114 205.758C65.1146 205.464 65.3494 205.108 65.4993 204.713C65.6491 204.319 65.7102 203.897 65.6782 203.476C65.6493 203.285 65.5803 203.102 65.4757 202.939C65.3711 202.776 65.2333 202.637 65.0712 202.532C64.9092 202.426 64.7267 202.356 64.5356 202.325C64.3446 202.295 64.1493 202.306 63.9625 202.356C62.8428 202.687 62.1565 204.686 62.1565 205.727C62.1565 205.764 62.1565 206.028 62.2047 206.329C62.0542 205.727 61.8977 205.095 61.7171 204.487C61.4199 203.441 61.0539 202.415 60.6214 201.417C61.5133 201.057 62.3454 200.564 63.0896 199.954C63.3915 199.664 63.6261 199.31 63.7769 198.919C63.9277 198.528 63.991 198.109 63.9625 197.691C63.9328 197.499 63.8631 197.316 63.7579 197.153C63.6526 196.991 63.5143 196.852 63.3518 196.746C63.1894 196.641 63.0064 196.57 62.815 196.54C62.6236 196.51 62.4279 196.52 62.2408 196.571C61.1271 196.902 60.4709 198.901 60.4348 199.936C60.4348 200.014 60.5191 200.966 60.5612 201.303V201.267C60.1092 200.299 59.5734 199.372 58.9599 198.497C58.4133 197.716 57.8224 196.966 57.19 196.252C56.588 195.584 56.0402 195.012 55.5285 194.506C55.2516 194.235 54.9927 193.988 54.7459 193.766C54.7459 193.766 54.2041 192.465 54.1439 192.387C53.6202 191.484 52.0791 190.051 50.9413 190.298C50.7541 190.345 50.5788 190.43 50.4267 190.549C50.2746 190.668 50.1491 190.817 50.0583 190.987C49.9675 191.157 49.9134 191.345 49.8996 191.537C49.8858 191.73 49.9125 191.923 49.9781 192.104C50.1545 192.484 50.4118 192.821 50.7321 193.092C51.0524 193.362 51.4278 193.559 51.8322 193.669C52.757 193.844 53.703 193.876 54.6376 193.766C54.8844 194.006 55.1493 194.259 55.4322 194.554C55.9319 195.066 56.4917 195.656 57.0516 196.33C57.2021 196.511 57.3586 196.709 57.5091 196.932C57.184 196.667 56.7325 196.3 56.6844 196.27C55.8054 195.716 53.7827 195.15 52.8857 195.897C52.7424 196.027 52.6278 196.185 52.5494 196.362C52.4709 196.539 52.4304 196.73 52.4304 196.923C52.4304 197.117 52.4709 197.308 52.5494 197.485C52.6278 197.661 52.7424 197.82 52.8857 197.95C53.2186 198.203 53.6023 198.382 54.0107 198.473C54.4191 198.565 54.8424 198.567 55.2516 198.479C56.1582 198.214 57.0174 197.807 57.7981 197.275C58.1352 197.709 58.4663 198.154 58.7853 198.642C59.3731 199.518 59.8808 200.444 60.3024 201.411C60.3024 201.465 60.3445 201.525 60.3686 201.58C60.2301 201.423 59.4174 200.592 59.3512 200.544C58.5385 199.894 56.588 199.111 55.6188 199.75C55.46 199.861 55.3263 200.004 55.2263 200.17C55.1264 200.336 55.0624 200.521 55.0386 200.714C55.0148 200.906 55.0316 201.101 55.088 201.287C55.1444 201.472 55.2391 201.644 55.366 201.79C55.6688 202.08 56.0305 202.3 56.4264 202.436C56.8223 202.572 57.243 202.621 57.6596 202.579C58.6111 202.397 59.5302 202.074 60.3867 201.622C60.7835 202.602 61.1153 203.608 61.38 204.632C61.5846 205.384 61.7532 206.155 61.9218 206.931C61.7351 206.727 60.9766 205.956 60.9164 205.908C60.1037 205.258 58.1532 204.475 57.178 205.113C57.0196 205.225 56.8864 205.369 56.787 205.535C56.6877 205.701 56.6243 205.887 56.601 206.079C56.5778 206.271 56.5951 206.466 56.652 206.652C56.7089 206.837 56.804 207.008 56.9312 207.154C57.2328 207.445 57.5944 207.666 57.9906 207.803C58.3869 207.939 58.8081 207.987 59.2248 207.943C60.1706 207.764 61.084 207.444 61.9338 206.992C62.0121 207.347 62.0843 207.696 62.1565 208.051C62.3973 209.201 62.6321 210.357 62.897 211.489C62.9873 211.88 63.0896 212.265 63.198 212.65C62.909 212.349 62.3793 211.82 62.3311 211.778C61.5184 211.127 59.5679 210.345 58.5927 210.989C58.4345 211.1 58.3014 211.243 58.2021 211.409C58.1027 211.575 58.0394 211.759 58.0161 211.951C57.9928 212.143 58.0101 212.338 58.067 212.523C58.1238 212.707 58.2188 212.878 58.3459 213.024C58.6475 213.314 59.0091 213.536 59.4053 213.672C59.8016 213.808 60.2228 213.856 60.6395 213.812C61.5548 213.645 62.4396 213.34 63.2642 212.909C63.4408 213.547 63.6415 214.174 63.8662 214.788C63.9685 215.046 64.0528 215.323 64.1612 215.57L64.3237 215.961H64.101C64.101 215.961 64.101 216.329 64.101 216.919C63.2462 216.317 62.0121 215.781 61.2054 216.154C61.0326 216.24 60.8798 216.362 60.7568 216.511C60.6338 216.66 60.5433 216.833 60.4912 217.019C60.439 217.205 60.4263 217.399 60.4539 217.591C60.4816 217.782 60.5489 217.965 60.6515 218.129C60.7063 218.215 60.7666 218.297 60.8321 218.375C60.9838 219.278 61.3653 220.126 61.9398 220.838C61.982 220.892 62.5418 221.44 62.8669 221.692L61.982 221.211C61.5425 220.964 61.091 220.693 60.6515 220.434C60.4228 220.296 60.2 220.151 59.9713 220.001C59.7425 219.85 59.5318 219.7 59.3091 219.543C58.984 219.309 58.6649 219.056 58.3399 218.797C58.8554 218.047 59.2495 217.22 59.5077 216.347C59.5994 215.938 59.6 215.514 59.5095 215.105C59.4189 214.697 59.2396 214.313 58.984 213.981C58.8552 213.837 58.6975 213.722 58.5212 213.643C58.3448 213.564 58.1538 213.523 57.9606 213.523C57.7674 213.523 57.5764 213.564 57.4 213.643C57.2236 213.722 57.0659 213.837 56.9372 213.981C56.1847 214.872 56.7385 216.901 57.2924 217.779C57.2924 217.81 57.4489 217.984 57.6114 218.189C57.3044 217.93 57.0094 217.671 56.6964 217.4C55.8416 216.63 54.9927 215.811 54.1439 214.992L53.6081 214.493C54.1355 213.72 54.5415 212.871 54.8121 211.976C54.9035 211.567 54.9045 211.143 54.8151 210.733C54.7256 210.323 54.548 209.938 54.2944 209.604C54.1646 209.461 54.0062 209.346 53.8294 209.268C53.6527 209.19 53.4614 209.149 53.268 209.149C53.0746 209.149 52.8834 209.19 52.7066 209.268C52.5298 209.346 52.3714 209.461 52.2416 209.604C51.4951 210.495 52.049 212.524 52.6028 213.403C52.6028 213.433 52.7834 213.644 52.97 213.872C52.5005 213.439 52.0249 213.012 51.5433 212.602C50.7186 211.895 49.8478 211.243 48.9366 210.652C49.479 209.855 49.9009 208.983 50.1888 208.063C50.2775 207.654 50.2767 207.231 50.1863 206.823C50.0959 206.414 49.918 206.03 49.665 205.697C49.5357 205.553 49.3775 205.438 49.2007 205.359C49.0238 205.28 48.8323 205.239 48.6386 205.239C48.4449 205.239 48.2534 205.28 48.0766 205.359C47.8997 205.438 47.7415 205.553 47.6122 205.697C46.8657 206.588 47.4196 208.617 47.9734 209.496C48.0156 209.562 48.6115 210.309 48.8343 210.568H48.7982C47.8883 210.01 46.9315 209.532 45.9387 209.141C45.0515 208.79 44.145 208.491 43.2236 208.244C42.3748 208.009 41.5802 207.84 40.8758 207.702L39.8163 207.515C39.8163 207.515 38.6123 206.733 38.5642 206.691C37.6311 206.227 35.5542 205.884 34.7475 206.691C34.6157 206.832 34.5153 207 34.4531 207.184C34.3908 207.367 34.368 207.561 34.3862 207.754C34.4044 207.947 34.4632 208.134 34.5586 208.302C34.6541 208.47 34.7841 208.617 34.9401 208.731C35.2964 208.952 35.6967 209.091 36.1127 209.14C36.5288 209.189 36.9505 209.146 37.3481 209.014C38.2204 208.652 39.0324 208.159 39.7561 207.551C40.0932 207.612 40.4544 207.678 40.8518 207.762C41.5501 207.919 42.3387 208.099 43.1815 208.364C43.4103 208.43 43.6511 208.515 43.8798 208.587L42.8323 208.491C41.7909 208.491 39.8223 209.159 39.4551 210.297C39.4036 210.483 39.3919 210.678 39.421 210.869C39.45 211.06 39.5191 211.243 39.6236 211.405C39.7282 211.568 39.8659 211.707 40.0278 211.812C40.1896 211.918 40.3719 211.988 40.5628 212.018C40.9809 212.048 41.4006 211.987 41.7926 211.838C42.1845 211.69 42.5394 211.457 42.8323 211.157C43.4363 210.433 43.9274 209.621 44.2892 208.749C44.8009 208.924 45.3246 209.111 45.8604 209.351C46.8336 209.754 47.7684 210.244 48.6537 210.814L48.8042 210.923C48.5995 210.869 47.4617 210.628 47.3835 210.622C46.348 210.525 44.2892 210.953 43.8317 212.024C43.7635 212.202 43.7335 212.393 43.7433 212.583C43.7532 212.774 43.8029 212.96 43.889 213.13C43.9752 213.3 44.0961 213.45 44.2438 213.571C44.3915 213.692 44.5628 213.78 44.7467 213.83C45.1583 213.907 45.5816 213.893 45.9871 213.789C46.3926 213.685 46.7705 213.493 47.0945 213.228C47.786 212.552 48.3742 211.777 48.8403 210.929C49.7078 211.521 50.5362 212.168 51.3205 212.867C51.9225 213.385 52.4704 213.933 53.0362 214.487C52.7714 214.414 51.7118 214.198 51.6336 214.192C50.5981 214.095 48.5393 214.517 48.0818 215.588C48.0106 215.768 47.9781 215.961 47.9863 216.154C47.9946 216.348 48.0435 216.537 48.1298 216.71C48.2161 216.884 48.3379 217.037 48.4873 217.16C48.6367 217.283 48.8103 217.373 48.9968 217.424C49.4084 217.501 49.8317 217.487 50.2372 217.383C50.6427 217.279 51.0206 217.087 51.3446 216.822C52.0342 216.152 52.6205 215.383 53.0844 214.541L53.8489 215.293C54.6857 216.124 55.5165 216.961 56.3653 217.755C56.6543 218.032 56.9673 218.297 57.2563 218.562C56.8529 218.472 56.1185 218.315 56.0523 218.309C55.0168 218.213 52.958 218.64 52.5005 219.712C52.4293 219.892 52.3967 220.085 52.405 220.278C52.4133 220.471 52.4622 220.661 52.5485 220.834C52.6348 221.007 52.7566 221.16 52.906 221.283C53.0554 221.406 53.229 221.497 53.4155 221.548C53.8271 221.624 54.2504 221.61 54.6559 221.506C55.0614 221.402 55.4393 221.211 55.7633 220.946C56.4389 220.306 57.0079 219.562 57.4489 218.743C57.9546 219.182 58.4603 219.604 58.972 219.989C59.2007 220.157 59.4235 220.338 59.6462 220.482L60.3204 220.928C60.784 221.217 61.2174 221.488 61.6629 221.747L62.3131 222.126C61.9218 221.969 61.2897 221.735 61.2355 221.723C60.2241 221.47 58.1231 221.578 57.5091 222.565C57.4102 222.731 57.3472 222.916 57.3241 223.107C57.301 223.299 57.3184 223.493 57.3752 223.677C57.4319 223.862 57.5267 224.032 57.6535 224.178C57.7803 224.323 57.9362 224.44 58.1111 224.522C58.5062 224.659 58.9264 224.707 59.3424 224.665C59.7583 224.622 60.1599 224.489 60.5191 224.275C61.3006 223.721 61.9929 223.051 62.5719 222.288C63.1077 222.595 63.6314 222.89 64.1251 223.149C65.4495 223.86 66.5993 224.42 67.4963 224.841C70.3979 227.351 74.4915 227.628 74.4915 227.628C74.4915 227.628 74.7022 222.734 71.8186 219.507C70.8386 218.405 69.6281 217.531 68.2729 216.949ZM63.0896 221.729C63.4845 220.891 63.764 220.004 63.9204 219.092L64.402 218.989C64.7011 220.537 65.3159 222.006 66.208 223.306C65.6782 223.053 65.1063 222.776 64.4983 222.463C64.0468 222.24 63.5712 221.987 63.0896 221.729Z" fill="#2E353A"/>
<path d="M89.6981 216.016C89.6981 216.016 84.7979 216.166 81.7999 219.278C78.802 222.391 78.8622 227.297 78.8622 227.297C78.8622 227.297 83.7624 227.147 86.7604 224.034C89.7583 220.922 89.6981 216.016 89.6981 216.016Z" fill="#2E353A"/>
<path d="M76.9055 219.17L81.7215 214.842L81.5108 214.613L76.9055 218.755L76.8814 213.084L76.9055 213.102L80.975 207.148L80.7221 206.974L76.8754 212.596L76.8152 198.949H76.5081L76.5503 208.214L73.4861 205.559L73.2814 205.794L76.5503 208.623L76.5804 215.245L71.9329 211.139L71.7283 211.368L76.5804 215.66L76.6045 221.687L73.1189 218.947L72.9263 219.194L76.6105 222.084L76.6225 225.967L76.9356 225.961L76.9055 219.17Z" fill="white"/>
<path d="M72.4748 220.838L72.1678 220.808L71.7765 224.233L69.7116 221.921L69.1879 217.774L68.8808 217.816L69.3504 221.524L64.2153 215.781L63.9866 215.986L67.4722 219.881L65.2628 219.911L65.2688 220.218L67.7431 220.188L70.1872 222.921L66.7377 222.927V223.234L70.4641 223.228L72.6855 225.714L70.2534 225.858L70.2715 226.165L72.9504 226.009L74.4313 227.658L74.66 227.454L72.0534 224.54L72.4748 220.838Z" fill="white"/>
<path d="M84.0993 222.06L88.1989 221.229L88.1388 220.928L84.4726 221.674L89.8183 216.118L89.5956 215.907L85.9655 219.676L85.7789 217.472L85.4719 217.503L85.6826 219.971L83.1422 222.607L82.8833 219.17L82.5703 219.194L82.8532 222.908L80.5415 225.31L80.2164 222.89L79.9094 222.933L80.2706 225.593L78.7295 227.189L78.9522 227.405L81.6673 224.588L85.3876 224.733L85.3997 224.426L81.9502 224.293L84.0993 222.06Z" fill="white"/>
<path d="M243.768 197.029C242.998 196.436 242.319 195.734 241.751 194.946C241.539 194.586 241.408 194.184 241.367 193.768C241.325 193.352 241.374 192.933 241.51 192.538C241.591 192.363 241.708 192.207 241.853 192.08C241.998 191.954 242.167 191.859 242.351 191.802C242.535 191.745 242.729 191.728 242.92 191.751C243.111 191.774 243.296 191.837 243.461 191.936C244.454 192.538 244.556 194.651 244.31 195.656C244.286 195.716 243.81 197.041 243.768 197.029Z" fill="#2E353A"/>
<path d="M258.631 207.6C258.565 207.66 257.427 208.491 257.427 208.473C257.427 208.454 256.789 206.528 256.891 205.619C256.913 205.201 257.025 204.793 257.221 204.423C257.416 204.052 257.69 203.729 258.023 203.476C258.187 203.372 258.37 203.304 258.561 203.276C258.753 203.248 258.948 203.26 259.134 203.313C259.32 203.365 259.493 203.456 259.642 203.579C259.791 203.703 259.912 203.856 259.998 204.03C260.467 205.089 259.396 206.895 258.631 207.6Z" fill="#2E353A"/>
<path d="M224.955 198.949C224.955 198.949 230.837 205.023 230.807 212.482C230.777 219.941 224.841 225.967 224.841 225.967C224.841 225.967 218.953 219.893 218.99 212.434C219.026 204.975 224.955 198.949 224.955 198.949Z" fill="#2E353A"/>
<path d="M233.341 216.949C233.265 216.865 233.195 216.777 233.131 216.684C232.877 216.35 232.699 215.965 232.61 215.555C232.521 215.145 232.522 214.721 232.613 214.312C232.671 214.128 232.767 213.957 232.895 213.813C233.024 213.668 233.181 213.552 233.357 213.473C233.534 213.393 233.725 213.352 233.918 213.351C234.111 213.351 234.302 213.391 234.479 213.469C235.28 213.842 235.683 215.125 235.755 216.172C236.074 216.1 236.357 216.046 236.61 216.004C236.713 215.763 236.821 215.528 236.929 215.287C237.038 215.046 237.128 214.788 237.23 214.535C237.369 214.161 237.495 213.77 237.622 213.379C236.78 213.035 235.996 212.564 235.298 211.982C234.997 211.691 234.763 211.337 234.612 210.947C234.462 210.556 234.398 210.137 234.425 209.719C234.455 209.527 234.524 209.344 234.63 209.181C234.735 209.019 234.873 208.88 235.036 208.774C235.198 208.669 235.381 208.598 235.572 208.568C235.764 208.538 235.96 208.548 236.147 208.599C237.26 208.93 237.917 210.923 237.953 211.964C237.953 212 237.953 212.217 237.911 212.482C238.025 212.097 238.139 211.711 238.242 211.32C238.531 210.2 238.783 209.056 239.048 207.907C239.102 207.666 239.163 207.431 239.217 207.19C238.346 206.838 237.534 206.355 236.809 205.758C236.508 205.466 236.275 205.112 236.124 204.722C235.973 204.331 235.909 203.912 235.936 203.494C235.967 203.303 236.037 203.12 236.142 202.958C236.248 202.796 236.386 202.658 236.548 202.552C236.71 202.447 236.893 202.376 237.084 202.346C237.275 202.315 237.471 202.325 237.658 202.374C238.777 202.705 239.464 204.704 239.464 205.745C239.464 205.782 239.464 206.046 239.409 206.347C239.566 205.745 239.723 205.113 239.903 204.505C240.2 203.459 240.566 202.433 240.999 201.435C240.107 201.075 239.275 200.582 238.531 199.972C238.229 199.682 237.994 199.328 237.843 198.937C237.693 198.546 237.629 198.127 237.658 197.709C237.687 197.518 237.757 197.335 237.862 197.173C237.967 197.011 238.105 196.873 238.266 196.767C238.428 196.661 238.61 196.591 238.801 196.56C238.992 196.53 239.187 196.54 239.373 196.589C240.493 196.92 241.149 198.919 241.179 199.954C241.179 200.033 241.095 200.984 241.053 201.321C241.053 201.321 241.053 201.321 241.053 201.285C241.503 200.315 242.039 199.389 242.654 198.515C243.196 197.728 243.783 196.972 244.412 196.252C245.014 195.584 245.562 195.012 246.074 194.506C246.351 194.235 246.609 193.988 246.856 193.766H246.82C246.82 193.766 247.368 192.465 247.422 192.387C247.946 191.484 249.481 190.051 250.625 190.298C250.811 190.346 250.986 190.432 251.138 190.55C251.289 190.669 251.414 190.819 251.505 190.988C251.596 191.158 251.65 191.345 251.664 191.538C251.678 191.73 251.653 191.923 251.588 192.104C251.412 192.484 251.154 192.821 250.834 193.092C250.514 193.362 250.138 193.559 249.734 193.669C248.809 193.844 247.863 193.876 246.928 193.766C246.682 194.006 246.417 194.259 246.128 194.554C245.634 195.066 245.074 195.656 244.514 196.33C244.364 196.511 244.207 196.709 244.057 196.932C244.382 196.667 244.833 196.3 244.882 196.27C245.755 195.716 247.783 195.15 248.68 195.897C248.824 196.027 248.938 196.185 249.017 196.362C249.095 196.539 249.136 196.73 249.136 196.923C249.136 197.117 249.095 197.308 249.017 197.485C248.938 197.661 248.824 197.82 248.68 197.95C248.347 198.203 247.964 198.382 247.555 198.473C247.147 198.565 246.724 198.567 246.314 198.479C245.407 198.212 244.546 197.806 243.762 197.275C243.431 197.709 243.1 198.154 242.781 198.642C242.193 199.519 241.683 200.445 241.258 201.411C241.258 201.465 241.215 201.525 241.197 201.58C241.33 201.423 242.149 200.592 242.215 200.544C243.027 199.894 244.978 199.111 245.947 199.75C246.106 199.861 246.24 200.004 246.34 200.17C246.44 200.336 246.504 200.521 246.527 200.714C246.551 200.906 246.534 201.101 246.478 201.287C246.422 201.472 246.327 201.644 246.2 201.79C245.897 202.08 245.535 202.3 245.14 202.436C244.744 202.572 244.323 202.621 243.906 202.579C242.955 202.397 242.036 202.074 241.179 201.622C240.783 202.602 240.451 203.608 240.186 204.632C239.981 205.384 239.813 206.155 239.644 206.931C239.831 206.727 240.589 205.956 240.65 205.908C241.462 205.258 243.413 204.475 244.388 205.113C244.546 205.225 244.68 205.369 244.779 205.535C244.878 205.701 244.942 205.887 244.965 206.079C244.988 206.271 244.971 206.466 244.914 206.652C244.857 206.837 244.762 207.008 244.635 207.154C244.333 207.445 243.972 207.666 243.575 207.803C243.179 207.939 242.758 207.987 242.341 207.943C241.395 207.765 240.482 207.445 239.632 206.992C239.554 207.347 239.482 207.696 239.403 208.051C239.169 209.201 238.934 210.357 238.669 211.489C238.579 211.88 238.47 212.265 238.368 212.65C238.657 212.349 239.187 211.82 239.235 211.778C240.048 211.127 241.998 210.345 242.967 210.989C243.126 211.099 243.26 211.242 243.359 211.408C243.459 211.573 243.523 211.758 243.547 211.95C243.571 212.142 243.554 212.337 243.498 212.522C243.442 212.707 243.347 212.878 243.22 213.024C242.918 213.314 242.557 213.535 242.16 213.671C241.764 213.808 241.343 213.856 240.927 213.812C240.011 213.645 239.126 213.34 238.302 212.909C238.127 213.547 237.935 214.174 237.7 214.788C237.603 215.046 237.519 215.323 237.411 215.57L237.248 215.961H237.471C237.471 215.961 237.471 216.329 237.471 216.919C238.326 216.317 239.56 215.781 240.361 216.154C240.535 216.239 240.689 216.36 240.813 216.508C240.937 216.657 241.028 216.83 241.081 217.016C241.134 217.203 241.147 217.398 241.119 217.59C241.092 217.781 241.024 217.965 240.921 218.129C240.866 218.215 240.805 218.297 240.74 218.375C240.588 219.278 240.207 220.126 239.632 220.838C239.59 220.892 239.03 221.44 238.705 221.692L239.59 221.211C240.03 220.964 240.481 220.693 240.921 220.434C241.149 220.296 241.372 220.151 241.601 220.001C241.83 219.85 242.04 219.7 242.263 219.543C242.588 219.309 242.907 219.056 243.232 218.797C242.717 218.047 242.323 217.22 242.064 216.347C241.973 215.938 241.972 215.515 242.062 215.107C242.151 214.698 242.329 214.314 242.582 213.981C242.711 213.837 242.87 213.721 243.046 213.642C243.223 213.563 243.415 213.523 243.608 213.523C243.802 213.523 243.994 213.563 244.17 213.642C244.347 213.721 244.506 213.837 244.635 213.981C245.387 214.872 244.833 216.901 244.28 217.779C244.28 217.81 244.123 217.984 243.961 218.189C244.268 217.93 244.563 217.671 244.876 217.4C245.73 216.63 246.579 215.811 247.428 214.992L247.964 214.493C247.439 213.719 247.033 212.871 246.76 211.976C246.671 211.566 246.672 211.142 246.762 210.733C246.853 210.324 247.03 209.939 247.284 209.604C247.413 209.461 247.572 209.346 247.749 209.268C247.925 209.19 248.117 209.149 248.31 209.149C248.503 209.149 248.695 209.19 248.871 209.268C249.048 209.346 249.207 209.461 249.336 209.604C250.083 210.495 249.529 212.524 248.975 213.403C248.975 213.433 248.795 213.644 248.608 213.872C249.078 213.439 249.553 213.012 250.035 212.602C250.859 211.895 251.73 211.243 252.641 210.652C252.097 209.856 251.675 208.984 251.389 208.063C251.299 207.654 251.3 207.231 251.39 206.822C251.48 206.414 251.659 206.03 251.913 205.697C252.042 205.553 252.201 205.438 252.377 205.359C252.554 205.28 252.746 205.239 252.939 205.239C253.133 205.239 253.325 205.28 253.501 205.359C253.678 205.438 253.837 205.553 253.966 205.697C254.712 206.588 254.158 208.617 253.605 209.496C253.562 209.562 252.967 210.309 252.744 210.568H252.78C253.69 210.01 254.647 209.532 255.639 209.141C256.526 208.789 257.433 208.49 258.354 208.244C259.203 208.009 259.998 207.84 260.702 207.702L261.762 207.515C261.762 207.515 262.936 206.733 263.014 206.691C263.947 206.227 266.024 205.884 266.831 206.691C266.961 206.833 267.061 207.001 267.123 207.184C267.185 207.367 267.207 207.561 267.189 207.754C267.171 207.946 267.112 208.133 267.017 208.301C266.922 208.47 266.793 208.616 266.638 208.731C266.282 208.952 265.881 209.091 265.465 209.14C265.049 209.189 264.628 209.146 264.23 209.014C263.358 208.652 262.546 208.159 261.822 207.551C261.485 207.612 261.124 207.678 260.726 207.762C260.022 207.919 259.239 208.099 258.391 208.364L257.698 208.587L258.746 208.491C259.787 208.491 261.786 209.159 262.123 210.297C262.174 210.483 262.186 210.679 262.157 210.87C262.127 211.062 262.058 211.245 261.952 211.407C261.847 211.57 261.709 211.708 261.546 211.814C261.384 211.919 261.201 211.989 261.009 212.018C260.592 212.048 260.174 211.986 259.783 211.837C259.392 211.688 259.038 211.457 258.746 211.157C258.142 210.433 257.651 209.621 257.289 208.749C256.777 208.924 256.253 209.111 255.718 209.351C254.744 209.753 253.809 210.243 252.924 210.814L252.774 210.923C252.979 210.869 254.116 210.628 254.195 210.622C255.23 210.525 257.289 210.953 257.746 212.024C257.815 212.202 257.845 212.393 257.835 212.583C257.825 212.774 257.775 212.96 257.689 213.13C257.603 213.3 257.482 213.45 257.334 213.571C257.187 213.692 257.015 213.78 256.831 213.83C256.42 213.907 255.996 213.893 255.591 213.789C255.185 213.685 254.808 213.493 254.484 213.228C253.792 212.552 253.204 211.777 252.738 210.929C251.87 211.521 251.042 212.168 250.258 212.867C249.656 213.385 249.108 213.933 248.542 214.487C248.807 214.414 249.866 214.198 249.944 214.192C250.98 214.095 253.039 214.517 253.496 215.588C253.567 215.768 253.6 215.961 253.592 216.154C253.583 216.348 253.535 216.537 253.448 216.71C253.362 216.884 253.24 217.037 253.091 217.16C252.941 217.283 252.768 217.373 252.581 217.424C252.17 217.501 251.746 217.487 251.341 217.383C250.935 217.279 250.557 217.087 250.233 216.822C249.544 216.152 248.958 215.383 248.494 214.541L247.729 215.293C246.892 216.124 246.062 216.961 245.213 217.755C244.918 218.032 244.611 218.297 244.322 218.562C244.725 218.472 245.46 218.315 245.526 218.309C246.561 218.213 248.62 218.64 249.078 219.712C249.149 219.892 249.181 220.085 249.173 220.278C249.165 220.471 249.116 220.661 249.03 220.834C248.943 221.007 248.821 221.16 248.672 221.283C248.523 221.406 248.349 221.497 248.163 221.548C247.751 221.624 247.328 221.61 246.922 221.506C246.517 221.402 246.139 221.211 245.815 220.946C245.139 220.304 244.569 219.561 244.123 218.743C243.623 219.182 243.118 219.604 242.6 219.989C242.377 220.157 242.155 220.338 241.926 220.482L241.258 220.928C240.794 221.217 240.361 221.488 239.915 221.747L239.265 222.126C239.656 221.969 240.282 221.735 240.343 221.723C241.354 221.47 243.455 221.578 244.069 222.565C244.167 222.731 244.229 222.916 244.252 223.107C244.274 223.298 244.257 223.492 244.2 223.677C244.143 223.861 244.049 224.031 243.923 224.177C243.796 224.322 243.641 224.44 243.467 224.522C243.072 224.659 242.652 224.707 242.236 224.665C241.82 224.622 241.418 224.489 241.059 224.275C240.278 223.719 239.584 223.049 239 222.288C238.47 222.595 237.947 222.89 237.447 223.149C236.129 223.86 234.979 224.42 234.082 224.841C231.168 227.279 227.075 227.556 227.075 227.556C227.075 227.556 226.858 222.662 229.741 219.435C230.747 218.355 231.975 217.506 233.341 216.949ZM238.531 221.729C238.136 220.891 237.856 220.004 237.7 219.092L237.218 218.989C236.919 220.537 236.304 222.006 235.412 223.306C235.942 223.053 236.514 222.776 237.116 222.463C237.573 222.24 238.049 221.987 238.531 221.729Z" fill="#2E353A"/>
<path d="M211.904 216.016C211.904 216.016 216.804 216.166 219.802 219.278C222.8 222.391 222.764 227.297 222.764 227.297C222.764 227.297 217.864 227.147 214.866 224.034C211.868 220.922 211.904 216.016 211.904 216.016Z" fill="#2E353A"/>
<path d="M224.715 219.17L219.899 214.842L220.109 214.613L224.715 218.755L224.739 213.084L224.715 213.102L220.645 207.148L220.898 206.974L224.745 212.596L224.799 198.949H225.112L225.07 208.214L228.134 205.559L228.339 205.794L225.07 208.623L225.04 215.245L229.687 211.139L229.892 211.368L225.04 215.66L225.01 221.687L228.501 218.947L228.694 219.194L225.01 222.084L224.991 225.967L224.684 225.961L224.715 219.17Z" fill="white"/>
<path d="M229.145 220.838L229.452 220.808L229.844 224.233L231.909 221.921L232.432 217.774L232.733 217.816L232.27 221.524L237.405 215.781L237.634 215.986L234.148 219.881L236.357 219.911L236.351 220.218L233.877 220.188L231.433 222.921L234.882 222.927V223.234L231.156 223.228L228.935 225.714L231.367 225.858L231.349 226.165L228.67 226.009L227.189 227.658L226.96 227.454L229.567 224.54L229.145 220.838Z" fill="white"/>
<path d="M217.515 222.06L213.421 221.229L213.481 220.928L217.147 221.674L211.802 216.118L212.024 215.907L215.648 219.676L215.841 217.472L216.148 217.503L215.937 219.971L218.478 222.607L218.737 219.17L219.05 219.194L218.767 222.908L221.078 225.31L221.404 222.89L221.711 222.933L221.349 225.593L222.89 227.189L222.668 227.405L219.953 224.588L216.232 224.733L216.22 224.426L219.67 224.293L217.521 222.06H217.515Z" fill="white"/>
<path d="M196.854 84.6893C192.928 84.6951 189.123 83.3303 186.096 80.8305C182.605 77.9289 181.443 74.341 180.215 70.5363C178.138 64.107 172.208 59.6221 165.767 59.6221C163.684 59.6524 161.629 60.108 159.728 60.961C157.828 61.814 156.121 63.0464 154.714 64.5825C153.173 66.3043 152.306 68.5136 151.373 70.8494C150.44 73.1851 149.44 75.7135 147.665 77.8205C145.831 79.9822 143.546 81.717 140.972 82.9035C138.397 84.0899 135.594 84.6995 132.759 84.6893C127.973 84.695 123.343 82.9865 119.708 79.8733C116.644 77.2426 115.078 73.6186 113.615 69.826C111.954 65.5217 109.895 61.121 106.054 58.0629C102.499 55.2061 98.0819 53.6342 93.5207 53.6021C82.0225 53.6021 72.6674 66.4307 72.6674 78.6573H69.7959C69.7959 64.7451 80.4393 50.5499 93.5207 50.5499C98.705 50.5937 103.722 52.3885 107.758 55.6428C112.153 59.1344 114.44 63.9745 116.252 68.6822C117.571 72.0955 118.961 75.3403 121.496 77.5195C124.632 80.1907 128.621 81.6513 132.741 81.6372C135.168 81.6506 137.568 81.1333 139.773 80.1215C141.979 79.1096 143.937 77.6278 145.509 75.7797C146.96 74.058 147.809 71.9209 148.706 69.6634C149.693 67.1772 150.711 64.6066 152.613 62.4816C154.281 60.6379 156.315 59.1617 158.585 58.1471C160.854 57.1324 163.311 56.6014 165.797 56.588C173.424 56.588 180.474 61.9217 182.936 69.5611C184.14 73.2152 185.049 76.0988 187.872 78.4466C190.404 80.522 193.58 81.6502 196.854 81.6372C199.835 81.6087 202.729 80.6231 205.107 78.8259C207.106 77.3329 208.304 75.1236 209.574 72.8059C210.706 70.7169 211.88 68.5557 213.692 66.7859C216.455 64.0793 220.149 62.5346 224.016 62.4695C232.444 62.4695 239.325 69.7658 239.325 78.7235H236.454C236.454 71.4333 230.873 65.4795 224.016 65.4795C220.871 65.54 217.868 66.8023 215.624 69.0072C214.143 70.434 213.132 72.3002 212.061 74.2687C210.694 76.7911 209.279 79.3978 206.763 81.282C203.911 83.4522 200.437 84.6469 196.854 84.6893Z" fill="#5E53B8" stroke="#2E353A" stroke-linecap="round" stroke-linejoin="round"/>
<path d="M72.6674 78.6754L76.4721 87.7536H73.733L69.7959 78.6754H72.6674Z" fill="#5E53B8" stroke="#2E353A" stroke-linecap="round" stroke-linejoin="round"/>
<path d="M224.022 65.5216C220.877 65.5822 217.874 66.8444 215.63 69.0494C214.15 70.4761 213.138 72.3423 212.067 74.3109C210.7 76.8332 209.285 79.4399 206.769 81.3241C203.775 83.5896 200.103 84.7741 196.35 84.6845C192.596 84.5948 188.984 83.2363 186.102 80.8305C182.611 77.9289 181.449 74.341 180.221 70.5363C178.144 64.1069 172.214 59.6221 165.773 59.6221C163.689 59.6515 161.633 60.1068 159.731 60.9598C157.829 61.8128 156.122 63.0456 154.714 64.5825C153.173 66.3042 152.306 68.5136 151.373 70.8494C150.44 73.1851 149.441 75.7135 147.665 77.8205C145.831 79.9822 143.546 81.717 140.972 82.9035C138.397 84.0899 135.594 84.6994 132.759 84.6893C127.973 84.695 123.343 82.9865 119.708 79.8733C116.644 77.2426 115.078 73.6185 113.616 69.8259C111.954 65.5216 109.895 61.121 106.054 58.0629C102.499 55.2061 98.0819 53.6342 93.5208 53.6021C82.0226 53.6021 72.6675 66.4307 72.6675 78.6573L76.4541 87.7535C76.4541 76.0988 85.3757 63.7337 96.3201 63.7337C100.668 63.7648 104.879 65.2623 108.27 67.9838C111.93 70.8975 113.898 75.0934 115.494 79.1991C116.884 82.8111 118.377 86.2726 121.303 88.7829C124.772 91.7447 129.185 93.3676 133.746 93.3581C136.45 93.3682 139.124 92.7866 141.579 91.6541C144.034 90.5216 146.212 88.8656 147.96 86.8024C149.651 84.7977 150.59 82.4379 151.493 80.1804C152.396 77.9229 153.215 75.852 154.684 74.2085C156.028 72.7391 157.659 71.5611 159.476 70.7472C161.293 69.9333 163.258 69.501 165.249 69.4768C171.371 69.4768 177.03 73.757 179.005 79.8854C180.179 83.4974 181.28 86.9348 184.615 89.704C187.496 92.081 191.115 93.3814 194.849 93.3822C198.26 93.3532 201.572 92.2283 204.295 90.1735C206.703 88.3675 208.045 85.8933 209.346 83.4853C210.369 81.6071 211.332 79.8252 212.747 78.4707C214.885 76.3635 217.752 75.1587 220.753 75.1055C227.291 75.1055 232.613 80.7583 232.613 87.7114L237.176 78.7656H236.411C236.46 71.4513 230.879 65.5216 224.022 65.5216Z" fill="#2E353A" stroke="#2E353A" stroke-linecap="round" stroke-linejoin="round"/>
<path d="M235.394 87.6873L239.331 78.7416H236.46L232.661 87.6873H235.394Z" fill="#5E53B8" stroke="#2E353A" stroke-linecap="round" stroke-linejoin="round"/>
<path d="M227.496 88.2772H81.0112V226.183H227.496V88.2772Z" fill="#5E53B8" stroke="#2E353A" stroke-linecap="round" stroke-linejoin="round"/>
<path opacity="0.3" d="M227.496 88.2772H81.0112V226.183H227.496V88.2772Z" fill="black"/>
<path d="M156.52 88.2772H151.987V226.183H156.52V88.2772Z" fill="#2E353A" stroke="#2E353A" stroke-linecap="round" stroke-linejoin="round"/>
<path d="M95.2906 198.955H91.7268V231.523H95.2906V198.955Z" fill="white" stroke="#2E353A" stroke-linecap="round" stroke-linejoin="round"/>
<path d="M156.61 198.955H153.046V231.523H156.61V198.955Z" fill="white" stroke="#2E353A" stroke-linecap="round" stroke-linejoin="round"/>
<path d="M218.947 198.955H215.384V231.523H218.947V198.955Z" fill="white" stroke="#2E353A" stroke-linecap="round" stroke-linejoin="round"/>
<path d="M220.284 197.173H89.3669V201.827H220.284V197.173Z" fill="white" stroke="#2E353A" stroke-linecap="round" stroke-linejoin="round"/>
<path d="M220.218 197.173H89.4331L97.2832 192.851H212.368L220.218 197.173Z" fill="#2E353A" stroke="#2E353A" stroke-linecap="round" stroke-linejoin="round"/>
<path d="M86.5496 90.312H81.0112V228.218H86.5496V90.312Z" fill="#2E353A" stroke="#2E353A" stroke-linecap="round" stroke-linejoin="round"/>
<path d="M80.4874 90.312H74.949V233.305H80.4874V90.312Z" fill="white" stroke="#2E353A" stroke-linecap="round" stroke-linejoin="round"/>
<path d="M234.636 90.312H229.097V233.305H234.636V90.312Z" fill="white" stroke="#2E353A" stroke-linecap="round" stroke-linejoin="round"/>
<path d="M255.326 243.611H258.86" stroke="#2E353A" stroke-linecap="round" stroke-linejoin="round"/>
<path d="M243.617 243.611H253.924" stroke="#2E353A" stroke-linecap="round" stroke-linejoin="round"/>
<path d="M61.416 243.611H241.041" stroke="#2E353A" stroke-linecap="round" stroke-linejoin="round"/>
<path d="M43.344 243.611H57.6656" stroke="#2E353A" stroke-linecap="round" stroke-linejoin="round"/>
<path d="M255.091 250.432H258.86" stroke="#2E353A" stroke-linecap="round" stroke-linejoin="round"/>
<path d="M73.3596 250.432H252.515" stroke="#2E353A" stroke-linecap="round" stroke-linejoin="round"/>
<path d="M43.344 250.432H69.844" stroke="#2E353A" stroke-linecap="round" stroke-linejoin="round"/>
<path d="M228.573 90.312H223.035V228.218H228.573V90.312Z" fill="#2E353A" stroke="#2E353A" stroke-linecap="round" stroke-linejoin="round"/>
<path d="M235.912 87.3502H72.8298V96.8498H235.912V87.3502Z" fill="white" stroke="#2E353A" stroke-linecap="round" stroke-linejoin="round"/>
<path d="M59.3392 236.622L57.4248 238.193V110.238H59.3392V236.622Z" fill="#2E353A" stroke="#2E353A" stroke-linecap="round" stroke-linejoin="round"/>
<path d="M62.7524 117.095H54.0173V76.5985L62.7524 78.9523V117.095Z" fill="#2E353A" stroke="#2E353A" stroke-linecap="round" stroke-linejoin="round"/>
<path d="M61.9036 113.152H54.8662V80.5415L61.9036 82.1308V113.152Z" fill="#5E53B8" stroke="#2E353A" stroke-linecap="round" stroke-linejoin="round"/>
<path d="M172.774 151.915C173.424 152.267 173.978 152.773 174.387 153.389C174.797 154.006 175.049 154.712 175.122 155.448C175.447 158.055 181.015 175.495 181.015 176.801C181.015 178.108 178.361 180.082 176.073 180.082C173.785 180.082 172.268 172.034 172.268 172.034L172.774 151.915Z" fill="white" stroke="#2E353A" stroke-linecap="round" stroke-linejoin="round"/>
<path d="M174.08 158.416L172.527 162.558L175.116 160.487" stroke="#2E353A" stroke-width="0.5" stroke-linecap="round" stroke-linejoin="round"/>
<path d="M142.849 151.885C142.849 151.885 140.079 153.155 139.646 155.551C139.213 157.947 134.848 178.234 135.089 179.215C135.33 180.197 141.506 181.822 142.481 181.389C143.457 180.955 143.878 170.077 143.878 170.077L142.849 151.885Z" fill="white" stroke="#2E353A" stroke-linecap="round" stroke-linejoin="round"/>
<path d="M143.655 162.558L141.067 157.122" stroke="#2E353A" stroke-width="0.5" stroke-linecap="round" stroke-linejoin="round"/>
<path d="M143.27 163.208L140.031 159.969" stroke="#2E353A" stroke-width="0.5" stroke-linecap="round" stroke-linejoin="round"/>
<path d="M152.8 148.164C152.8 148.164 143.276 151.174 142.849 151.885C142.421 152.595 145.046 179.577 145.046 181.304C145.046 183.032 145.726 184.368 148.285 185.133C150.843 185.898 162.51 185.735 165.321 185.476C168.133 185.217 171.197 183.261 171.456 181.473C171.714 179.685 172.822 153.546 173.075 152.294C173.183 151.74 170.992 150.843 168.741 149.94C166.796 149.164 162.082 147.147 160.313 147.147C158.543 147.147 156.123 146.635 152.8 148.164Z" fill="white" stroke="#2E353A" stroke-linecap="round" stroke-linejoin="round"/>
<path d="M158.928 177.59C158.717 178.351 158.586 179.132 158.537 179.92C158.537 180.829 160.608 180.57 160.608 181.864C160.608 183.158 158.278 184.32 158.278 184.32" stroke="#2E353A" stroke-width="0.5" stroke-linecap="round" stroke-linejoin="round"/>
<path d="M151.921 178.047C151.921 178.047 154.63 181.244 163.961 179.649" stroke="#2E353A" stroke-width="0.5" stroke-linecap="round" stroke-linejoin="round"/>
<path d="M154.503 146.208C154.503 146.208 152.288 146.81 151.86 147.653C151.433 148.495 152.119 149.699 152.204 150.663C152.288 151.626 151 155.262 151 155.262C151 155.262 153.552 155.177 154.01 155.515C154.467 155.852 158.777 158.838 158.777 158.838C158.777 158.838 160.228 155.262 161.932 154.75C163.636 154.238 165.171 153.727 165.171 153.727C165.171 153.727 163.124 150.831 162.444 148.531C161.763 146.232 157.399 144.588 154.503 146.208Z" fill="#2E353A" stroke="#2E353A" stroke-linecap="round" stroke-linejoin="round"/>
<path d="M153.564 144.588C153.564 144.588 155.099 151.319 155.184 155.424C155.268 159.53 152.715 168.542 153.907 171.076C155.099 173.611 158.338 176.187 158.591 176.187C158.844 176.187 161.234 171.757 161.402 168.602C161.571 165.448 159.103 157.273 159.867 153.697C160.387 150.884 160.701 148.037 160.806 145.178L153.564 144.588Z" fill="white" stroke="#2E353A" stroke-linecap="round" stroke-linejoin="round"/>
<g style="mix-blend-mode:multiply" opacity="0.54">
<path d="M153.564 144.588C153.564 144.588 153.883 145.991 154.238 147.905C155.527 148.65 157.002 149.011 158.489 148.947C159.224 148.907 159.943 148.716 160.602 148.387C160.758 146.581 160.806 145.184 160.806 145.184L153.564 144.588Z" fill="#5E53B8"/>
</g>
<path d="M158.591 176.193C158.85 176.193 161.234 171.763 161.402 168.608C161.571 165.454 159.103 157.279 159.867 153.703C159.943 153.337 160.016 152.958 160.084 152.565C159.519 152.696 158.942 152.769 158.362 152.782C157.177 152.825 155.998 152.599 154.913 152.119C155.059 153.21 155.149 154.307 155.184 155.406C155.268 159.494 152.715 168.524 153.907 171.058C155.099 173.593 158.326 176.193 158.591 176.193Z" fill="white" stroke="#2E353A" stroke-linecap="round" stroke-linejoin="round"/>
<path d="M174.291 177.837C174.291 177.837 190.063 189.16 190.19 190.431C190.316 191.701 183.068 199.719 180.395 199.461C177.723 199.202 168.56 183.435 168.56 183.435L174.291 177.837Z" fill="#5E53B8" stroke="#2E353A" stroke-linecap="round" stroke-linejoin="round"/>
<path d="M147.255 150.169L172.178 182.478L174.026 178.234L150.741 148.875L147.255 150.169Z" fill="#5E53B8" stroke="#2E353A" stroke-linecap="round" stroke-linejoin="round"/>
<path d="M141.067 221.855L141.289 226.671C141.289 226.671 137.804 229.079 136.281 230.042C134.758 231.006 132.151 232.541 133.018 233.197C133.885 233.853 145.66 233.197 145.66 233.197C145.66 233.197 145.985 232.98 145.985 231.565C145.985 230.151 145.768 223.842 145.768 223.842L141.067 221.855Z" fill="white" stroke="#2E353A" stroke-linecap="round" stroke-linejoin="round"/>
<path d="M145.961 231.535C145.961 231.138 145.961 230.331 145.919 229.422L142.373 229.687C142.373 229.687 142.373 229.248 142.265 227.941C142.156 226.635 141.289 226.641 141.289 226.641C141.289 226.641 137.804 229.049 136.281 230.012C134.758 230.975 132.151 232.51 133.018 233.167C133.885 233.823 145.66 233.167 145.66 233.167C145.66 233.167 145.961 232.974 145.961 231.535Z" fill="#2E353A" stroke="#2E353A" stroke-linecap="round" stroke-linejoin="round"/>
<path d="M132.964 232.51C132.807 232.769 132.795 232.998 133.018 233.167C133.891 233.817 145.66 233.167 145.66 233.167C145.66 233.167 145.816 233.052 145.913 232.51H132.964Z" fill="white" stroke="#2E353A" stroke-linecap="round" stroke-linejoin="round"/>
<path d="M172.07 221.855L171.853 226.671C171.853 226.671 175.333 229.079 176.856 230.042C178.379 231.006 180.985 232.541 180.118 233.197C179.252 233.853 167.476 233.197 167.476 233.197C167.476 233.197 167.151 232.98 167.151 231.565C167.151 230.151 167.368 223.842 167.368 223.842L172.07 221.855Z" fill="white" stroke="#2E353A" stroke-linecap="round" stroke-linejoin="round"/>
<path d="M167.175 231.535C167.175 231.138 167.175 230.331 167.218 229.422L170.763 229.687C170.763 229.687 170.763 229.248 170.872 227.941C170.98 226.635 171.853 226.641 171.853 226.641C171.853 226.641 175.333 229.049 176.856 230.012C178.379 230.975 180.985 232.51 180.118 233.167C179.252 233.823 167.476 233.167 167.476 233.167C167.476 233.167 167.175 232.974 167.175 231.535Z" fill="#2E353A" stroke="#2E353A" stroke-linecap="round" stroke-linejoin="round"/>
<path d="M180.173 232.51C180.335 232.769 180.341 232.998 180.118 233.167C179.246 233.817 167.476 233.167 167.476 233.167C167.476 233.167 167.32 233.052 167.224 232.51H180.173Z" fill="white" stroke="#2E353A" stroke-linecap="round" stroke-linejoin="round"/>
<path d="M145.853 183.568C145.853 183.568 138.568 185.849 135.956 187.698C133.343 189.546 134.752 193.465 137.479 195.963C140.206 198.461 144.221 200.099 147.159 198.792C150.097 197.486 153.36 194.548 157.712 194.548C162.064 194.548 165.869 197.926 169.752 199.334C173.635 200.743 178.782 196.18 179.763 192.375C180.745 188.57 178.294 184.32 172.256 184.76C159.488 185.693 156.803 186.62 145.853 183.568Z" fill="#2E353A" stroke="#2E353A" stroke-linecap="round" stroke-linejoin="round"/>
<path d="M138.243 187.914C138.243 187.914 134.541 186.831 133.457 190.322C132.374 193.814 135.306 213.596 135.865 217.412C136.425 221.229 136.299 221.873 136.299 221.873C136.299 221.873 140.976 222.632 142.499 223.505C144.022 224.377 146.418 224.371 146.418 224.371C146.418 224.371 144.239 210.23 144.679 206.968C145.118 203.705 146.852 201.423 146.418 198.052C145.985 194.681 143.047 190.226 143.047 190.226" fill="#2E353A"/>
<path d="M138.243 187.914C138.243 187.914 134.541 186.831 133.457 190.322C132.374 193.814 135.306 213.596 135.865 217.412C136.425 221.229 136.299 221.873 136.299 221.873C136.299 221.873 140.976 222.632 142.499 223.505C144.022 224.377 146.418 224.371 146.418 224.371C146.418 224.371 144.239 210.23 144.679 206.968C145.118 203.705 146.852 201.423 146.418 198.052C145.985 194.681 143.047 190.226 143.047 190.226" stroke="#2E353A" stroke-linecap="round" stroke-linejoin="round"/>
<path d="M175.056 187.914C175.056 187.914 178.752 186.831 179.842 190.322C180.931 193.814 177.987 213.596 177.434 217.412C176.88 221.229 177 221.873 177 221.873C177 221.873 172.323 222.632 170.799 223.505C169.276 224.377 166.88 224.371 166.88 224.371C166.88 224.371 169.06 210.23 168.626 206.968C168.193 203.705 166.447 201.423 166.88 198.052C167.314 194.681 170.258 190.226 170.258 190.226" fill="#2E353A"/>
<path d="M175.056 187.914C175.056 187.914 178.752 186.831 179.842 190.322C180.931 193.814 177.987 213.596 177.434 217.412C176.88 221.229 177 221.873 177 221.873C177 221.873 172.323 222.632 170.799 223.505C169.276 224.377 166.88 224.371 166.88 224.371C166.88 224.371 169.06 210.23 168.626 206.968C168.193 203.705 166.447 201.423 166.88 198.052C167.314 194.681 170.258 190.226 170.258 190.226" stroke="#2E353A" stroke-linecap="round" stroke-linejoin="round"/>
<path d="M169.993 190.948C168.769 192.983 167.76 195.14 166.983 197.384C166.85 195.326 167.396 193.281 168.536 191.562" stroke="white" stroke-width="0.5" stroke-linecap="round" stroke-linejoin="round"/>
<path d="M172.401 188.324C171.93 188.621 171.508 188.988 171.149 189.413" stroke="white" stroke-width="0.5" stroke-linecap="round" stroke-linejoin="round"/>
<path d="M142.62 190.395C142.62 190.395 146.232 195.054 146.376 198.419" stroke="white" stroke-width="0.5" stroke-linecap="round" stroke-linejoin="round"/>
<path d="M144.95 191.304C145.6 192.857 145.6 194.151 146.376 197.125" stroke="white" stroke-width="0.5" stroke-linecap="round" stroke-linejoin="round"/>
<path d="M139.76 218.971L134.722 203.085" stroke="white" stroke-width="0.5" stroke-linecap="round" stroke-linejoin="round"/>
<path d="M140.549 221.47L140.043 219.868" stroke="white" stroke-width="0.5" stroke-linecap="round" stroke-linejoin="round"/>
<path d="M174.472 218.315L177.704 208.906" stroke="white" stroke-width="0.5" stroke-linecap="round" stroke-linejoin="round"/>
<path d="M173.436 221.337L174.032 219.598" stroke="white" stroke-width="0.5" stroke-linecap="round" stroke-linejoin="round"/>
<path d="M147.52 131.236L149.133 138.219C149.133 138.219 147.261 137.015 147.261 138.731C147.261 140.447 148.032 141.368 149.067 141.741C149.702 141.945 150.38 141.974 151.03 141.825C151.524 142.86 152.218 143.786 153.071 144.552C154.59 145.912 156.57 146.642 158.609 146.593C160.565 146.593 163.124 144.637 163.804 142.337C164.484 140.037 162.269 135.715 161.932 132.795C161.595 129.875 164.4 129.984 163.136 127.6C161.872 125.216 155.045 124.789 150.867 125.794C146.689 126.799 147.52 131.236 147.52 131.236Z" fill="white" stroke="#2E353A" stroke-linecap="round" stroke-linejoin="round"/>
<path d="M161.059 133.855C160.847 133.892 160.645 133.976 160.469 134.1C160.293 134.224 160.147 134.386 160.041 134.574C159.935 134.762 159.872 134.97 159.856 135.186C159.841 135.401 159.873 135.616 159.951 135.817C160.116 136.723 160.601 137.539 161.318 138.117C161.318 138.117 161.745 139.393 159.783 139.225" stroke="#2E353A" stroke-linecap="round" stroke-linejoin="round"/>
<path d="M157.465 134.469C156.913 134.286 156.318 134.281 155.763 134.457C155.209 134.632 154.724 134.977 154.377 135.444" stroke="#2E353A" stroke-linecap="round" stroke-linejoin="round"/>
<path d="M157.477 136.925C157.555 137.292 157.477 137.623 157.248 137.671C157.02 137.72 156.809 137.461 156.725 137.069C156.64 136.678 156.725 136.365 156.947 136.317C157.17 136.269 157.393 136.558 157.477 136.925Z" fill="#2E353A"/>
<path d="M161.39 136.052C161.474 136.419 161.39 136.756 161.167 136.804C160.945 136.853 160.728 136.588 160.644 136.202C160.559 135.817 160.644 135.504 160.866 135.456C161.089 135.408 161.336 135.703 161.39 136.052Z" fill="#2E353A"/>
<path d="M160.89 141.44L159.614 141.609" stroke="#2E353A" stroke-linecap="round" stroke-linejoin="round"/>
<path d="M150.53 184.11L152.053 185.849L149.663 187.698L148.249 186.5L150.53 184.11Z" fill="#2E353A" stroke="#2E353A" stroke-linecap="round" stroke-linejoin="round"/>
<path d="M140.525 175.405C140.525 175.405 141.175 175.08 142.698 176.061C144.221 177.042 151.403 183.008 150.861 184.326C150.577 184.98 150.125 185.547 149.551 185.97C148.977 186.393 148.301 186.657 147.592 186.734C146.075 186.951 139.218 182.707 137.358 181.509C135.498 180.311 134.95 179.769 135.077 179.227C135.203 178.686 134.968 177.163 136.281 176.506" fill="white"/>
<path d="M140.525 175.405C140.525 175.405 141.175 175.08 142.698 176.061C144.221 177.042 151.403 183.008 150.861 184.326C150.577 184.98 150.125 185.547 149.551 185.97C148.977 186.393 148.301 186.657 147.592 186.734C146.075 186.951 139.218 182.707 137.358 181.509C135.498 180.311 134.95 179.769 135.077 179.227C135.203 178.686 134.968 177.163 136.281 176.506" stroke="#2E353A" stroke-linecap="round" stroke-linejoin="round"/>
<path d="M164.454 183.237L162.39 184.868L164.563 187.264L166.411 185.633L164.454 183.237Z" fill="#2E353A" stroke="#2E353A" stroke-linecap="round" stroke-linejoin="round"/>
<path d="M175.658 174.538C175.658 174.538 173.159 175.188 171.961 176.278C170.44 177.531 168.855 178.705 167.212 179.793C166.23 180.504 164.942 181.088 164.202 182.105C163.226 183.496 164.262 184.272 165.267 185.272C167.705 187.68 170.655 185.585 172.955 184.218C175.254 182.851 177.819 181.557 179.769 179.757C181.184 178.451 181.509 176.278 179.878 174.941" fill="white"/>
<path d="M175.658 174.538C175.658 174.538 173.159 175.188 171.961 176.278C170.44 177.531 168.855 178.705 167.212 179.793C166.23 180.504 164.942 181.088 164.202 182.105C163.226 183.496 164.262 184.272 165.267 185.272C167.705 187.68 170.655 185.585 172.955 184.218C175.254 182.851 177.819 181.557 179.769 179.757C181.184 178.451 181.509 176.278 179.878 174.941" stroke="#2E353A" stroke-linecap="round" stroke-linejoin="round"/>
<path d="M152.053 185.849C153.032 186.216 153.95 186.73 154.774 187.373C155.533 188.131 156.839 192.158 156.839 193.031C156.839 193.904 156.947 194.771 156.297 194.771C155.647 194.771 155.208 194.223 154.883 194.223C154.557 194.223 153.359 193.465 152.27 192.809C151.18 192.152 150.422 190.094 150.097 189.112C149.772 188.131 149.663 187.698 149.663 187.698L152.053 185.849Z" fill="white" stroke="#2E353A" stroke-linecap="round" stroke-linejoin="round"/>
<path d="M154.16 193.844L152.426 191.412" stroke="#2E353A" stroke-width="0.5" stroke-linecap="round" stroke-linejoin="round"/>
<path d="M155.346 194.398L153.679 190.924" stroke="#2E353A" stroke-width="0.5" stroke-linecap="round" stroke-linejoin="round"/>
<path d="M156.526 194.47L154.997 190.437" stroke="#2E353A" stroke-width="0.5" stroke-linecap="round" stroke-linejoin="round"/>
<path d="M162.389 184.868C161.444 185.545 160.536 186.273 159.668 187.047C158.91 187.806 157.604 191.863 157.604 192.7C157.604 193.537 157.495 194.44 158.145 194.44C158.796 194.44 159.235 193.898 159.56 193.898C159.885 193.898 161.083 193.14 162.173 192.483C163.262 191.827 164.021 189.762 164.346 188.787C164.537 188.304 164.611 187.782 164.563 187.264L162.389 184.868Z" fill="white" stroke="#2E353A" stroke-linecap="round" stroke-linejoin="round"/>
<path d="M158.145 194.44L159.723 190.509" stroke="#2E353A" stroke-width="0.5" stroke-linecap="round" stroke-linejoin="round"/>
<path d="M159.307 193.982L161.252 190.37" stroke="#2E353A" stroke-width="0.5" stroke-linecap="round" stroke-linejoin="round"/>
<path d="M161.041 193.146L162.359 190.647" stroke="#2E353A" stroke-width="0.5" stroke-linecap="round" stroke-linejoin="round"/>
<path d="M163.106 127.552C161.83 125.144 155.015 124.74 150.837 125.746C146.659 126.751 147.52 131.2 147.52 131.2L149.055 137.822L149.477 138.346C149.477 138.346 150.079 138.857 150.331 138.261C150.584 137.665 149.477 136.13 149.904 135.534C150.331 134.938 152.035 135.534 151.523 133.493C151.012 131.453 151.012 130.17 153.396 129.316C155.78 128.461 158.675 128.112 159.951 129.063C161.228 130.014 161.914 132.723 161.914 132.723C161.571 129.851 164.382 129.936 163.106 127.552Z" fill="#2E353A" stroke="#2E353A" stroke-linecap="round" stroke-linejoin="round"/>
<path d="M148.134 130.748C148.88 130.867 149.64 130.867 150.386 130.748C151.59 130.55 151.861 128.082 155.918 127.498C159.975 126.914 159.951 129.087 159.951 129.087C159.951 129.087 162.167 126.841 161.252 126.131C160.337 125.421 153.847 125.583 151.102 127.883" stroke="white" stroke-width="0.5" stroke-linecap="round" stroke-linejoin="round"/>
<path d="M187.391 192.128C187.152 192.416 186.895 192.687 186.62 192.941" stroke="#2E353A" stroke-width="0.5" stroke-linecap="round" stroke-linejoin="round"/>
<path d="M181.1 184.447C181.1 184.447 188.36 189.371 188.239 190.467C188.217 190.652 188.166 190.833 188.089 191.003" stroke="#2E353A" stroke-width="0.5" stroke-linecap="round" stroke-linejoin="round"/>
</svg>
