<svg width="317" height="211" viewBox="0 0 317 211" fill="none" xmlns="http://www.w3.org/2000/svg">
<path d="M186.447 31.0212H149.48V127.625H186.447V31.0212Z" fill="#EBEBEB"/>
<path d="M186.443 31.0212H167.959V127.625H186.443V31.0212Z" fill="#E0E0E0"/>
<path d="M166.75 19.5386H153.698V31.0212H166.75V19.5386Z" fill="#EBEBEB"/>
<path d="M166.75 19.5386H163.64V31.0212H166.75V19.5386Z" fill="#E0E0E0"/>
<path d="M187.529 30.3502H146.399V31.0212H187.529V30.3502Z" fill="#E0E0E0"/>
<path d="M159.903 36.0261H156.776V42.6135H159.903V36.0261Z" fill="white"/>
<path d="M167.959 45.2005C167.959 45.2722 163.821 45.3271 158.72 45.3271C153.618 45.3271 149.48 45.2722 149.48 45.2005C149.48 45.1287 153.614 45.0739 158.72 45.0739C163.826 45.0739 167.959 45.154 167.959 45.2005Z" fill="#E0E0E0"/>
<path d="M178.547 36.0261H175.419V42.6135H178.547V36.0261Z" fill="#F5F5F5"/>
<path d="M186.603 45.2005C186.603 45.2722 182.465 45.3271 177.364 45.3271C172.262 45.3271 168.12 45.2722 168.12 45.2005C168.12 45.1287 172.258 45.0739 177.364 45.0739C182.469 45.0739 186.603 45.154 186.603 45.2005Z" fill="#EBEBEB"/>
<path d="M178.547 49.1082H175.419V55.6956H178.547V49.1082Z" fill="#F5F5F5"/>
<path d="M186.603 58.2782C186.603 58.35 182.465 58.4048 177.364 58.4048C172.262 58.4048 168.12 58.35 168.12 58.2782C168.12 58.2065 172.258 58.1516 177.364 58.1516C182.469 58.1516 186.603 58.2107 186.603 58.2782Z" fill="#EBEBEB"/>
<path d="M178.547 62.5784H175.419V69.1658H178.547V62.5784Z" fill="#F5F5F5"/>
<path d="M186.603 71.74C186.603 71.8075 182.465 71.8666 177.364 71.8666C172.262 71.8666 168.12 71.8075 168.12 71.74C168.12 71.6725 172.258 71.6134 177.364 71.6134C182.469 71.6134 186.603 71.6809 186.603 71.74Z" fill="#EBEBEB"/>
<path d="M178.547 76.0529H175.419V82.6403H178.547V76.0529Z" fill="#F5F5F5"/>
<path d="M186.603 85.244C186.603 85.3157 182.465 85.3706 177.364 85.3706C172.262 85.3706 168.12 85.3157 168.12 85.244C168.12 85.1722 172.258 85.1216 177.364 85.1216C182.469 85.1216 186.603 85.1553 186.603 85.244Z" fill="#EBEBEB"/>
<path d="M178.547 89.139H175.419V95.7265H178.547V89.139Z" fill="#F5F5F5"/>
<path d="M186.603 98.3259C186.603 98.3935 182.465 98.4525 177.364 98.4525C172.262 98.4525 168.12 98.3935 168.12 98.3259C168.12 98.2584 172.258 98.1993 177.364 98.1993C182.469 98.1993 186.603 98.2415 186.603 98.3259Z" fill="#EBEBEB"/>
<path d="M178.547 102.28H175.419V108.868H178.547V102.28Z" fill="#F5F5F5"/>
<path d="M178.547 115.594H175.419V122.182H178.547V115.594Z" fill="#F5F5F5"/>
<path d="M186.603 111.454C186.603 111.522 182.465 111.577 177.364 111.577C172.262 111.577 168.12 111.522 168.12 111.454C168.12 111.387 172.258 111.328 177.364 111.328C182.469 111.328 186.603 111.383 186.603 111.454Z" fill="#EBEBEB"/>
<path d="M159.903 49.3064H156.776V55.8938H159.903V49.3064Z" fill="white"/>
<path d="M167.959 58.4765C167.959 58.5482 163.821 58.6031 158.72 58.6031C153.618 58.6031 149.48 58.5482 149.48 58.4765C149.48 58.4048 153.614 58.3541 158.72 58.3541C163.826 58.3541 167.959 58.409 167.959 58.4765Z" fill="#E0E0E0"/>
<path d="M159.903 62.5825H156.776V69.1699H159.903V62.5825Z" fill="white"/>
<path d="M167.959 71.74C167.959 71.8075 163.821 71.8666 158.72 71.8666C153.618 71.8666 149.48 71.8075 149.48 71.74C149.48 71.6725 153.614 71.6134 158.72 71.6134C163.826 71.6134 167.959 71.6851 167.959 71.74Z" fill="#E0E0E0"/>
<path d="M159.903 75.8629H156.776V82.4503H159.903V75.8629Z" fill="white"/>
<path d="M167.959 85.033C167.959 85.1048 163.821 85.1596 158.72 85.1596C153.618 85.1596 149.48 85.1048 149.48 85.033C149.48 84.9613 153.614 84.9106 158.72 84.9106C163.826 84.9106 167.959 84.9655 167.959 85.033Z" fill="#E0E0E0"/>
<path d="M159.903 89.139H156.776V95.7265H159.903V89.139Z" fill="white"/>
<path d="M167.959 98.3259C167.959 98.3935 163.821 98.4525 158.72 98.4525C153.618 98.4525 149.48 98.3935 149.48 98.3259C149.48 98.2584 153.614 98.1993 158.72 98.1993C163.826 98.1993 167.959 98.2415 167.959 98.3259Z" fill="#E0E0E0"/>
<path d="M159.903 102.419H156.776V109.007H159.903V102.419Z" fill="white"/>
<path d="M167.959 111.589C167.959 111.661 163.821 111.716 158.72 111.716C153.618 111.716 149.48 111.661 149.48 111.589C149.48 111.518 153.614 111.463 158.72 111.463C163.826 111.463 167.959 111.522 167.959 111.589Z" fill="#E0E0E0"/>
<path d="M159.903 115.696H156.776V122.283H159.903V115.696Z" fill="white"/>
<path d="M153.289 55.6533H115.308V127.625H153.289V55.6533Z" fill="#E0E0E0"/>
<path d="M153.289 55.6533H135.482V127.625H153.289V55.6533Z" fill="#EBEBEB"/>
<path d="M126.686 62.4264H123.271V70.7103H126.686V62.4264Z" fill="#F5F5F5"/>
<path d="M126.686 94.8445H123.271V103.128H126.686V94.8445Z" fill="#F5F5F5"/>
<path d="M135.482 73.9597C135.482 74.0314 130.963 74.0905 125.393 74.0905C119.822 74.0905 115.308 74.0314 115.308 73.9597C115.308 73.8879 119.822 73.8289 125.393 73.8289C130.963 73.8289 135.482 73.8879 135.482 73.9597Z" fill="#F5F5F5"/>
<path d="M126.686 78.7578H123.271V87.0417H126.686V78.7578Z" fill="#F5F5F5"/>
<path d="M135.482 90.3079C135.482 90.3797 130.963 90.4345 125.393 90.4345C119.822 90.4345 115.308 90.3797 115.308 90.3079C115.308 90.2362 119.822 90.1771 125.393 90.1771C130.963 90.1771 135.482 90.2235 135.482 90.3079Z" fill="#F5F5F5"/>
<path d="M142.675 62.4264H139.26V70.7103H142.675V62.4264Z" fill="#E0E0E0"/>
<path d="M150.085 62.4264H146.67V70.7103H150.085V62.4264Z" fill="#E0E0E0"/>
<path d="M142.675 78.1417H139.26V86.4256H142.675V78.1417Z" fill="#E0E0E0"/>
<path d="M150.085 78.1417H146.67V86.4256H150.085V78.1417Z" fill="#E0E0E0"/>
<path d="M142.675 93.8612H139.26V102.145H142.675V93.8612Z" fill="#E0E0E0"/>
<path d="M150.085 93.8612H146.67V102.145H150.085V93.8612Z" fill="#E0E0E0"/>
<path d="M156.142 53.9105H112.45V55.7125H156.142V53.9105Z" fill="#E0E0E0"/>
<path d="M153.555 55.8855C153.555 55.9572 145.063 56.0163 134.594 56.0163C124.125 56.0163 115.633 55.9572 115.633 55.8855C115.633 55.8137 124.12 55.7546 134.594 55.7546C145.068 55.7546 153.555 55.8137 153.555 55.8855Z" fill="#EBEBEB"/>
<path d="M286.251 29.9957H255.396V127.621H286.251V29.9957Z" fill="#F5F5F5"/>
<path d="M286.251 29.9957H270.824V127.351H286.251V29.9957Z" fill="#EBEBEB"/>
<path d="M269.818 20.4121H258.921V29.9957H269.818V20.4121Z" fill="#F5F5F5"/>
<path d="M269.813 20.4121H267.218V29.9957H269.813V20.4121Z" fill="#EBEBEB"/>
<path d="M252.827 29.9958V29.4387H287.156V29.9958" fill="#E0E0E0"/>
<path d="M264.099 34.1777H261.487V39.6764H264.099V34.1777Z" fill="#FAFAFA"/>
<path d="M270.824 41.8328C270.824 41.8919 267.371 41.9383 263.11 41.9383C258.85 41.9383 255.396 41.8919 255.396 41.8328C255.396 41.7737 258.85 41.7273 263.11 41.7273C267.371 41.7273 270.824 41.7779 270.824 41.8328Z" fill="#E0E0E0"/>
<path d="M279.662 34.1777H277.05V39.6764H279.662V34.1777Z" fill="#E0E0E0"/>
<path d="M286.386 41.8328C286.386 41.8919 282.933 41.9383 278.673 41.9383C274.412 41.9383 270.959 41.8919 270.959 41.8328C270.959 41.7737 274.412 41.7273 278.673 41.7273C282.933 41.7273 286.386 41.7779 286.386 41.8328Z" fill="#E0E0E0"/>
<path d="M279.662 45.0948H277.05V50.5935H279.662V45.0948Z" fill="#E0E0E0"/>
<path d="M286.386 52.75C286.386 52.8091 282.933 52.8555 278.673 52.8555C274.412 52.8555 270.959 52.8091 270.959 52.75C270.959 52.691 274.412 52.6445 278.673 52.6445C282.933 52.6445 286.386 52.691 286.386 52.75Z" fill="#E0E0E0"/>
<path d="M279.662 56.3369H277.05V61.8356H279.662V56.3369Z" fill="#E0E0E0"/>
<path d="M286.386 63.992C286.386 64.0511 282.933 64.0975 278.673 64.0975C274.412 64.0975 270.959 64.0511 270.959 63.992C270.959 63.9329 274.412 63.8907 278.673 63.8907C282.933 63.8907 286.386 63.9372 286.386 63.992Z" fill="#E0E0E0"/>
<path d="M279.662 67.5833H277.05V73.0819H279.662V67.5833Z" fill="#E0E0E0"/>
<path d="M286.386 75.2383C286.386 75.2974 282.933 75.3438 278.673 75.3438C274.412 75.3438 270.959 75.2974 270.959 75.2383C270.959 75.1792 274.412 75.1328 278.673 75.1328C282.933 75.1328 286.386 75.1792 286.386 75.2383Z" fill="#E0E0E0"/>
<path d="M279.662 78.5088H277.05V84.0075H279.662V78.5088Z" fill="#E0E0E0"/>
<path d="M286.386 86.164C286.386 86.2188 282.933 86.2695 278.673 86.2695C274.412 86.2695 270.959 86.2188 270.959 86.164C270.959 86.1091 274.412 86.0585 278.673 86.0585C282.933 86.0585 286.386 86.088 286.386 86.164Z" fill="#E0E0E0"/>
<path d="M279.662 89.4724H277.05V94.9711H279.662V89.4724Z" fill="#E0E0E0"/>
<path d="M279.662 100.584H277.05V106.082H279.662V100.584Z" fill="#E0E0E0"/>
<path d="M286.386 97.1317C286.386 97.1866 282.933 97.2372 278.673 97.2372C274.412 97.2372 270.959 97.1866 270.959 97.1317C270.959 97.0769 274.412 97.0262 278.673 97.0262C282.933 97.0262 286.386 97.06 286.386 97.1317Z" fill="#E0E0E0"/>
<path d="M264.099 45.2595H261.487V50.7582H264.099V45.2595Z" fill="#FAFAFA"/>
<path d="M270.824 52.9146C270.824 52.9737 267.371 53.0201 263.11 53.0201C258.85 53.0201 255.396 52.9737 255.396 52.9146C255.396 52.8555 258.85 52.8091 263.11 52.8091C267.371 52.8091 270.824 52.8597 270.824 52.9146Z" fill="#E0E0E0"/>
<path d="M264.099 56.3412H261.487V61.8398H264.099V56.3412Z" fill="#FAFAFA"/>
<path d="M270.824 63.9963C270.824 64.0554 267.371 64.1018 263.11 64.1018C258.85 64.1018 255.396 64.0554 255.396 63.9963C255.396 63.9372 258.85 63.895 263.11 63.895C267.371 63.895 270.824 63.9414 270.824 63.9963Z" fill="#E0E0E0"/>
<path d="M264.099 67.423H261.487V72.9216H264.099V67.423Z" fill="#FAFAFA"/>
<path d="M270.824 75.0822C270.824 75.137 267.371 75.1835 263.11 75.1835C258.85 75.1835 255.396 75.137 255.396 75.0822C255.396 75.0273 258.85 74.9767 263.11 74.9767C267.371 74.9767 270.824 75.0231 270.824 75.0822Z" fill="#E0E0E0"/>
<path d="M264.099 78.5088H261.487V84.0075H264.099V78.5088Z" fill="#FAFAFA"/>
<path d="M270.824 86.164C270.824 86.2188 267.371 86.2695 263.11 86.2695C258.85 86.2695 255.396 86.2188 255.396 86.164C255.396 86.1091 258.85 86.0585 263.11 86.0585C267.371 86.0585 270.824 86.088 270.824 86.164Z" fill="#E0E0E0"/>
<path d="M264.099 89.5906H261.487V95.0892H264.099V89.5906Z" fill="#FAFAFA"/>
<path d="M270.824 97.2456C270.824 97.3047 267.371 97.3511 263.11 97.3511C258.85 97.3511 255.396 97.3047 255.396 97.2456C255.396 97.1866 258.85 97.1401 263.11 97.1401C267.371 97.1401 270.824 97.1866 270.824 97.2456Z" fill="#E0E0E0"/>
<path d="M264.099 100.672H261.487V106.171H264.099V100.672Z" fill="#FAFAFA"/>
<path d="M75.6362 39.6553H47.8374V127.621H75.6362V39.6553Z" fill="#F5F5F5"/>
<path d="M75.6404 39.6553H61.7389V127.381H75.6404V39.6553Z" fill="#EBEBEB"/>
<path d="M60.8301 31.0212H51.0116V39.6554H60.8301V31.0212Z" fill="#F5F5F5"/>
<path d="M60.8302 31.0212H58.4886V39.6554H60.8302V31.0212Z" fill="#EBEBEB"/>
<path d="M45.5212 39.6553V39.1531H76.452V39.6553" fill="#E0E0E0"/>
<path d="M55.6779 43.4238H53.3236V48.3781H55.6779V43.4238Z" fill="#FAFAFA"/>
<path d="M61.7389 50.3193C61.7389 50.3741 58.6281 50.4163 54.7903 50.4163C50.9525 50.4163 47.8374 50.3741 47.8374 50.3193C47.8374 50.2644 50.9482 50.2264 54.7903 50.2264C58.6323 50.2264 61.7389 50.2686 61.7389 50.3193Z" fill="#E0E0E0"/>
<path d="M69.7019 43.4238H67.3477V48.3781H69.7019V43.4238Z" fill="#E0E0E0"/>
<path d="M75.7588 50.3193C75.7588 50.3741 72.648 50.4163 68.8102 50.4163C64.9724 50.4163 61.8573 50.3741 61.8573 50.3193C61.8573 50.2644 64.9724 50.2264 68.8102 50.2264C72.648 50.2264 75.7588 50.2686 75.7588 50.3193Z" fill="#E0E0E0"/>
<path d="M69.7019 53.2563H67.3477V58.2106H69.7019V53.2563Z" fill="#E0E0E0"/>
<path d="M75.7588 60.1561C75.7588 60.2109 72.648 60.2531 68.8102 60.2531C64.9724 60.2531 61.8573 60.2109 61.8573 60.1561C61.8573 60.1012 64.9724 60.0632 68.8102 60.0632C72.648 60.0632 75.7588 60.1054 75.7588 60.1561Z" fill="#E0E0E0"/>
<path d="M69.7019 63.3928H67.3477V68.3471H69.7019V63.3928Z" fill="#E0E0E0"/>
<path d="M75.7588 70.2883C75.7588 70.3431 72.648 70.3853 68.8102 70.3853C64.9724 70.3853 61.8573 70.3431 61.8573 70.2883C61.8573 70.2334 64.9724 70.1954 68.8102 70.1954C72.648 70.1954 75.7588 70.2376 75.7588 70.2883Z" fill="#E0E0E0"/>
<path d="M69.7019 73.525H67.3477V78.4793H69.7019V73.525Z" fill="#E0E0E0"/>
<path d="M75.7588 80.4205C75.7588 80.4753 72.648 80.5175 68.8102 80.5175C64.9724 80.5175 61.8573 80.4753 61.8573 80.4205C61.8573 80.3656 64.9724 80.3276 68.8102 80.3276C72.648 80.3276 75.7588 80.3698 75.7588 80.4205Z" fill="#E0E0E0"/>
<path d="M69.7019 83.3661H67.3477V88.3204H69.7019V83.3661Z" fill="#E0E0E0"/>
<path d="M75.7588 90.2658C75.7588 90.3164 72.648 90.3586 68.8102 90.3586C64.9724 90.3586 61.8573 90.3164 61.8573 90.2658C61.8573 90.2151 64.9724 90.1687 68.8102 90.1687C72.648 90.1687 75.7588 90.2109 75.7588 90.2658Z" fill="#E0E0E0"/>
<path d="M69.7019 93.2493H67.3477V98.2035H69.7019V93.2493Z" fill="#E0E0E0"/>
<path d="M69.7019 103.259H67.3477V108.213H69.7019V103.259Z" fill="#E0E0E0"/>
<path d="M75.7588 100.149C75.7588 100.2 72.648 100.242 68.8102 100.242C64.9724 100.242 61.8573 100.2 61.8573 100.149C61.8573 100.098 64.9724 100.052 68.8102 100.052C72.648 100.052 75.7588 100.094 75.7588 100.149Z" fill="#E0E0E0"/>
<path d="M55.6779 53.4083H53.3236V58.3626H55.6779V53.4083Z" fill="#FAFAFA"/>
<path d="M61.7389 60.308C61.7389 60.3586 58.6281 60.4008 54.7903 60.4008C50.9525 60.4008 47.8374 60.3586 47.8374 60.308C47.8374 60.2574 50.9482 60.2109 54.7903 60.2109C58.6323 60.2109 61.7389 60.2531 61.7389 60.308Z" fill="#E0E0E0"/>
<path d="M55.6779 63.3928H53.3236V68.3471H55.6779V63.3928Z" fill="#FAFAFA"/>
<path d="M61.7389 70.2925C61.7389 70.3432 58.6281 70.3854 54.7903 70.3854C50.9525 70.3854 47.8374 70.3432 47.8374 70.2925C47.8374 70.2419 50.9482 70.1997 54.7903 70.1997C58.6323 70.1997 61.7389 70.2419 61.7389 70.2925Z" fill="#E0E0E0"/>
<path d="M55.6779 73.3816H53.3236V78.3359H55.6779V73.3816Z" fill="#FAFAFA"/>
<path d="M61.7389 80.277C61.7389 80.3319 58.6281 80.3741 54.7903 80.3741C50.9525 80.3741 47.8374 80.3319 47.8374 80.277C47.8374 80.2222 50.9482 80.1842 54.7903 80.1842C58.6323 80.1842 61.7389 80.2264 61.7389 80.277Z" fill="#E0E0E0"/>
<path d="M55.6779 83.3661H53.3236V88.3204H55.6779V83.3661Z" fill="#FAFAFA"/>
<path d="M61.7389 90.2658C61.7389 90.3164 58.6281 90.3586 54.7903 90.3586C50.9525 90.3586 47.8374 90.3164 47.8374 90.2658C47.8374 90.2151 50.9482 90.1687 54.7903 90.1687C58.6323 90.1687 61.7389 90.2109 61.7389 90.2658Z" fill="#E0E0E0"/>
<path d="M55.6779 93.3506H53.3236V98.3049H55.6779V93.3506Z" fill="#FAFAFA"/>
<path d="M61.7389 100.25C61.7389 100.301 58.6281 100.343 54.7903 100.343C50.9525 100.343 47.8374 100.301 47.8374 100.25C47.8374 100.2 50.9482 100.157 54.7903 100.157C58.6323 100.157 61.7389 100.2 61.7389 100.25Z" fill="#E0E0E0"/>
<path d="M55.6779 103.339H53.3236V108.294H55.6779V103.339Z" fill="#FAFAFA"/>
<path d="M257.738 127.739H212.918L212.724 57.0164H257.543L257.738 127.739Z" fill="#EBEBEB"/>
<path d="M257.543 57.0164H235.134V127.744H257.543V57.0164Z" fill="#E0E0E0"/>
<path d="M233.667 43.0905H217.838V57.0122H233.667V43.0905Z" fill="#EBEBEB"/>
<path d="M233.667 43.0905H229.897V57.0122H233.667V43.0905Z" fill="#E0E0E0"/>
<path d="M258.854 56.2019H208.988V57.0121H258.854V56.2019Z" fill="#E0E0E0"/>
<path d="M225.366 63.089H221.57V71.0774H225.366V63.089Z" fill="white"/>
<path d="M235.134 74.2087C235.134 74.2931 230.117 74.3606 223.929 74.3606C217.741 74.3606 212.724 74.2931 212.724 74.2087C212.724 74.1243 217.737 74.0568 223.929 74.0568C230.121 74.0568 235.134 74.1243 235.134 74.2087Z" fill="#E0E0E0"/>
<path d="M247.97 63.089H244.175V71.0774H247.97V63.089Z" fill="#F5F5F5"/>
<path d="M257.738 74.2087C257.738 74.2931 252.721 74.3606 246.533 74.3606C240.345 74.3606 235.328 74.2931 235.328 74.2087C235.328 74.1243 240.345 74.0568 246.533 74.0568C252.721 74.0568 257.738 74.1243 257.738 74.2087Z" fill="#EBEBEB"/>
<path d="M247.97 78.9435H244.175V86.9319H247.97V78.9435Z" fill="#F5F5F5"/>
<path d="M257.738 90.0674C257.738 90.1518 252.721 90.2194 246.533 90.2194C240.345 90.2194 235.328 90.1518 235.328 90.0674C235.328 89.983 240.345 89.9155 246.533 89.9155C252.721 89.9155 257.738 89.983 257.738 90.0674Z" fill="#EBEBEB"/>
<path d="M247.97 95.2833H244.175V103.272H247.97V95.2833Z" fill="#F5F5F5"/>
<path d="M257.738 106.403C257.738 106.487 252.721 106.555 246.533 106.555C240.345 106.555 235.328 106.487 235.328 106.403C235.328 106.319 240.345 106.251 246.533 106.251C252.721 106.251 257.738 106.319 257.738 106.403Z" fill="#EBEBEB"/>
<path d="M247.97 111.619H244.175V119.607H247.97V111.619Z" fill="#F5F5F5"/>
<path d="M257.738 122.739C257.738 122.823 252.721 122.891 246.533 122.891C240.345 122.891 235.328 122.823 235.328 122.739C235.328 122.654 240.345 122.587 246.533 122.587C252.721 122.587 257.738 122.654 257.738 122.739Z" fill="#EBEBEB"/>
<path d="M225.366 79.1882H221.57V87.1767H225.366V79.1882Z" fill="white"/>
<path d="M235.134 90.3079C235.134 90.3923 230.117 90.4598 223.929 90.4598C217.741 90.4598 212.724 90.3923 212.724 90.3079C212.724 90.2235 217.737 90.156 223.929 90.156C230.121 90.156 235.134 90.2235 235.134 90.3079Z" fill="#E0E0E0"/>
<path d="M225.366 95.2876H221.57V103.276H225.366V95.2876Z" fill="white"/>
<path d="M235.134 106.407C235.134 106.492 230.117 106.563 223.929 106.563C217.741 106.563 212.724 106.492 212.724 106.407C212.724 106.323 217.737 106.255 223.929 106.255C230.121 106.255 235.134 106.344 235.134 106.407Z" fill="#E0E0E0"/>
<path d="M225.366 111.387H221.57V119.375H225.366V111.387Z" fill="white"/>
<path d="M235.134 122.511C235.134 122.595 230.117 122.663 223.929 122.663C217.741 122.663 212.724 122.595 212.724 122.511C212.724 122.426 217.737 122.355 223.929 122.355C230.121 122.355 235.134 122.426 235.134 122.511Z" fill="#E0E0E0"/>
<path d="M273.613 127.621C273.613 127.684 219.127 127.731 151.936 127.731C84.7447 127.731 30.2461 127.684 30.2461 127.621C30.2461 127.558 84.7194 127.511 151.936 127.511C219.153 127.511 273.613 127.562 273.613 127.621Z" fill="#E0E0E0"/>
<path d="M52.8333 57.7254C53.032 56.2906 51.0032 55.109 49.452 54.9866C48.725 54.9275 47.9685 55.0372 47.2795 54.7967C45.7875 54.2776 45.1915 52.3491 43.7333 51.7372C42.6429 51.2772 41.3875 51.6865 40.352 52.2183C39.3165 52.75 38.2387 53.4167 37.0721 53.4843C36.045 53.5476 34.9292 53.1678 34.0331 53.67C33.3611 54.0413 33.0103 54.8136 32.3932 55.2651C31.7518 55.6619 31.0088 55.8642 30.2545 55.8475C29.503 55.827 28.7544 55.9487 28.0482 56.2062C27.3677 56.5185 26.7802 57.2359 26.945 57.9744L52.8333 57.7254Z" fill="#F5F5F5"/>
<path d="M111.288 33.9879C111.483 32.5488 109.454 31.3672 107.907 31.2449C107.18 31.1858 106.423 31.2955 105.734 31.0592C104.238 30.5359 103.621 28.6116 102.184 27.9955C101.093 27.5397 99.8381 27.9448 98.7814 28.4765C97.7248 29.0083 96.6681 29.675 95.5015 29.7425C94.4744 29.8101 93.3586 29.4303 92.4625 29.9282C91.7947 30.3038 91.4439 31.0718 90.8268 31.5276C90.1838 31.9236 89.4393 32.1245 88.6839 32.1057C87.9327 32.0898 87.1849 32.2114 86.4776 32.4644C85.7971 32.7767 85.235 33.4983 85.3744 34.2326L111.288 33.9879Z" fill="#F5F5F5"/>
<path d="M221.938 33.3379C222.137 31.9031 220.104 30.7173 218.557 30.5949C217.83 30.5358 217.073 30.6498 216.384 30.4092C214.888 29.8902 214.292 27.9616 212.834 27.3497C211.743 26.8898 210.488 27.2991 209.431 27.8308C208.375 28.3625 207.318 29.0293 206.151 29.0968C205.124 29.1601 204.009 28.7803 203.112 29.2825C202.445 29.6539 202.094 30.4261 201.477 30.8777C200.834 31.2755 200.089 31.4765 199.334 31.4558C198.582 31.4392 197.834 31.5623 197.128 31.8187C196.447 32.131 195.885 32.8484 196.024 33.5869L221.938 33.3379Z" fill="#F5F5F5"/>
<path d="M303.897 195.297C303.897 195.361 238.042 195.407 156.809 195.407C75.577 195.407 9.72131 195.361 9.72131 195.297C9.72131 195.234 75.5601 195.188 156.809 195.188C238.059 195.188 303.897 195.238 303.897 195.297Z" fill="#263238"/>
<path d="M76.1984 152.764H26.7252V184.874H76.1984V152.764Z" fill="#5E53B8"/>
<path d="M76.2068 184.882H26.7125V152.764H76.2068V184.882ZM26.7548 184.861H76.2068V152.764H26.7548V184.861Z" fill="#263238"/>
<g opacity="0.3">
<path d="M76.1984 152.764H26.7252V184.874H76.1984V152.764Z" fill="black"/>
</g>
<path d="M285.613 71.9299H24.781C18.9059 71.9299 14.1425 75.6731 14.1425 80.2898V176.607C14.1425 181.219 18.9059 184.963 24.781 184.963H36.1211C34.938 181.999 34.4999 178.791 34.845 175.62C35.1902 172.448 36.3081 169.409 38.1011 166.768C39.8941 164.128 42.3076 161.966 45.1307 160.471C47.9537 158.977 51.1005 158.195 54.2958 158.195C57.4911 158.195 60.6378 158.977 63.4609 160.471C66.284 161.966 68.6975 164.128 70.4905 166.768C72.2835 169.409 73.4014 172.448 73.7466 175.62C74.0917 178.791 73.6536 181.999 72.4705 184.963H285.613C291.488 184.963 296.251 181.219 296.251 176.607V80.2898C296.251 75.6731 291.488 71.9299 285.613 71.9299Z" fill="#5E53B8"/>
<path d="M239.576 79.6313H135.152V142.273H239.576V79.6313Z" fill="#455A64"/>
<path d="M14.3242 79.758C14.3242 79.699 77.4791 79.6483 155.372 79.6483C233.266 79.6483 296.433 79.699 296.433 79.758C296.433 79.8171 233.287 79.8678 155.372 79.8678C77.458 79.8678 14.3242 79.8002 14.3242 79.758Z" fill="#263238"/>
<path d="M228.198 67.8618H159.358C157.64 67.8618 156.247 69.2514 156.247 70.9656C156.247 72.6798 157.64 74.0694 159.358 74.0694H228.198C229.916 74.0694 231.309 72.6798 231.309 70.9656C231.309 69.2514 229.916 67.8618 228.198 67.8618Z" fill="#5E53B8"/>
<path d="M60.1751 67.8618H29.853C28.135 67.8618 26.7422 69.2514 26.7422 70.9656C26.7422 72.6798 28.135 74.0694 29.853 74.0694H60.1751C61.8932 74.0694 63.2859 72.6798 63.2859 70.9656C63.2859 69.2514 61.8932 67.8618 60.1751 67.8618Z" fill="#5E53B8"/>
<g opacity="0.3">
<path d="M232.374 151.734H189.355V184.963H232.374V151.734Z" fill="black"/>
</g>
<path d="M297.088 174.164H289.391C288.742 174.164 288.12 173.906 287.661 173.448C287.202 172.99 286.944 172.368 286.944 171.72C286.944 171.072 287.202 170.45 287.661 169.991C288.12 169.532 288.742 169.274 289.391 169.273H297.088C297.738 169.274 298.36 169.532 298.819 169.991C299.278 170.45 299.535 171.072 299.535 171.72C299.535 172.368 299.278 172.99 298.819 173.448C298.36 173.906 297.737 174.164 297.088 174.164Z" fill="#455A64"/>
<path d="M296.251 167.686H292.371C290.702 167.685 289.101 167.022 287.921 165.843C286.741 164.664 286.078 163.065 286.078 161.398C286.078 159.731 286.741 158.133 287.921 156.953C289.101 155.774 290.702 155.111 292.371 155.11H296.251V167.686Z" fill="#EBEBEB"/>
<path d="M296.251 167.686C296.246 167.603 296.246 167.52 296.251 167.437C296.251 167.26 296.251 167.015 296.251 166.736C296.251 166.112 296.251 165.234 296.226 164.133C296.226 161.9 296.196 158.773 296.175 155.11L296.277 155.216H292.671C291.396 155.171 290.137 155.514 289.062 156.199C287.936 156.919 287.075 157.984 286.606 159.233C286.377 159.82 286.247 160.44 286.221 161.069C286.184 161.673 286.239 162.279 286.386 162.867C286.653 163.959 287.209 164.959 287.997 165.762C288.69 166.454 289.533 166.978 290.461 167.293C291.231 167.538 292.037 167.65 292.845 167.623H294.683L295.854 167.644H296.167H296.277C296.277 167.644 296.247 167.644 296.184 167.644H295.884L294.721 167.665L292.857 167.69C292.03 167.733 291.202 167.63 290.41 167.386C289.457 167.07 288.589 166.539 287.874 165.833C287.051 165.013 286.467 163.985 286.183 162.858C286.032 162.253 285.973 161.628 286.01 161.006C286.024 160.684 286.06 160.364 286.12 160.048C286.192 159.727 286.285 159.411 286.399 159.102C286.882 157.808 287.771 156.705 288.935 155.959C290.048 155.253 291.349 154.9 292.667 154.946H296.378V155.047C296.378 158.74 296.344 161.888 296.332 164.137C296.332 165.226 296.332 166.099 296.302 166.72C296.302 167.002 296.302 167.226 296.302 167.399C296.295 167.496 296.278 167.592 296.251 167.686Z" fill="#263238"/>
<path d="M31.7676 170.838H24.6288C23.9058 170.838 23.2123 170.551 22.7011 170.041C22.1898 169.531 21.9026 168.838 21.9026 168.116C21.9026 167.394 22.1898 166.702 22.7011 166.192C23.2123 165.681 23.9058 165.394 24.6288 165.394H31.7676C32.4907 165.394 33.1841 165.681 33.6953 166.192C34.2066 166.702 34.4938 167.394 34.4938 168.116C34.4938 168.838 34.2066 169.531 33.6953 170.041C33.1841 170.551 32.4907 170.838 31.7676 170.838Z" fill="#F5F5F5"/>
<path d="M31.7677 170.838C32.1736 170.805 32.5702 170.7 32.9384 170.526C33.433 170.279 33.8387 169.885 34.0999 169.398C34.361 168.912 34.4647 168.356 34.3966 167.808C34.3266 167.228 34.0651 166.687 33.6534 166.272C33.2417 165.856 32.7032 165.589 32.1227 165.513C31.7 165.47 31.2266 165.513 30.7617 165.513H24.65C24.1574 165.513 23.6748 165.651 23.2575 165.912C22.8402 166.174 22.5051 166.547 22.2907 166.99C22.0763 167.433 21.9911 167.927 22.0451 168.416C22.0991 168.904 22.2899 169.368 22.5958 169.754C22.8711 170.1 23.2284 170.373 23.6356 170.547C24.0263 170.702 24.4453 170.774 24.8655 170.758H27.186L30.5673 170.792H31.4803C31.5877 170.79 31.6952 170.797 31.8015 170.813C31.6955 170.832 31.5879 170.841 31.4803 170.838H30.5673L27.186 170.876H24.8655C24.4197 170.9 23.9741 170.826 23.5595 170.661C23.2132 170.517 22.899 170.306 22.6352 170.04C22.3714 169.774 22.1632 169.458 22.0228 169.111C21.8823 168.764 21.8125 168.392 21.8172 168.018C21.822 167.644 21.9013 167.274 22.0506 166.931C22.2729 166.428 22.6372 166 23.0987 165.7C23.5603 165.401 24.0993 165.242 24.65 165.243H30.7617C31.2393 165.243 31.6789 165.221 32.1481 165.272C32.5933 165.329 33.0182 165.493 33.3865 165.749C33.7146 165.978 33.9901 166.274 34.1949 166.617C34.3996 166.961 34.5289 167.344 34.5742 167.741C34.6413 168.399 34.4769 169.06 34.1092 169.61C33.8829 169.942 33.586 170.22 33.2397 170.424C32.8934 170.629 32.5062 170.754 32.1058 170.792C32.0044 170.792 31.9241 170.792 31.8691 170.792C31.8142 170.792 31.7677 170.842 31.7677 170.838Z" fill="#263238"/>
<path d="M306.361 89.2488H305.093C305.093 83.4674 301.691 78.7621 297.485 78.7621H283.537V77.4961H297.485C302.388 77.4961 306.361 82.7711 306.361 89.2488Z" fill="#5E53B8"/>
<path d="M306.159 85.8728H302.989C302.193 85.8728 301.547 86.5171 301.547 87.3118V116.084C301.547 116.879 302.193 117.523 302.989 117.523H306.159C306.955 117.523 307.6 116.879 307.6 116.084V87.3118C307.6 86.5171 306.955 85.8728 306.159 85.8728Z" fill="#5E53B8"/>
<path d="M306.159 117.523C306.404 117.507 306.642 117.437 306.856 117.316C307.113 117.167 307.316 116.941 307.435 116.67C307.565 116.288 307.607 115.881 307.558 115.48C307.558 113.623 307.558 110.956 307.524 107.665C307.49 104.373 307.524 100.436 307.498 96.0767C307.498 93.8992 307.498 91.6077 307.498 89.2361V87.4426C307.521 87.1557 307.451 86.8692 307.299 86.6248C307.147 86.3803 306.921 86.1908 306.653 86.0838C306.381 85.9918 306.094 85.9573 305.808 85.9825H302.997C302.708 85.9874 302.429 86.0854 302.2 86.2618C301.972 86.4382 301.806 86.6837 301.729 86.9615C301.679 87.2569 301.663 87.5572 301.683 87.8562V88.7803C301.683 90.0041 301.683 91.2111 301.683 92.4011C301.683 94.7727 301.683 97.0431 301.683 99.2417C301.683 103.605 301.683 107.53 301.657 110.834C301.657 112.48 301.657 113.974 301.657 115.282C301.657 115.607 301.657 115.932 301.657 116.227C301.683 116.498 301.789 116.755 301.962 116.966C302.134 117.177 302.365 117.333 302.625 117.413C302.857 117.471 303.096 117.494 303.335 117.481L305.449 117.502H303.335C303.087 117.521 302.837 117.501 302.596 117.443C302.316 117.356 302.068 117.19 301.881 116.966C301.694 116.741 301.577 116.467 301.543 116.177C301.543 115.864 301.543 115.556 301.543 115.223C301.543 113.915 301.543 112.421 301.543 110.775C301.543 107.471 301.543 103.546 301.543 99.1826C301.543 97.0051 301.543 94.7137 301.543 92.342V87.392C301.537 87.227 301.555 87.0619 301.598 86.9024C301.689 86.5758 301.885 86.2877 302.155 86.082C302.425 85.8764 302.755 85.7644 303.094 85.763H305.905C306.227 85.7363 306.551 85.7765 306.856 85.8812C307.158 86.01 307.413 86.2294 307.585 86.5092C307.757 86.7889 307.837 87.1151 307.815 87.4426C307.815 88.0418 307.815 88.6411 307.815 89.2361C307.815 91.6077 307.815 93.8781 307.815 96.0767C307.815 100.436 307.815 104.365 307.79 107.665C307.765 110.965 307.765 113.623 307.756 115.48C307.756 115.708 307.756 115.928 307.756 116.134C307.746 116.385 307.671 116.63 307.538 116.843C307.406 117.057 307.22 117.233 307 117.354C306.837 117.445 306.657 117.502 306.471 117.523C306.368 117.538 306.262 117.538 306.159 117.523Z" fill="#263238"/>
<path d="M77.72 144.109L54.6551 143.518L35.2547 120.899H19.2737V79.7411H77.72V144.109Z" fill="#455A64"/>
<path d="M77.72 144.109C77.72 144.109 77.72 144.003 77.72 143.801C77.72 143.598 77.72 143.294 77.72 142.902C77.72 142.108 77.72 140.935 77.72 139.412C77.72 136.361 77.72 131.9 77.6947 126.245C77.6947 114.944 77.6651 98.8661 77.644 79.7411L77.7412 79.8381H25.7067H19.2737L19.3836 79.7284C19.3836 94.3507 19.3836 108.247 19.3836 120.886L19.2821 120.785H35.2632H35.3054L35.335 120.819L54.7058 143.48L54.6593 143.455L71.6463 143.927L76.1562 144.058L77.3227 144.096H77.72H77.3481L76.1942 144.075L71.697 143.974L54.6678 143.573H54.6382L54.6171 143.552L35.1871 120.958L35.2547 120.992H19.2737H19.1722V120.89C19.1722 108.251 19.1722 94.355 19.1722 79.7326V79.6229H25.6855H77.72H77.8172V79.758C77.8172 98.9083 77.7834 115.008 77.7708 126.326C77.7708 131.972 77.7496 136.424 77.7412 139.471C77.7412 140.986 77.7412 142.151 77.7412 142.94C77.7412 143.328 77.7412 143.623 77.7412 143.826C77.7412 144.029 77.72 144.109 77.72 144.109Z" fill="#263238"/>
<path d="M227.828 178.388C227.98 169.003 220.484 161.273 211.085 161.12C201.686 160.968 193.943 168.452 193.79 177.836C193.638 187.22 201.134 194.951 210.533 195.104C219.932 195.256 227.675 187.772 227.828 178.388Z" fill="#263238"/>
<path d="M193.784 177.818C193.784 177.818 193.784 177.848 193.784 177.865C193.713 180.119 194.093 182.366 194.9 184.473C195.708 186.58 196.928 188.505 198.489 190.136C200.049 191.768 201.92 193.072 203.991 193.975C206.062 194.877 208.292 195.358 210.551 195.39C212.811 195.423 215.054 195.006 217.15 194.164C219.246 193.322 221.154 192.071 222.761 190.485C224.368 188.9 225.643 187.01 226.511 184.927C227.379 182.845 227.823 180.61 227.817 178.354V178.308L193.784 177.818Z" fill="#263238"/>
<path d="M198.852 177.936C198.819 180.295 199.487 182.611 200.772 184.591C202.057 186.571 203.901 188.126 206.071 189.06C208.241 189.993 210.64 190.264 212.963 189.837C215.287 189.409 217.432 188.304 219.127 186.66C220.821 185.015 221.99 182.906 222.484 180.599C222.978 178.292 222.776 175.891 221.904 173.698C221.031 171.506 219.527 169.621 217.582 168.282C215.636 166.943 213.337 166.21 210.974 166.175C207.805 166.13 204.747 167.344 202.474 169.549C200.2 171.755 198.898 174.772 198.852 177.936Z" fill="#FAFAFA"/>
<path d="M210.974 166.175C209.405 166.152 207.846 166.438 206.387 167.017C204.928 167.596 203.598 168.456 202.472 169.548C201.347 170.64 200.448 171.943 199.826 173.383C199.205 174.822 198.874 176.369 198.852 177.936L222.75 178.278C222.795 175.114 221.58 172.062 219.372 169.792C217.163 167.523 214.143 166.222 210.974 166.175Z" fill="#E0E0E0"/>
<path d="M203.523 178.004C203.504 179.44 203.913 180.85 204.697 182.055C205.481 183.26 206.605 184.205 207.927 184.772C209.249 185.34 210.71 185.503 212.124 185.241C213.539 184.98 214.845 184.306 215.876 183.304C216.907 182.302 217.618 181.017 217.918 179.612C218.219 178.207 218.095 176.745 217.563 175.41C217.031 174.075 216.115 172.928 214.93 172.112C213.746 171.297 212.345 170.851 210.907 170.83C209.95 170.816 208.999 170.991 208.11 171.344C207.221 171.697 206.41 172.222 205.724 172.888C205.039 173.554 204.491 174.349 204.113 175.227C203.735 176.105 203.535 177.048 203.523 178.004Z" fill="#263238"/>
<path d="M71.2435 178.545C71.3895 169.161 63.8883 161.435 54.4891 161.289C45.09 161.144 37.352 168.633 37.206 178.017C37.06 187.402 44.5612 195.127 53.9604 195.273C63.3596 195.419 71.0975 187.93 71.2435 178.545Z" fill="#263238"/>
<path d="M37.1947 177.991V178.033C37.1291 182.54 38.8595 186.889 42.0051 190.122C45.1507 193.356 49.454 195.209 53.9682 195.274C58.4824 195.34 62.8377 193.612 66.0761 190.471C69.3145 187.331 71.1707 183.034 71.2362 178.527C71.2362 178.527 71.2362 178.498 71.2362 178.481L37.1947 177.991Z" fill="#263238"/>
<path d="M42.2667 178.109C42.2327 180.47 42.9004 182.787 44.1855 184.768C45.4706 186.749 47.3152 188.306 49.4862 189.24C51.6572 190.175 54.057 190.445 56.3821 190.018C58.7072 189.591 60.8532 188.485 62.5487 186.84C64.2441 185.195 65.413 183.085 65.9073 180.777C66.4016 178.468 66.1993 176.066 65.3259 173.872C64.4524 171.679 62.9472 169.793 61.0004 168.454C59.0536 167.115 56.7527 166.382 54.3888 166.348C51.2196 166.304 48.1626 167.518 45.8896 169.724C43.6166 171.929 42.3135 174.945 42.2667 178.109Z" fill="#FAFAFA"/>
<path d="M54.3973 166.348C51.2266 166.302 48.1674 167.515 45.8926 169.721C43.6177 171.926 42.3135 174.944 42.2667 178.109L66.1685 178.451C66.2126 175.288 64.9977 172.237 62.7907 169.968C60.5837 167.699 57.5649 166.397 54.3973 166.348Z" fill="#E0E0E0"/>
<path d="M46.9456 178.177C46.9265 179.615 47.3348 181.026 48.1188 182.232C48.9029 183.438 50.0274 184.385 51.3504 184.953C52.6734 185.521 54.1353 185.684 55.5514 185.423C56.9675 185.162 58.2742 184.487 59.3063 183.484C60.3384 182.481 61.0496 181.196 61.3499 179.789C61.6502 178.383 61.5262 176.92 60.9936 175.584C60.4609 174.248 59.5435 173.1 58.3574 172.284C57.1712 171.469 55.7695 171.023 54.3296 171.003C52.3977 170.977 50.5345 171.718 49.1499 173.063C47.7652 174.409 46.9723 176.248 46.9456 178.177Z" fill="#263238"/>
<path d="M19.2736 183.756C19.2144 183.756 19.1637 160.47 19.1637 131.753C19.1637 103.036 19.2144 79.7581 19.2736 79.7581C19.3328 79.7581 19.3835 103.04 19.3835 131.77C19.3835 160.499 19.3328 183.756 19.2736 183.756Z" fill="#263238"/>
<path d="M23.2002 72.3139C23.2002 72.2549 70.4036 72.2042 128.617 72.2042C186.831 72.2042 234.043 72.2549 234.043 72.3139C234.043 72.373 186.852 72.4237 128.617 72.4237C70.3825 72.4237 23.2002 72.3772 23.2002 72.3139Z" fill="#263238"/>
<path d="M135.152 149.658C135.093 149.658 135.042 134.217 135.042 115.172C135.042 96.1274 135.093 80.6864 135.152 80.6864C135.211 80.6864 135.262 96.1232 135.262 115.172C135.262 134.221 135.215 149.658 135.152 149.658Z" fill="#263238"/>
<path d="M188.336 140.8C188.273 140.8 188.226 127.343 188.226 110.745C188.226 94.1482 188.273 80.6864 188.336 80.6864C188.399 80.6864 188.446 94.1398 188.446 110.745C188.446 127.351 188.395 140.8 188.336 140.8Z" fill="#263238"/>
<path d="M152.857 133.909C152.807 133.875 158.183 126.03 164.857 116.388C171.531 106.745 176.987 98.9548 177.038 98.9885C177.089 99.0223 171.717 106.867 165.039 116.514C158.361 126.161 152.908 133.943 152.857 133.909Z" fill="#263238"/>
<path d="M145.342 137.471C145.296 137.437 151.057 129.309 158.208 119.325C165.36 109.34 171.205 101.28 171.256 101.28C171.307 101.28 165.546 109.442 158.39 119.426C151.234 129.411 145.397 137.509 145.342 137.471Z" fill="#263238"/>
<path d="M194.49 124.038C194.444 124 200.555 116.94 208.142 108.273C215.729 99.6046 221.917 92.6037 221.963 92.6585C222.01 92.7134 215.898 99.7566 208.307 108.429C200.716 117.101 194.537 124.068 194.49 124.038Z" fill="#263238"/>
<path d="M200.141 124.992C200.095 124.95 206.097 118.422 213.544 110.412C220.991 102.402 227.069 95.9416 227.112 95.9838C227.154 96.026 221.156 102.546 213.709 110.564C206.261 118.582 200.183 125.034 200.141 124.992Z" fill="#263238"/>
<path d="M135.152 149.612V184.87H192.313C191.245 182.198 190.781 179.323 190.954 176.451C191.128 173.579 191.935 170.78 193.318 168.256C194.701 165.731 196.625 163.543 198.953 161.848C201.282 160.152 203.957 158.991 206.787 158.448C209.617 157.905 212.532 157.993 215.324 158.705C218.116 159.418 220.716 160.738 222.938 162.57C225.16 164.403 226.948 166.703 228.176 169.306C229.404 171.909 230.041 174.751 230.041 177.628C230.041 180.19 229.195 182.692 228.312 184.929L236.389 184.963V149.612H135.152Z" fill="#5E53B8"/>
<path d="M184.638 173.134H177.52C176.796 173.134 176.101 172.847 175.589 172.335C175.077 171.824 174.79 171.131 174.79 170.408C174.791 169.686 175.079 168.993 175.591 168.483C176.103 167.973 176.797 167.686 177.52 167.686H184.655C185.378 167.686 186.071 167.973 186.582 168.483C187.094 168.994 187.381 169.686 187.381 170.408C187.381 170.767 187.31 171.122 187.172 171.454C187.034 171.786 186.831 172.087 186.577 172.34C186.322 172.593 186.019 172.794 185.686 172.93C185.354 173.066 184.997 173.136 184.638 173.134Z" fill="white"/>
<path d="M184.638 173.134C185.045 173.098 185.443 172.991 185.813 172.817C186.236 172.603 186.596 172.281 186.857 171.885C187.202 171.359 187.352 170.729 187.279 170.104C187.208 169.521 186.944 168.978 186.528 168.562C186.112 168.145 185.569 167.88 184.984 167.808C184.562 167.762 184.093 167.808 183.628 167.808H177.516C177.023 167.808 176.54 167.946 176.122 168.207C175.704 168.468 175.368 168.841 175.153 169.284C174.938 169.727 174.853 170.221 174.907 170.71C174.96 171.2 175.151 171.664 175.457 172.049C175.733 172.397 176.09 172.671 176.497 172.847C176.888 173.002 177.307 173.073 177.727 173.054H180.052L183.433 173.092H184.35C184.457 173.089 184.563 173.098 184.667 173.117C184.562 173.133 184.456 173.14 184.35 173.138L183.433 173.159L180.052 173.193H177.727C177.282 173.215 176.837 173.143 176.421 172.982C175.835 172.719 175.356 172.265 175.062 171.694C174.769 171.123 174.679 170.469 174.806 169.841C174.934 169.212 175.272 168.645 175.766 168.233C176.259 167.822 176.878 167.59 177.52 167.576H183.632C184.105 167.576 184.549 167.555 185.014 167.606C185.638 167.686 186.216 167.974 186.656 168.423C187.096 168.871 187.372 169.455 187.44 170.079C187.512 170.736 187.347 171.397 186.975 171.944C186.697 172.353 186.313 172.678 185.864 172.885C185.584 173.017 185.284 173.098 184.976 173.126C184.896 173.132 184.815 173.132 184.735 173.126L184.638 173.134Z" fill="#263238"/>
<path d="M106.432 79.9183H77.7833V184.87H106.432V79.9183Z" fill="#5E53B8"/>
<path d="M106.432 184.87C106.432 184.87 106.432 184.692 106.432 184.346C106.432 184 106.432 183.502 106.432 182.81C106.432 181.46 106.432 179.468 106.432 176.902C106.432 171.75 106.432 164.242 106.402 154.887C106.402 136.158 106.373 109.935 106.351 79.931L106.457 80.0365H77.7707L77.8806 79.9268C77.8806 122.756 77.851 160.866 77.8383 184.878L77.7707 184.811L98.904 184.836H104.513H105.958H106.453H105.975H104.538H98.9421L77.8087 184.87H77.7411V184.802C77.7411 160.79 77.7158 122.68 77.6989 79.8508V79.7411H106.567V79.8466C106.567 109.88 106.529 136.133 106.516 154.878C106.516 164.234 106.516 171.72 106.487 176.869C106.487 179.434 106.487 181.422 106.487 182.777C106.487 183.448 106.487 183.954 106.487 184.3C106.487 184.646 106.432 184.87 106.432 184.87Z" fill="#263238"/>
<path d="M97.0316 83.7249H87.5216C84.6107 83.7249 82.251 86.0809 82.251 88.9872V144.349C82.251 147.256 84.6107 149.612 87.5216 149.612H97.0316C99.9425 149.612 102.302 147.256 102.302 144.349V88.9872C102.302 86.0809 99.9425 83.7249 97.0316 83.7249Z" fill="#455A64"/>
<path d="M97.0316 149.612C97.0316 149.612 97.1711 149.612 97.4543 149.578C97.8624 149.539 98.2649 149.456 98.6547 149.329C99.2907 149.121 99.8805 148.793 100.392 148.362C101.085 147.774 101.615 147.017 101.93 146.164C102.125 145.66 102.232 145.126 102.247 144.586C102.247 144.02 102.247 143.417 102.247 142.788C102.247 141.522 102.247 140.176 102.247 138.716C102.247 135.787 102.247 132.457 102.247 128.777C102.247 121.409 102.247 112.644 102.222 102.909C102.222 100.473 102.222 97.9799 102.222 95.431V89.6116C102.255 88.9623 102.195 88.3115 102.044 87.6789C101.793 86.7196 101.269 85.8534 100.535 85.1847C99.802 84.5161 98.8905 84.0735 97.9108 83.9104C97.239 83.8318 96.562 83.8064 95.8862 83.8345H87.5301C86.8472 83.8339 86.1709 83.9685 85.5404 84.2306C84.91 84.4926 84.3378 84.8769 83.8571 85.3612C83.3764 85.8455 82.9966 86.4202 82.7398 87.052C82.483 87.6838 82.3542 88.3601 82.3609 89.0419V97.1275C82.3609 102.424 82.3609 107.534 82.3609 112.404C82.3609 122.139 82.3609 130.909 82.3397 138.272C82.3397 140.112 82.3397 141.868 82.3397 143.526C82.3397 143.948 82.3397 144.349 82.3397 144.746C82.3709 145.136 82.4418 145.522 82.5511 145.898C82.7785 146.613 83.156 147.272 83.6585 147.831C84.5684 148.841 85.8381 149.456 87.1962 149.544C88.4431 149.582 89.5969 149.544 90.624 149.574H95.3748L90.624 149.595C89.5927 149.595 88.4515 149.616 87.192 149.595C85.8019 149.511 84.5001 148.887 83.5655 147.856C82.7688 146.987 82.2893 145.875 82.2045 144.7C82.1749 144.278 82.1834 143.885 82.1834 143.472C82.1834 141.813 82.1834 140.058 82.1834 138.218C82.1834 130.854 82.1834 122.085 82.158 112.349C82.158 107.479 82.158 102.369 82.158 97.0726C82.158 94.4224 82.158 91.7273 82.158 88.9871C82.1526 87.5679 82.7067 86.2036 83.7007 85.1891C84.2012 84.6771 84.7995 84.2707 85.4602 83.9938C86.1209 83.7169 86.8305 83.5752 87.547 83.577H95.8609C96.5494 83.5492 97.2391 83.576 97.9235 83.6572C98.944 83.8275 99.8933 84.2891 100.657 84.9863C101.42 85.6835 101.965 86.5864 102.226 87.586C102.383 88.2363 102.444 88.9058 102.408 89.5737V95.393C102.408 97.9419 102.408 100.435 102.408 102.871C102.408 112.606 102.408 121.371 102.383 128.739C102.383 132.419 102.383 135.749 102.383 138.678C102.383 140.138 102.383 141.501 102.383 142.75C102.383 143.379 102.383 143.978 102.383 144.552C102.363 145.101 102.252 145.643 102.053 146.155C101.774 146.903 101.329 147.578 100.75 148.129C100.172 148.679 99.4754 149.091 98.7139 149.333C98.3181 149.455 97.9097 149.532 97.4966 149.561L97.0316 149.612Z" fill="#263238"/>
<path d="M135.224 184.87C135.224 184.87 135.224 184.693 135.224 184.346C135.224 184 135.224 183.502 135.224 182.81C135.224 181.46 135.224 179.468 135.224 176.902C135.224 171.75 135.224 164.242 135.194 154.887C135.194 136.158 135.165 109.935 135.148 79.931L135.253 80.0365H106.575L106.685 79.9268C106.685 122.756 106.651 160.866 106.643 184.878L106.575 184.811L127.671 184.849H133.284H134.729H135.224H134.742H133.309H127.713L106.58 184.882H106.512V184.815C106.512 160.803 106.487 122.692 106.47 79.8635V79.7538H135.338V79.8593C135.317 109.893 135.3 136.146 135.287 154.891C135.287 164.247 135.262 171.733 135.258 176.881C135.258 179.447 135.258 181.435 135.258 182.789C135.258 183.46 135.258 183.967 135.258 184.313C135.258 184.659 135.224 184.87 135.224 184.87Z" fill="#263238"/>
<path d="M125.938 83.7249H116.2C113.352 83.7249 111.043 86.0299 111.043 88.8733V144.463C111.043 147.307 113.352 149.612 116.2 149.612H125.938C128.786 149.612 131.094 147.307 131.094 144.463V88.8733C131.094 86.0299 128.786 83.7249 125.938 83.7249Z" fill="#455A64"/>
<path d="M125.955 149.612C126.505 149.59 127.05 149.493 127.574 149.325C128.21 149.114 128.796 148.777 129.298 148.333C129.986 147.734 130.503 146.964 130.794 146.101C130.963 145.587 131.053 145.05 131.061 144.51C131.061 143.94 131.061 143.341 131.061 142.712C131.061 141.446 131.061 140.096 131.061 138.631C131.061 135.702 131.061 132.369 131.061 128.68C131.061 121.308 131.061 112.53 131.039 102.782C131.039 100.346 131.039 97.8505 131.039 95.296C131.039 94.0216 131.039 92.733 131.039 91.4305V89.4639C131.076 88.814 131.013 88.1623 130.853 87.5312C130.586 86.5747 130.042 85.718 129.291 85.0674C128.539 84.4169 127.613 84.0013 126.627 83.8724C125.972 83.8007 125.274 83.8387 124.594 83.8302H116.204C115.516 83.829 114.836 83.9688 114.205 84.241C113.574 84.5133 113.005 84.9121 112.535 85.4127C112.071 85.9069 111.71 86.4881 111.473 87.1227C111.235 87.7573 111.127 88.4326 111.153 89.1095C111.153 91.8525 111.153 94.5505 111.153 97.2034C111.153 102.508 111.153 107.623 111.153 112.501C111.153 122.249 111.153 131.027 111.128 138.399C111.128 140.242 111.128 141.995 111.128 143.657C111.071 144.456 111.156 145.259 111.377 146.029C111.612 146.742 112 147.396 112.514 147.945C112.975 148.439 113.53 148.835 114.147 149.111C114.764 149.386 115.431 149.535 116.107 149.548H119.539H124.294L119.539 149.569H116.102C115.412 149.558 114.731 149.408 114.099 149.129C113.467 148.85 112.898 148.447 112.425 147.945C111.897 147.384 111.496 146.716 111.25 145.987C111.191 145.801 111.149 145.603 111.098 145.408C111.047 145.214 111.026 145.012 111.013 144.805C110.984 144.383 110.992 143.991 110.988 143.573C110.988 141.913 110.988 140.16 110.988 138.315C110.988 130.942 110.988 122.165 110.988 112.417C110.988 107.538 110.988 102.424 110.988 97.119V89.1137C110.961 88.4089 111.075 87.7058 111.322 87.0451C111.57 86.3845 111.946 85.7794 112.429 85.2651C112.921 84.743 113.514 84.3272 114.173 84.0433C114.831 83.7595 115.541 83.6137 116.259 83.615H124.602C125.287 83.615 125.967 83.5855 126.665 83.6614C127.353 83.7491 128.017 83.9729 128.618 84.3198C129.814 85.0121 130.691 86.1454 131.061 87.4763C131.225 88.1267 131.291 88.7982 131.255 89.4682V95.296C131.255 97.8505 131.255 100.346 131.255 102.782C131.255 112.53 131.255 121.308 131.23 128.68C131.23 132.369 131.23 135.702 131.23 138.631C131.23 140.096 131.23 141.459 131.23 142.712C131.23 143.341 131.23 143.94 131.23 144.514C131.221 145.062 131.126 145.606 130.951 146.126C130.65 147.002 130.121 147.781 129.416 148.384C128.906 148.826 128.311 149.159 127.667 149.363C127.272 149.491 126.863 149.57 126.449 149.599L125.955 149.612Z" fill="#263238"/>
<path d="M50.9061 119.034C50.8553 119 54.4057 113.636 58.8395 107.057C63.2733 100.478 66.9082 95.1653 66.9547 95.199C67.0012 95.2328 63.455 100.592 59.0213 107.18C54.5875 113.767 50.9568 119.072 50.9061 119.034Z" fill="#263238"/>
<path d="M43.9996 119.034L44.0504 118.941L44.2194 118.671L44.8788 117.654C45.4536 116.772 46.2989 115.501 47.3641 113.948C49.4774 110.834 52.4783 106.572 55.8174 101.883C59.1565 97.1951 62.1574 92.9498 64.3088 89.8565L66.8448 86.1935L67.5379 85.1976L67.7197 84.9402C67.762 84.8853 67.7873 84.8558 67.7915 84.86C67.7776 84.8925 67.7606 84.9236 67.7408 84.9529L67.5718 85.2229L66.9166 86.24C66.3376 87.1219 65.4922 88.3922 64.4271 89.9451C62.3138 93.0595 59.3128 97.3217 55.9738 102.01C52.6347 106.699 49.6338 110.944 47.4824 114.037L44.9464 117.7L44.2575 118.696L44.0715 118.953C44.0292 119.004 44.0039 119.038 43.9996 119.034Z" fill="#263238"/>
<path d="M169.489 167.285C169.569 167.274 169.65 167.274 169.73 167.285C169.966 167.323 170.187 167.426 170.368 167.58C170.518 167.707 170.638 167.864 170.72 168.041C170.802 168.218 170.845 168.411 170.846 168.606C170.846 169.057 170.846 169.581 170.846 170.167C170.846 172.522 170.867 175.919 170.88 180.11C170.88 181.16 170.88 182.262 170.88 183.405C170.904 183.718 170.825 184.029 170.656 184.293C170.487 184.556 170.236 184.757 169.942 184.866C169.791 184.918 169.632 184.945 169.472 184.946H168.099H160.208H142.117C141.9 184.947 141.686 184.899 141.49 184.804C141.294 184.71 141.123 184.572 140.989 184.401C140.855 184.23 140.761 184.031 140.714 183.819C140.68 183.617 140.669 183.412 140.68 183.207V176.274C140.68 174.763 140.68 173.282 140.68 171.826V169.669C140.68 169.315 140.68 168.96 140.68 168.61C140.68 168.423 140.716 168.237 140.788 168.064C140.86 167.891 140.965 167.734 141.098 167.602C141.231 167.47 141.388 167.365 141.562 167.294C141.735 167.223 141.921 167.187 142.109 167.188H145.135H148.969H155.85L165.808 167.222L168.517 167.243H165.808L155.85 167.277H148.969H142.151C141.826 167.277 141.514 167.406 141.285 167.635C141.055 167.865 140.926 168.176 140.926 168.5V169.56C140.926 170.273 140.926 170.99 140.926 171.716V176.164C140.926 177.675 140.926 179.211 140.926 180.772V183.131C140.913 183.32 140.923 183.51 140.955 183.697C140.994 183.875 141.074 184.043 141.188 184.186C141.301 184.331 141.446 184.448 141.612 184.528C141.777 184.609 141.959 184.65 142.143 184.65H160.233H168.124H169.067C169.35 184.675 169.636 184.651 169.912 184.579C170.176 184.486 170.402 184.31 170.554 184.076C170.707 183.843 170.779 183.565 170.757 183.287C170.757 182.144 170.757 181.042 170.757 179.991C170.757 175.801 170.787 172.395 170.791 170.049C170.791 169.463 170.791 168.939 170.791 168.488C170.795 168.302 170.76 168.117 170.687 167.946C170.614 167.775 170.505 167.622 170.368 167.496C170.193 167.342 169.98 167.236 169.751 167.188C169.587 167.289 169.489 167.294 169.489 167.285Z" fill="#263238"/>
<path d="M143.952 184.87C143.893 184.87 143.842 180.941 143.842 176.096C143.842 171.252 143.893 167.319 143.952 167.319C144.011 167.319 144.062 171.248 144.062 176.096C144.062 180.945 144.015 184.87 143.952 184.87Z" fill="#263238"/>
<path d="M147.27 184.87C147.211 184.87 147.16 180.941 147.16 176.096C147.16 171.252 147.211 167.319 147.27 167.319C147.329 167.319 147.38 171.248 147.38 176.096C147.38 180.945 147.329 184.87 147.27 184.87Z" fill="#263238"/>
<path d="M150.588 184.87C150.524 184.87 150.478 180.941 150.478 176.096C150.478 171.252 150.524 167.319 150.588 167.319C150.651 167.319 150.698 171.248 150.698 176.096C150.698 180.945 150.647 184.87 150.588 184.87Z" fill="#263238"/>
<path d="M153.906 184.87C153.842 184.87 153.796 180.941 153.796 176.096C153.796 171.252 153.842 167.319 153.906 167.319C153.969 167.319 154.016 171.248 154.016 176.096C154.016 180.945 153.965 184.87 153.906 184.87Z" fill="#263238"/>
<path d="M157.232 184.87C157.169 184.87 157.122 180.941 157.122 176.096C157.122 171.252 157.169 167.319 157.232 167.319C157.295 167.319 157.342 171.248 157.342 176.096C157.342 180.945 157.283 184.87 157.232 184.87Z" fill="#263238"/>
<path d="M160.537 184.87C160.478 184.87 160.427 180.941 160.427 176.096C160.427 171.252 160.478 167.319 160.537 167.319C160.596 167.319 160.651 171.248 160.651 176.096C160.651 180.945 160.613 184.87 160.537 184.87Z" fill="#263238"/>
<path d="M163.855 184.87C163.796 184.87 163.745 180.941 163.745 176.096C163.745 171.252 163.796 167.319 163.855 167.319C163.914 167.319 163.965 171.248 163.965 176.096C163.965 180.945 163.919 184.87 163.855 184.87Z" fill="#263238"/>
<path d="M167.173 184.87C167.114 184.87 167.063 180.941 167.063 176.096C167.063 171.252 167.114 167.319 167.173 167.319C167.232 167.319 167.283 171.248 167.283 176.096C167.283 180.945 167.237 184.87 167.173 184.87Z" fill="#263238"/>
<path d="M236.093 79.6313H135.224V92.3209H236.093V79.6313Z" fill="#263238"/>
<path d="M77.7199 79.6313H19.1299V92.3209H77.7199V79.6313Z" fill="#263238"/>
<path d="M302.798 114.054C302.739 114.054 302.688 108.526 302.688 101.71C302.688 94.8951 302.739 89.3669 302.798 89.3669C302.858 89.3669 302.908 94.8909 302.908 101.71C302.908 108.53 302.862 114.054 302.798 114.054Z" fill="#263238"/>
<path d="M22.2281 157.798C22.1689 157.798 22.1182 150.7 22.1182 141.944C22.1182 133.187 22.1689 126.089 22.2281 126.089C22.2872 126.089 22.3379 133.187 22.3379 141.944C22.3379 150.7 22.2915 157.798 22.2281 157.798Z" fill="white"/>
<path d="M88.8276 120.24C88.6713 120.704 88.4431 121.139 88.1514 121.532C87.9285 121.962 87.6437 122.357 87.306 122.705C87.4633 122.242 87.6914 121.807 87.9823 121.414C88.2065 120.984 88.4911 120.589 88.8276 120.24Z" fill="white"/>
<path d="M96.8456 114.392C96.8237 114.458 96.7939 114.522 96.7568 114.581L96.4779 115.105C96.2285 115.556 95.8523 116.202 95.3832 116.995C94.4364 118.578 93.0796 120.738 91.4862 123.055C89.8927 125.372 88.3542 127.41 87.2088 128.858C86.634 129.584 86.1648 130.162 85.8309 130.546L85.442 130.997C85.4004 131.052 85.3521 131.102 85.2983 131.145C85.2983 131.145 85.3279 131.077 85.4082 130.968L85.7633 130.491L87.0862 128.756C88.1978 127.288 89.7068 125.237 91.3129 122.924C92.919 120.612 94.2716 118.468 95.2564 116.907L96.4102 115.054L96.7273 114.552C96.7907 114.446 96.8371 114.387 96.8456 114.392Z" fill="white"/>
<path d="M124.361 106.129C124.412 106.163 122.459 109.361 119.999 113.277C117.539 117.194 115.502 120.342 115.451 120.308C115.401 120.274 117.353 117.075 119.813 113.159C122.273 109.243 124.311 106.095 124.361 106.129Z" fill="white"/>
<path d="M127.793 108.614C127.844 108.644 125.025 113.336 121.491 119.093C117.958 124.849 115.058 129.491 115.003 129.457C114.948 129.423 117.772 124.735 121.305 118.979C124.839 113.223 127.743 108.581 127.793 108.614Z" fill="white"/>
<path d="M79.5797 145.484C79.5206 145.484 79.4698 133.837 79.4698 119.472C79.4698 105.108 79.5206 93.4603 79.5797 93.4603C79.6389 93.4603 79.6896 105.103 79.6896 119.472C79.6896 133.842 79.6389 145.484 79.5797 145.484Z" fill="white"/>
<path d="M84.2037 75.2975C84.2037 75.3565 70.5388 75.4072 53.6829 75.4072C36.827 75.4072 23.1537 75.3565 23.1537 75.2975C23.1537 75.2384 36.8185 75.1877 53.6829 75.1877C70.5473 75.1877 84.2037 75.2342 84.2037 75.2975Z" fill="white"/>
<path d="M149.261 75.2975C149.261 75.3565 144.155 75.4072 137.849 75.4072C131.542 75.4072 126.437 75.3565 126.437 75.2975C126.437 75.2384 131.542 75.1877 137.849 75.1877C144.155 75.1877 149.261 75.2342 149.261 75.2975Z" fill="white"/>
<path d="M138.47 175.037C138.411 175.037 138.36 168.707 138.36 160.879C138.36 153.051 138.411 146.717 138.47 146.717C138.529 146.717 138.58 153.047 138.58 160.879C138.58 168.711 138.533 175.037 138.47 175.037Z" fill="white"/>
<path d="M107.636 179.658C107.577 179.658 107.526 171.18 107.526 160.723C107.526 150.266 107.577 141.792 107.636 141.792C107.695 141.792 107.746 150.266 107.746 160.723C107.746 171.18 107.7 179.658 107.636 179.658Z" fill="white"/>
<path d="M218.941 70.6808C218.941 70.7398 205.479 70.7905 188.881 70.7905C172.283 70.7905 158.817 70.7398 158.817 70.6808C158.817 70.6217 172.275 70.571 188.881 70.571C205.488 70.571 218.941 70.6175 218.941 70.6808Z" fill="white"/>
<path d="M284.619 76.8377C284.619 76.8968 273.85 76.9475 260.57 76.9475C247.29 76.9475 236.52 76.8968 236.52 76.8377C236.52 76.7787 247.285 76.728 260.57 76.728C273.854 76.728 284.619 76.7744 284.619 76.8377Z" fill="white"/>
<path d="M280.236 79.6483H239.576V184.87H280.236V79.6483Z" fill="#FAFAFA"/>
<path d="M280.228 184.87C280.228 184.87 280.228 184.692 280.228 184.351C280.228 184.009 280.228 183.507 280.228 182.836C280.228 181.498 280.228 179.527 280.228 176.97C280.228 171.859 280.228 164.415 280.198 155.064C280.198 136.382 280.169 110.087 280.148 79.6482L280.253 79.7537H239.576L239.69 79.644C239.69 121.11 239.66 158.524 239.652 184.866L239.576 184.79L269.361 184.832L277.426 184.853H279.539H280.258C280.258 184.853 280.021 184.853 279.556 184.853H277.472L269.442 184.874L239.61 184.912H239.534V184.836C239.534 158.495 239.534 121.08 239.5 79.6145V79.5048H280.38V79.6103C280.38 110.079 280.342 136.395 280.329 155.098C280.329 164.436 280.329 171.876 280.3 176.983C280.3 179.515 280.3 181.494 280.3 182.823C280.3 183.486 280.3 183.988 280.3 184.325C280.3 184.663 280.228 184.87 280.228 184.87Z" fill="#263238"/>
<path d="M296.251 147.316L283.415 147.312V79.7411H296.433L296.251 147.316Z" fill="#FAFAFA"/>
<path d="M296.251 147.316C296.251 147.316 296.251 147.198 296.251 146.97C296.251 146.742 296.251 146.409 296.251 145.97C296.251 145.088 296.251 143.797 296.251 142.125C296.251 138.775 296.251 133.922 296.251 127.87C296.272 115.776 296.302 98.8999 296.332 79.7622L296.442 79.872H283.423L283.533 79.7622C283.533 108.197 283.495 133.171 283.483 147.333L283.423 147.274L292.891 147.308H295.393H296.04H296.26H296.048H295.414H292.925L283.423 147.337H283.364V147.278C283.364 133.116 283.335 108.142 283.313 79.7074V79.5977H296.543V79.758C296.475 98.9464 296.412 115.852 296.37 127.963C296.34 134.006 296.315 138.851 296.298 142.193C296.298 143.851 296.298 145.147 296.272 146.016C296.272 146.438 296.272 146.776 296.272 146.999C296.272 147.223 296.251 147.316 296.251 147.316Z" fill="#263238"/>
<path d="M274.611 116.793C274.611 116.763 275.033 116.894 276.187 116.936C277.341 116.978 279.518 116.729 279.788 116.751C280.059 116.772 283.17 116.936 283.17 116.936C283.17 116.936 282.447 117.603 281.859 117.527C281.282 117.49 280.703 117.499 280.127 117.552L279.704 117.531L280.655 118.215L280.384 121.291C280.351 121.319 280.311 121.34 280.269 121.351C280.227 121.362 280.183 121.364 280.14 121.356C280.096 121.349 280.056 121.332 280.02 121.307C279.984 121.282 279.954 121.249 279.932 121.211C279.813 120.93 279.782 120.62 279.843 120.321L279.421 121.671C279.421 121.671 278.998 121.84 278.757 121.557C278.694 121.459 278.656 121.347 278.647 121.23C278.638 121.114 278.659 120.997 278.706 120.89L278.592 119.692L277.667 118.721L276.559 119.088L277.147 120.422C277.147 120.422 277.73 121.62 277.599 121.734C277.468 121.848 277.341 122.266 277.011 121.823C276.682 121.38 276.589 120.979 276.23 120.81C275.87 120.641 273.968 119.472 273.643 118.527L274.611 116.793Z" fill="#FFBF9D"/>
<path d="M254.361 106.551C254.932 106.847 255.458 107.222 255.925 107.665C256.428 108.222 263.469 113.012 263.469 113.012L271.868 115.421L275.304 116.831L274.239 119.958L270.828 119.177C270.828 119.177 266.859 118.73 264.454 118.506C263.143 118.423 261.865 118.062 260.705 117.447L255.925 114.708L253.938 109.015L254.361 106.551Z" fill="#5E53B8"/>
<path d="M267.941 143.539L262.945 155.629H237.327V143.539L267.717 143.151" fill="#E0E0E0"/>
<path d="M245.607 130.006C246.045 131.339 246.798 132.546 247.805 133.525C248.811 134.504 250.039 135.225 251.385 135.627C256.009 136.998 270.917 136.234 270.917 136.234L273.11 151.355L280.249 150.376C280.249 150.376 276.868 132.436 276.897 131.149C276.927 129.14 276.052 127.718 273.939 127.723C272.65 127.723 258.19 126.879 258.19 126.879L255.937 125.191L246.339 128.748L245.607 130.006Z" fill="#263238"/>
<path d="M267.299 140.8C267.299 140.8 268.934 140.674 268.989 139.049C268.989 138.264 268.989 137.201 268.989 136.314C268.984 135.868 268.804 135.442 268.488 135.127C268.172 134.812 267.745 134.632 267.299 134.626H245.607L243.874 135.551L243.397 138.104L244.276 140.315L267.299 140.8Z" fill="#455A64"/>
<path d="M257.37 93.0974C256.947 92.6037 256.411 92.1268 256.275 91.4812C256.14 90.8355 256.385 90.2152 256.094 89.6961C255.734 89.042 254.779 88.9534 254.34 88.3541C254.128 88.063 254.065 87.6832 253.854 87.3878C253.648 87.1581 253.387 86.9851 253.096 86.8853C252.804 86.7855 252.491 86.7624 252.188 86.8181C251.575 86.8771 250.988 87.0966 250.371 87.1346C249.525 87.1894 248.68 86.9151 247.835 87.1346C246.943 87.3962 246.394 88.1853 245.81 88.9449L245.049 89.8269C244.894 89.9827 244.724 90.124 244.542 90.2489C244.205 90.4205 243.884 90.6225 243.583 90.8524C243.444 90.9975 243.336 91.1691 243.265 91.3569C243.194 91.5446 243.162 91.7447 243.17 91.9452C243.179 92.1457 243.227 92.3424 243.313 92.5237C243.4 92.705 243.521 92.8671 243.672 93.0004C243.349 93.1109 243.069 93.3216 242.875 93.6017C242.68 93.8818 242.58 94.2167 242.59 94.5575C242.642 94.9278 242.738 95.2905 242.877 95.6379C243.014 95.9893 243.023 96.3777 242.902 96.7351C242.868 96.8209 242.817 96.8991 242.752 96.9652C242.687 97.0312 242.61 97.0838 242.525 97.1199C242.439 97.156 242.348 97.1749 242.255 97.1755C242.163 97.1761 242.071 97.1583 241.985 97.1233C242.044 97.3658 242.156 97.5923 242.313 97.7864C242.47 97.9805 242.669 98.1374 242.894 98.2458C242.714 98.4263 242.472 98.5319 242.218 98.5412C242.898 100.145 244.754 100.993 246.495 101.01C248.236 101.027 249.91 100.368 251.529 99.7228L256.229 98.5201C256.652 98.4273 256.812 97.9293 256.808 97.5031C256.742 97.0822 256.756 96.6527 256.85 96.2371C257.062 95.6969 257.696 95.3931 257.907 94.874C258.173 94.279 257.801 93.5954 257.37 93.0974Z" fill="#263238"/>
<path d="M246.25 97.3427C245.883 96.291 245.609 95.2094 245.43 94.1102C245.251 93.0076 245.35 91.8778 245.717 90.8228C245.776 90.6625 246.288 89.6075 246.453 89.6243C246.618 89.6412 246.258 90.6245 246.317 90.73C246.86 91.7537 247.077 92.9181 246.939 94.068C246.83 95.1815 246.599 96.2797 246.25 97.3427Z" fill="#263238"/>
<path d="M246.169 93.0974C246.098 90.308 247.662 87.9448 250.46 87.949H250.717C251.972 88.0252 253.152 88.5711 254.022 89.4777C254.892 90.3843 255.387 91.5849 255.409 92.84C255.455 95.2538 255.477 97.9293 255.384 99.2164C255.189 101.888 252.488 102.141 252.488 102.141L252.552 106.534L246.017 102.428L246.169 93.0974Z" fill="#FFBF9D"/>
<path d="M252.488 102.145C251.252 102.067 250.064 101.636 249.065 100.904C249.328 101.579 249.802 102.151 250.416 102.537C251.031 102.922 251.753 103.1 252.476 103.044L252.488 102.145Z" fill="#FF9A6C"/>
<path d="M253.896 95.1103C253.892 95.2103 253.848 95.3046 253.774 95.3725C253.701 95.4405 253.603 95.4767 253.503 95.4733C253.454 95.4744 253.405 95.4657 253.36 95.4477C253.315 95.4297 253.274 95.4028 253.239 95.3685C253.204 95.3343 253.177 95.2934 253.158 95.2483C253.14 95.2032 253.13 95.1548 253.131 95.1061C253.136 95.0072 253.18 94.9143 253.252 94.8466C253.325 94.779 253.421 94.742 253.52 94.7432C253.569 94.7426 253.617 94.7517 253.662 94.7698C253.708 94.788 253.749 94.8149 253.784 94.849C253.819 94.8831 253.847 94.9237 253.866 94.9685C253.885 95.0134 253.895 95.0616 253.896 95.1103Z" fill="#263238"/>
<path d="M254.767 93.9161C254.72 93.9625 254.441 93.7304 254.031 93.7093C253.621 93.6882 253.304 93.8697 253.262 93.8191C253.22 93.7684 253.296 93.7093 253.435 93.6207C253.621 93.5085 253.836 93.4555 254.052 93.4688C254.266 93.4825 254.47 93.5622 254.636 93.6967C254.754 93.8022 254.792 93.895 254.767 93.9161Z" fill="#263238"/>
<path d="M250.362 94.95C250.358 95.05 250.314 95.1442 250.241 95.2122C250.167 95.2802 250.07 95.3164 249.969 95.3129C249.921 95.3141 249.872 95.3054 249.827 95.2874C249.781 95.2694 249.74 95.2425 249.705 95.2082C249.671 95.1739 249.643 95.133 249.625 95.088C249.606 95.0429 249.597 94.9945 249.597 94.9458C249.603 94.8462 249.647 94.7526 249.72 94.6848C249.794 94.6171 249.891 94.5805 249.991 94.5829C250.039 94.5817 250.088 94.5904 250.133 94.6084C250.179 94.6264 250.22 94.6533 250.255 94.6876C250.289 94.7219 250.317 94.7628 250.335 94.8078C250.354 94.8529 250.363 94.9013 250.362 94.95Z" fill="#263238"/>
<path d="M250.73 93.8401C250.679 93.8865 250.405 93.6544 249.99 93.6291C249.576 93.6038 249.268 93.7937 249.225 93.7388C249.183 93.6839 249.259 93.6291 249.394 93.5447C249.579 93.4312 249.795 93.3781 250.012 93.3928C250.227 93.4039 250.433 93.4838 250.599 93.6206C250.717 93.7261 250.755 93.819 250.73 93.8401Z" fill="#263238"/>
<path d="M252.015 97.0811C252.235 97.0293 252.461 97.0038 252.687 97.0052C252.793 97.0052 252.894 96.9841 252.915 96.9123C252.933 96.8055 252.915 96.696 252.865 96.6001C252.784 96.3384 252.696 96.0683 252.603 95.7814C252.357 95.0869 252.166 94.3743 252.032 93.6503C252.337 94.322 252.586 95.0178 252.776 95.7307C252.86 96.0177 252.945 96.292 253.025 96.5747C253.082 96.7081 253.093 96.8567 253.055 96.9967C253.036 97.0329 253.01 97.0645 252.978 97.0893C252.946 97.1141 252.909 97.1315 252.869 97.1402C252.81 97.148 252.75 97.148 252.691 97.1402C252.464 97.1505 252.237 97.1306 252.015 97.0811Z" fill="#263238"/>
<path d="M250.785 97.2921C250.853 97.2921 250.827 97.7394 251.208 98.0812C251.588 98.4231 252.053 98.3978 252.053 98.4611C252.053 98.5244 251.939 98.5412 251.74 98.5328C251.478 98.5216 251.228 98.4185 251.034 98.2416C250.85 98.0704 250.739 97.8343 250.726 97.5833C250.701 97.3976 250.755 97.2879 250.785 97.2921Z" fill="#263238"/>
<path d="M250.81 92.1733C250.76 92.2788 250.354 92.2028 249.868 92.2324C249.382 92.2619 248.984 92.3674 248.925 92.2661C248.866 92.1648 248.976 92.1142 249.137 92.0171C249.353 91.8924 249.597 91.8229 249.847 91.8146C250.096 91.7996 250.345 91.8445 250.574 91.9454C250.747 92.0256 250.832 92.1184 250.81 92.1733Z" fill="#263238"/>
<path d="M254.682 92.5403C254.602 92.629 254.327 92.515 253.985 92.4897C253.642 92.4644 253.355 92.515 253.291 92.4138C253.228 92.3125 253.317 92.2745 253.448 92.1943C253.624 92.099 253.824 92.0578 254.023 92.0758C254.222 92.0938 254.412 92.1703 254.568 92.2956C254.682 92.418 254.716 92.4981 254.682 92.5403Z" fill="#263238"/>
<path d="M246.267 95.0893C246.22 95.0682 244.462 94.4352 244.407 96.2624C244.352 98.0897 246.208 97.769 246.212 97.7183C246.216 97.6677 246.267 95.0893 246.267 95.0893Z" fill="#FFBF9D"/>
<path d="M245.671 97.0094C245.671 97.0094 245.641 97.0305 245.586 97.0516C245.548 97.0675 245.507 97.0756 245.466 97.0756C245.424 97.0756 245.384 97.0675 245.345 97.0516C245.229 96.9731 245.136 96.8654 245.075 96.7394C245.015 96.6134 244.988 96.4736 244.999 96.3342C244.999 96.1762 245.035 96.0205 245.104 95.8784C245.123 95.822 245.155 95.771 245.198 95.7298C245.24 95.6886 245.293 95.6585 245.35 95.6421C245.387 95.633 245.426 95.6374 245.46 95.6544C245.494 95.6714 245.521 95.6999 245.536 95.7349C245.561 95.7856 245.536 95.8235 245.557 95.8235C245.578 95.8235 245.595 95.794 245.582 95.718C245.575 95.6729 245.551 95.6322 245.514 95.6041C245.491 95.584 245.463 95.5688 245.433 95.5594C245.404 95.55 245.372 95.5465 245.341 95.5492C245.266 95.5625 245.195 95.5947 245.135 95.6426C245.075 95.6905 245.028 95.7528 244.999 95.8235C244.916 95.981 244.872 96.1562 244.872 96.3342C244.859 96.4941 244.892 96.6545 244.966 96.7965C245.041 96.9385 245.155 97.0563 245.295 97.136C245.343 97.1517 245.395 97.156 245.445 97.1487C245.496 97.1414 245.544 97.1226 245.586 97.0938C245.667 97.06 245.679 97.0136 245.671 97.0094Z" fill="#FF9A6C"/>
<path d="M254.281 89.7848C254.581 89.6286 253.71 88.6538 252.987 88.3078C251.897 87.7845 250.219 87.4638 249.183 87.7127C248.588 87.8316 248.025 88.0712 247.527 88.4168C247.028 88.7623 246.607 89.2064 246.288 89.7215C245.676 90.8418 245.372 92.1044 245.409 93.3802C245.384 93.7698 245.464 94.1588 245.641 94.5069C245.891 94.9289 246.377 95.1821 246.343 95.7392C246.327 95.9429 246.392 96.1447 246.525 96.3004C246.854 96.6634 247.269 96.3384 247.463 96.005C247.825 95.2628 248.007 94.4462 247.995 93.6207C248.064 93.0393 248.037 92.4505 247.915 91.8779C247.831 91.5698 247.691 91.2786 247.628 90.9664C247.585 90.8128 247.575 90.6517 247.601 90.4943C247.627 90.3369 247.686 90.1869 247.776 90.0548C247.821 90.002 247.872 89.954 247.928 89.9114C248.187 89.6923 248.5 89.5467 248.834 89.4895C249.169 89.4324 249.513 89.4658 249.83 89.5864C250.857 89.9704 252.607 90.5528 253.076 90.211C253.412 90.0018 253.7 89.7243 253.921 89.3965L254.281 89.7848Z" fill="#263238"/>
<path d="M249.297 87.4679C249.802 87.3 250.336 87.2338 250.867 87.2729C251.398 87.312 251.916 87.4557 252.391 87.6958C252.646 87.8197 252.872 87.9934 253.058 88.2065C253.244 88.4196 253.385 88.6679 253.473 88.9365C253.551 89.2078 253.531 89.498 253.416 89.7559C253.301 90.0137 253.098 90.2227 252.843 90.3459H252.805C252.122 90.56 251.383 90.5057 250.738 90.194C250.088 89.9535 249.513 89.5357 248.858 89.2994C248.159 89.0498 247.401 89.0131 246.681 89.1939C247.387 88.3998 248.289 87.8047 249.297 87.4679Z" fill="#263238"/>
<path d="M245.569 102.791C245.569 102.791 241.736 107.277 241.765 110.412C241.765 112.1 245.633 130.006 245.633 130.006L256.394 126.026C256.722 125.905 256.998 125.675 257.175 125.374C257.353 125.074 257.422 124.721 257.37 124.376L255.95 114.991L254.386 106.551L252.755 105.365L252.628 104.487L252.421 104.065L246.148 101.407L245.569 102.791Z" fill="#5E53B8"/>
<path d="M271.868 123.912L279.746 124.806L280.566 123.494L275.837 122.182L272.485 122.418L271.868 123.912Z" fill="#263238"/>
<path d="M286.441 116.641L284.514 123.494H286.484L289.172 115.999L286.441 116.641Z" fill="#263238"/>
<path d="M273.465 147.616C273.465 147.616 277.269 126.786 277.899 125.22C278.529 123.654 278.423 122.992 280.938 122.772C283.453 122.553 296.272 122.772 296.272 122.772V147.32L280.258 147.557L280.19 155.845L271.868 155.452L273.465 147.616Z" fill="#263238"/>
<path d="M238.756 94.0385C238.756 94.0385 242.218 94.3761 242.725 95.7265C243.093 96.7055 242.928 100.592 242.805 102.635C242.786 102.978 242.635 103.301 242.384 103.536C242.133 103.772 241.801 103.902 241.457 103.901C241.457 103.901 243.232 105.458 243.401 106.074C243.57 106.69 246.863 126.494 246.525 130.001C246.186 133.508 245.176 135.192 245.176 135.192L238.756 135.529V94.0385Z" fill="#455A64"/>
<path d="M246.951 134.736C246.901 134.681 251.204 123.384 252.023 119.721C252.843 116.058 252.755 105.31 252.755 105.31C253.101 105.31 254.251 106.116 254.581 106.551C254.581 106.551 254.437 116.231 253.955 119.958C253.473 123.684 249.796 135.665 249.796 135.665L246.951 134.736Z" fill="#263238"/>
<path d="M246.951 134.736C247.016 134.747 247.08 134.764 247.142 134.787L247.687 134.951L249.8 135.622L249.741 135.652C250.455 133.221 251.647 129.288 252.915 124.33C253.224 123.085 253.549 121.798 253.761 120.409C253.972 119.021 254.048 117.578 254.137 116.084C254.293 113.088 254.382 109.906 254.445 106.61V106.551L254.466 106.618C254.218 106.341 253.934 106.098 253.621 105.897C253.474 105.791 253.322 105.694 253.165 105.606C253.026 105.518 252.873 105.456 252.712 105.42L252.827 105.31C252.827 109.551 252.784 113.569 252.467 117.198C252.39 118.084 252.26 118.965 252.078 119.835C251.88 120.679 251.63 121.473 251.389 122.241C250.903 123.777 250.413 125.195 249.961 126.482C249.052 129.056 248.27 131.124 247.755 132.533L246.909 134.736C246.949 134.537 247.007 134.342 247.082 134.154L247.683 132.508C248.19 131.077 248.951 129.01 249.821 126.431C250.244 125.14 250.747 123.726 251.225 122.19C251.461 121.422 251.706 120.625 251.901 119.793C252.075 118.93 252.2 118.058 252.273 117.181C252.581 113.564 252.632 109.547 252.611 105.314V105.188H252.721C252.918 105.221 253.106 105.293 253.275 105.399C253.439 105.492 253.596 105.593 253.752 105.703C254.078 105.92 254.375 106.178 254.636 106.471V106.5V106.601C254.576 109.901 254.479 113.083 254.319 116.084C254.226 117.582 254.145 119.038 253.925 120.426C253.706 121.815 253.359 123.119 253.046 124.359C251.749 129.322 250.51 133.247 249.779 135.665V135.711H249.733L247.683 134.994L247.146 134.808C247.08 134.788 247.015 134.764 246.951 134.736Z" fill="#455A64"/>
<path d="M247.235 135.04C247.235 134.842 251.009 127.904 255.498 126.343L257.983 127.068C257.983 127.068 250.578 132.352 249.796 135.665L247.235 135.04Z" fill="#263238"/>
<path d="M247.235 135.04C247.296 135.046 247.357 135.057 247.416 135.074L247.924 135.179L249.788 135.601L249.711 135.648C249.942 134.91 250.297 134.216 250.76 133.597C251.332 132.835 251.958 132.114 252.632 131.44C254.281 129.824 256.048 128.333 257.92 126.98L257.953 127.174L257.869 127.149L255.468 126.448H255.536C254.049 127.057 252.709 127.974 251.605 129.14C250.699 130.059 249.867 131.047 249.115 132.094C248.421 133.034 247.792 134.021 247.235 135.048C247.328 134.751 247.461 134.468 247.628 134.204C248.048 133.453 248.506 132.723 249.001 132.018C249.747 130.948 250.578 129.941 251.487 129.005C252.604 127.81 253.967 126.869 255.481 126.245H255.51H255.548L257.949 126.946L258.03 126.971L258.245 127.035L258.063 127.165C256.192 128.512 254.418 129.989 252.755 131.584C252.084 132.245 251.457 132.95 250.878 133.694C250.417 134.291 250.059 134.961 249.821 135.677V135.736H249.762L247.886 135.247L247.395 135.112C247.339 135.094 247.285 135.07 247.235 135.04Z" fill="#455A64"/>
<path d="M245.421 105.31C242.983 106.551 243.879 111.429 244.635 113.526C245.958 117.194 248.017 122.962 249.111 123.954C250.616 125.342 261.369 128.984 261.369 128.984L263.452 125.051L253.359 119.692C253.359 119.692 253.359 118.882 252.936 118.768C252.514 118.654 251.356 111.125 251.356 111.125C251.356 111.125 250.933 108.197 249.872 106.812" fill="#5E53B8"/>
<path d="M249.897 106.812C250.097 107.061 250.266 107.333 250.4 107.623C250.778 108.451 251.062 109.318 251.246 110.21C251.381 110.783 251.474 111.429 251.592 112.13C251.711 112.83 251.85 113.59 251.99 114.4C252.129 115.21 252.302 116.088 252.497 116.983C252.598 117.434 252.7 117.903 252.843 118.363C252.876 118.471 252.92 118.575 252.974 118.675C252.945 118.675 253.059 118.704 253.114 118.751C253.172 118.797 253.222 118.853 253.262 118.915C253.388 119.155 253.455 119.421 253.456 119.692L253.406 119.612L263.507 124.958L263.6 125.009L263.55 125.102C262.886 126.368 262.184 127.685 261.466 129.035L261.424 129.119L261.335 129.086L259.378 128.406C257.328 127.685 255.337 126.95 253.431 126.186C252.48 125.802 251.55 125.41 250.658 124.984L249.995 124.655C249.783 124.528 249.572 124.418 249.361 124.279L249.061 124.055C248.971 123.968 248.886 123.875 248.807 123.777C248.663 123.583 248.531 123.38 248.414 123.169C247.983 122.365 247.598 121.538 247.26 120.692C246.913 119.848 246.596 119.063 246.301 118.278C245.705 116.717 245.176 115.248 244.699 113.91C244.256 112.703 243.972 111.443 243.853 110.163C243.736 109.195 243.789 108.214 244.01 107.264C244.141 106.657 244.455 106.105 244.91 105.681C244.972 105.612 245.045 105.554 245.126 105.508L245.299 105.403L245.443 105.323L245.312 105.424L245.147 105.538C245.068 105.583 244.998 105.641 244.94 105.711C244.509 106.141 244.215 106.689 244.094 107.285C243.888 108.226 243.848 109.196 243.976 110.15C244.108 111.418 244.404 112.663 244.855 113.856C245.341 115.193 245.878 116.653 246.478 118.215C246.778 118.991 247.099 119.797 247.446 120.616C247.792 121.459 248.186 122.282 248.625 123.081C248.82 123.501 249.127 123.86 249.513 124.119C249.703 124.249 249.935 124.359 250.13 124.482L250.781 124.811C251.668 125.233 252.594 125.617 253.545 125.997C255.447 126.756 257.438 127.49 259.462 128.212L261.419 128.891L261.288 128.946L263.372 125.013L263.419 125.161L253.334 119.785L253.287 119.759V119.705C253.288 119.467 253.233 119.233 253.127 119.021C253.099 118.976 253.063 118.938 253.021 118.907C252.987 118.865 252.953 118.907 252.848 118.793C252.779 118.678 252.727 118.555 252.691 118.426C252.543 117.953 252.446 117.485 252.349 117.029C252.159 116.118 252.002 115.252 251.859 114.438C251.715 113.623 251.601 112.864 251.482 112.163C251.364 111.463 251.284 110.813 251.157 110.243C250.98 109.357 250.711 108.491 250.354 107.661C250.256 107.444 250.144 107.234 250.02 107.032C249.936 106.884 249.897 106.812 249.897 106.812Z" fill="#263238"/>
<path d="M238.756 93.0847C238.756 93.0847 236.795 93.4645 236.309 94.9922C235.823 96.5198 236.309 143.522 236.309 143.522H267.941C267.941 143.522 268.453 139.906 265.075 139.205C261.698 138.505 250.029 138.99 250.029 138.99C250.029 138.99 245.924 134.998 245.007 134.192C244.09 133.386 243.71 132.757 242.412 132.989C241.115 133.221 240.147 133.382 240.147 133.382V117.649L238.756 113.602V93.0847Z" fill="#263238"/>
<path d="M263.583 129.326C263.583 129.326 262.222 129.858 262.349 131.259C262.408 132.058 262.616 132.84 262.962 133.563L265.075 155.224H266.897L264.889 132.778V130.12L263.583 129.326Z" fill="#263238"/>
<path d="M263.583 129.326C263.583 129.326 263.613 129.326 263.672 129.368L263.926 129.508L264.923 130.086C264.923 130.761 264.923 131.66 264.923 132.744C265.346 137.433 266.111 145.7 266.982 155.186V155.304H264.94V155.207C264.095 146.21 263.33 138.327 262.869 133.542V133.563C262.576 132.936 262.385 132.266 262.303 131.58C262.261 131.3 262.261 131.015 262.303 130.736C262.35 130.504 262.44 130.284 262.569 130.086C262.75 129.819 262.988 129.595 263.266 129.432C263.337 129.39 263.41 129.353 263.486 129.322C263.533 129.322 263.562 129.292 263.562 129.297L263.49 129.339C263.444 129.364 263.372 129.402 263.283 129.461C263.02 129.633 262.796 129.857 262.624 130.119C262.504 130.313 262.422 130.528 262.383 130.752C262.354 131.024 262.363 131.298 262.413 131.567C262.506 132.239 262.703 132.892 262.996 133.504V133.529C263.473 138.315 264.264 146.189 265.16 155.186L265.05 155.085H266.872L266.766 155.207C265.921 145.712 265.215 137.445 264.809 132.753C264.809 131.668 264.809 130.769 264.839 130.094V130.124L263.917 129.554L263.668 129.394L263.583 129.326Z" fill="#455A64"/>
<path d="M252.455 104.166C252.49 104.332 252.49 104.503 252.455 104.669C252.389 105.119 252.246 105.554 252.032 105.956L251.998 106.023L251.922 105.994C251.25 105.732 250.426 105.386 249.551 104.977C248.443 104.466 247.463 103.955 246.765 103.567C246.378 103.375 246.01 103.146 245.667 102.884C246.069 103.037 246.461 103.219 246.837 103.428C247.552 103.782 248.528 104.272 249.644 104.778C250.515 105.2 251.334 105.542 251.99 105.829L251.875 105.871C252.15 105.334 252.346 104.76 252.455 104.166Z" fill="#263238"/>
<path d="M255.088 108.969C255.137 109.126 255.165 109.289 255.172 109.454C255.223 109.817 255.278 110.26 255.35 110.783C255.498 111.906 255.722 113.455 255.984 115.16C256.246 116.864 256.478 118.363 256.66 119.532C256.736 120.059 256.795 120.502 256.846 120.861C256.878 121.023 256.892 121.189 256.888 121.355C256.827 121.2 256.785 121.038 256.762 120.873L256.508 119.557C256.301 118.443 256.03 116.902 255.768 115.193C255.506 113.484 255.303 111.931 255.193 110.8C255.139 110.239 255.105 109.779 255.088 109.463C255.071 109.298 255.071 109.133 255.088 108.969Z" fill="#263238"/>
<path d="M294.25 112.139L269.107 123.122C268.652 123.321 268.444 123.851 268.644 124.305L268.72 124.479C268.919 124.934 269.45 125.142 269.905 124.943L295.048 113.96C295.504 113.761 295.711 113.231 295.512 112.776L295.436 112.602C295.237 112.147 294.706 111.94 294.25 112.139Z" fill="#455A64"/>
<path d="M268.791 130.596C268.791 130.347 268.047 127.587 267.797 127.267C267.548 126.946 263.203 125.71 263.224 125.667L261.77 128.25L262.265 128.672C262.692 129.046 263.168 129.36 263.681 129.605L264.074 131.006C264.074 131.006 264.146 131.748 264.179 132.031C264.213 132.314 265.067 132.246 265.067 132.246C265.244 132.491 265.912 132.318 265.912 132.318H266.593C266.31 132.884 266.804 132.989 266.804 132.989L267.586 132.635C268.757 132.457 268.224 131.715 268.224 131.715C268.461 131.368 268.652 130.992 268.791 130.596Z" fill="#FFBF9D"/>
<path d="M265.177 132.204C265.113 132.204 265.223 131.499 265.177 130.643C265.13 129.786 264.957 129.111 265.02 129.094C265.469 130.073 265.524 131.186 265.173 132.204H265.177Z" fill="#FF9A6C"/>
<path d="M266.441 132.221C266.411 132.221 266.47 132.04 266.508 131.757C266.556 131.392 266.546 131.022 266.479 130.66C266.318 129.816 266.056 129.132 266.115 129.107C266.174 129.081 266.234 129.254 266.352 129.529C266.511 129.881 266.628 130.25 266.699 130.63C266.77 131.017 266.757 131.414 266.66 131.795C266.58 132.086 266.466 132.234 266.441 132.221Z" fill="#FF9A6C"/>
<path d="M266.496 132.36C266.496 132.331 266.677 132.23 266.961 132.04C267.145 131.94 267.296 131.788 267.395 131.604C267.494 131.419 267.537 131.21 267.518 131.002C267.383 130.371 267.319 129.727 267.328 129.081C267.542 129.695 267.683 130.33 267.751 130.976C267.772 131.114 267.765 131.254 267.731 131.389C267.697 131.524 267.636 131.65 267.552 131.761C267.418 131.935 267.248 132.079 267.054 132.183C266.703 132.335 266.504 132.386 266.496 132.36Z" fill="#FF9A6C"/>
<path d="M268.144 131.867C268.114 131.921 267.954 131.896 267.759 131.896C267.565 131.896 267.404 131.896 267.379 131.854C267.354 131.812 267.518 131.672 267.764 131.677C268.009 131.681 268.174 131.816 268.144 131.867Z" fill="#FF9A6C"/>
<path d="M265.012 129.001C264.953 128.98 265.012 128.714 264.847 128.448C264.682 128.182 264.467 128.06 264.484 127.997C264.501 127.934 264.572 127.959 264.691 127.997C264.841 128.067 264.964 128.184 265.042 128.33C265.121 128.477 265.148 128.647 265.118 128.811C265.092 128.951 265.037 129.01 265.012 129.001Z" fill="#FF9A6C"/>
<path d="M266.212 128.588C266.149 128.588 266.128 128.368 266.022 128.166C265.916 127.963 265.777 127.794 265.811 127.744C265.845 127.693 266.09 127.79 266.233 128.077C266.377 128.364 266.28 128.6 266.212 128.588Z" fill="#FF9A6C"/>
<path d="M267.172 128.71C267.108 128.71 267.087 128.453 266.986 128.17C266.884 127.887 266.745 127.676 266.791 127.634C266.838 127.592 267.075 127.761 267.193 128.098C267.311 128.436 267.227 128.71 267.172 128.71Z" fill="#FF9A6C"/>
<path d="M239.576 79.7411H236.402V184.963H239.576V79.7411Z" fill="#5E53B8"/>
<path d="M239.576 184.963C239.576 184.963 239.576 184.777 239.576 184.414C239.576 184.051 239.576 183.519 239.576 182.823C239.576 181.422 239.576 179.363 239.576 176.713C239.576 171.404 239.576 163.728 239.542 154.224C239.542 135.234 239.517 108.939 239.496 79.7412L239.606 79.8509H236.431L236.541 79.7412C236.499 130.968 236.465 173.868 236.457 184.963L236.431 184.937H238.824H239.606C239.606 184.937 239.36 184.937 238.841 184.937H236.431H236.406V184.912C236.406 173.818 236.364 130.917 236.321 79.6905V79.5808H239.703V79.758C239.703 108.99 239.673 135.306 239.66 154.321C239.66 163.816 239.635 171.484 239.627 176.784C239.627 179.426 239.627 181.477 239.627 182.87C239.627 183.562 239.627 184.089 239.627 184.448C239.627 184.807 239.576 184.963 239.576 184.963Z" fill="#263238"/>
<path d="M279.657 171.222C279.657 171.286 270.731 171.332 259.72 171.332C248.71 171.332 239.783 171.286 239.783 171.222C239.783 171.159 248.71 171.113 259.72 171.113C270.731 171.113 279.657 171.163 279.657 171.222Z" fill="#263238"/>
<path d="M279.78 178.966C279.78 179.029 270.828 179.076 259.784 179.076C248.739 179.076 239.783 179.029 239.783 178.966C239.783 178.903 248.735 178.856 259.784 178.856C270.832 178.856 279.78 178.928 279.78 178.966Z" fill="#263238"/>
<path d="M280.249 155.629C280.249 155.693 271.136 155.739 259.893 155.739C248.651 155.739 239.538 155.693 239.538 155.629C239.538 155.566 248.651 155.52 259.893 155.52C271.136 155.52 280.249 155.57 280.249 155.629Z" fill="#263238"/>
<path d="M279.873 163.736C279.873 163.795 270.908 163.846 259.847 163.846C248.786 163.846 239.821 163.795 239.821 163.736C239.821 163.677 248.786 163.626 259.847 163.626C270.908 163.626 279.873 163.664 279.873 163.736Z" fill="#263238"/>
<path d="M279.873 122.92C279.764 122.956 279.652 122.984 279.539 123.005C279.234 123.133 278.965 123.334 278.757 123.591C278.203 124.254 277.73 125.456 277.489 126.967C276.91 130.048 276.111 134.268 275.232 138.931C274.353 143.594 273.508 147.793 272.912 150.886C272.607 152.401 272.358 153.629 272.18 154.507C272.096 154.929 272.024 155.245 271.973 155.486C271.953 155.602 271.924 155.717 271.885 155.828C271.889 155.71 271.905 155.593 271.931 155.478C271.973 155.233 272.028 154.904 272.096 154.49C272.256 153.612 272.48 152.38 272.755 150.861C273.338 147.78 274.133 143.556 275.016 138.893C275.9 134.23 276.737 130.031 277.337 126.942C277.616 125.402 278.119 124.19 278.706 123.524C278.933 123.261 279.224 123.063 279.552 122.95C279.666 122.929 279.755 122.92 279.814 122.912C279.873 122.903 279.873 122.916 279.873 122.92Z" fill="#455A64"/>
<path d="M245.295 137.699L247.011 134.951L249.42 135.572L248.05 138.69L245.295 137.699Z" fill="#263238"/>
<path d="M283.415 79.7411H280.241V184.692H283.415V79.7411Z" fill="#5E53B8"/>
<path d="M283.415 184.692C283.415 184.692 283.415 184.507 283.415 184.148C283.415 183.789 283.415 183.253 283.415 182.561C283.415 181.165 283.415 179.109 283.415 176.463C283.415 171.172 283.394 163.512 283.381 154.034C283.381 135.086 283.351 108.88 283.335 79.7622L283.444 79.8719H280.228L280.338 79.7622C280.296 130.854 280.262 173.636 280.253 184.714L280.228 184.688H282.62H283.402C283.402 184.688 283.157 184.688 282.637 184.688H280.228V184.663C280.228 173.59 280.186 130.803 280.143 79.7115V79.6018H283.525V79.7579C283.525 108.914 283.491 135.167 283.483 154.131C283.483 163.601 283.457 171.248 283.449 176.535C283.449 179.173 283.449 181.215 283.449 182.608C283.449 183.296 283.449 183.823 283.449 184.182C283.449 184.541 283.415 184.692 283.415 184.692Z" fill="#263238"/>
<path d="M249.521 136.163L246.985 135.297C246.901 135.271 246.824 135.228 246.757 135.17C246.69 135.113 246.635 135.043 246.595 134.965C246.556 134.886 246.533 134.8 246.527 134.712C246.522 134.625 246.534 134.536 246.563 134.453C246.59 134.37 246.634 134.293 246.692 134.227C246.749 134.161 246.819 134.107 246.898 134.067C246.976 134.028 247.062 134.005 247.149 133.999C247.237 133.993 247.325 134.004 247.408 134.031L249.944 134.897C250.027 134.924 250.104 134.968 250.171 135.025C250.237 135.083 250.291 135.153 250.331 135.231C250.37 135.309 250.393 135.395 250.399 135.482C250.406 135.57 250.394 135.657 250.367 135.741C250.339 135.824 250.295 135.901 250.238 135.967C250.18 136.033 250.11 136.087 250.032 136.127C249.953 136.166 249.868 136.189 249.78 136.195C249.692 136.201 249.605 136.19 249.521 136.163Z" fill="#5E53B8"/>
<path d="M284.928 108.479C284.877 108.45 286.593 105.479 288.762 101.854C290.93 98.2289 292.731 95.3044 292.781 95.3382C292.832 95.3719 291.12 98.3344 288.952 101.964C286.784 105.593 284.979 108.509 284.928 108.479Z" fill="#263238"/>
<path d="M285.038 103.348C285.136 103.159 285.252 102.979 285.385 102.812L286.378 101.381C287.223 100.174 288.339 98.4906 289.518 96.5873C290.697 94.6841 291.699 92.9202 292.409 91.6373C292.747 91.0212 293.026 90.5063 293.255 90.1096C293.349 89.9179 293.459 89.7344 293.584 89.561C293.518 89.7652 293.433 89.963 293.331 90.1518C293.157 90.5232 292.908 91.0549 292.557 91.709C291.885 93.0172 290.9 94.7938 289.721 96.7055C288.542 98.6172 287.384 100.288 286.517 101.474C286.095 102.065 285.723 102.542 285.465 102.862C285.338 103.037 285.195 103.2 285.038 103.348Z" fill="#263238"/>
<path d="M236.402 148.763C236.343 148.763 236.292 133.323 236.292 114.278C236.292 95.2328 236.343 79.7876 236.402 79.7876C236.461 79.7876 236.512 95.2286 236.512 114.278C236.512 133.327 236.461 148.763 236.402 148.763Z" fill="#263238"/>
<path d="M117.451 175.974C117.895 176.185 118.292 176.484 118.619 176.853C118.945 177.221 119.193 177.651 119.348 178.118C119.659 179.058 119.75 180.057 119.615 181.038C119.403 182.924 118.347 184.836 117.176 186.334C115.582 184.95 115.219 182.536 115.109 181.295C114.94 179.337 115.819 175.7 117.467 175.991" fill="#455A64"/>
<path d="M117.159 186.351C116.005 185.347 115.291 183.604 115.092 181.287C114.965 179.848 115.426 177.253 116.466 176.303C116.593 176.172 116.751 176.074 116.924 176.016C117.098 175.958 117.282 175.942 117.463 175.97C117.909 176.181 118.308 176.48 118.635 176.849C118.962 177.218 119.21 177.65 119.365 178.118C119.675 179.056 119.761 180.052 119.619 181.03C119.488 182.161 118.959 183.984 117.176 186.33L117.159 186.351ZM117.265 175.987C116.967 175.995 116.684 176.118 116.474 176.329C115.439 177.274 114.978 179.856 115.105 181.295C115.303 183.578 116.013 185.317 117.155 186.317C118.934 183.996 119.462 182.165 119.589 181.038C119.731 180.065 119.645 179.072 119.336 178.139C119.182 177.673 118.936 177.243 118.611 176.875C118.286 176.507 117.89 176.209 117.446 175.999C117.386 175.987 117.326 175.978 117.265 175.974V175.987Z" fill="#263238"/>
<path d="M119.006 189.444C118.9 188.907 118.937 188.351 119.114 187.833C119.29 187.315 119.6 186.852 120.012 186.49C120.433 186.136 120.92 185.87 121.446 185.706C121.971 185.542 122.524 185.485 123.072 185.537C123.326 185.533 123.578 185.586 123.809 185.69C124.041 185.794 124.246 185.948 124.412 186.14C124.532 186.345 124.596 186.578 124.596 186.815C124.596 187.053 124.532 187.286 124.412 187.49C124.172 187.896 123.829 188.233 123.419 188.465C122.041 189.309 120.549 189.913 118.993 189.444" fill="#455A64"/>
<path d="M120.13 189.622C119.748 189.622 119.368 189.566 119.002 189.457C118.882 188.919 118.917 188.359 119.103 187.841C119.289 187.319 119.603 186.852 120.016 186.482C120.437 186.127 120.925 185.859 121.452 185.696C121.978 185.532 122.532 185.475 123.08 185.528C123.336 185.52 123.591 185.571 123.824 185.675C124.058 185.78 124.264 185.936 124.429 186.132C124.556 186.335 124.625 186.57 124.629 186.81C124.633 187.05 124.571 187.287 124.45 187.495C124.211 187.907 123.865 188.249 123.448 188.482C122.21 189.246 121.132 189.622 120.13 189.622ZM119.014 189.436C120.329 189.828 121.732 189.52 123.427 188.457C123.841 188.225 124.185 187.887 124.425 187.478C124.541 187.273 124.601 187.04 124.597 186.804C124.594 186.568 124.527 186.337 124.403 186.136C124.24 185.944 124.036 185.791 123.805 185.688C123.575 185.585 123.324 185.534 123.072 185.541H122.717C121.731 185.523 120.772 185.865 120.02 186.503C119.61 186.87 119.299 187.335 119.116 187.853C118.932 188.361 118.897 188.909 119.014 189.436Z" fill="#263238"/>
<path d="M116.965 195.226C116.973 195.095 116.993 194.965 117.024 194.837C117.074 194.567 117.138 194.213 117.214 193.791C117.393 192.626 117.758 191.497 118.296 190.449C118.857 189.4 119.687 188.518 120.701 187.895C121.009 187.715 121.338 187.573 121.682 187.473C121.774 187.444 121.869 187.42 121.965 187.402C121.998 187.398 122.032 187.398 122.066 187.402C121.609 187.56 121.169 187.762 120.752 188.005C119.772 188.639 118.969 189.51 118.419 190.537C117.888 191.575 117.514 192.686 117.311 193.833C117.214 194.255 117.138 194.626 117.074 194.871C117.051 194.993 117.014 195.112 116.965 195.226Z" fill="#263238"/>
<path d="M117.028 178.823C117.033 178.879 117.033 178.935 117.028 178.991C117.028 179.114 117.028 179.278 117.058 179.477C117.079 179.899 117.104 180.511 117.129 181.266C117.18 182.777 117.218 184.861 117.205 187.174C117.193 189.486 117.142 191.567 117.079 193.082C117.049 193.837 117.015 194.445 116.99 194.867C116.99 195.07 116.965 195.23 116.956 195.352C116.948 195.475 116.956 195.525 116.935 195.521C116.93 195.465 116.93 195.408 116.935 195.352C116.935 195.226 116.935 195.065 116.935 194.867C116.935 194.445 116.96 193.82 116.977 193.078C117.015 191.567 117.053 189.482 117.066 187.17C117.079 184.857 117.066 182.777 117.028 181.262C117.028 180.519 117.007 179.911 116.998 179.472V178.987C116.999 178.931 117.009 178.875 117.028 178.823Z" fill="#263238"/>
<path d="M116.254 190.592C116.061 189.451 115.599 188.372 114.906 187.445C114.213 186.518 113.309 185.768 112.269 185.258C111.736 185.001 111.043 184.836 110.608 185.233C110.172 185.629 110.265 186.334 110.481 186.883C110.949 188.023 111.746 188.998 112.77 189.685C113.794 190.373 114.999 190.741 116.233 190.744" fill="#455A64"/>
<path d="M116.153 190.744C114.93 190.723 113.739 190.344 112.729 189.655C111.719 188.966 110.933 187.996 110.468 186.866C110.337 186.524 110.079 185.672 110.599 185.203C110.806 185.013 111.305 184.781 112.29 185.203C113.332 185.715 114.238 186.468 114.932 187.398C115.625 188.328 116.087 189.41 116.28 190.554H116.233C116.049 189.411 115.588 188.33 114.889 187.406C114.201 186.476 113.297 185.726 112.256 185.22C111.297 184.764 110.811 185.005 110.603 185.191C110.396 185.376 110.084 185.811 110.481 186.836C110.944 187.962 111.727 188.927 112.734 189.613C113.74 190.298 114.926 190.674 116.145 190.693H116.233L116.153 190.744Z" fill="#263238"/>
<path d="M112.527 187.039C112.642 187.078 112.754 187.128 112.86 187.187C112.993 187.246 113.121 187.314 113.245 187.389C113.385 187.478 113.558 187.566 113.727 187.693C113.92 187.824 114.106 187.965 114.285 188.115C114.484 188.271 114.674 188.457 114.877 188.651C115.302 189.088 115.677 189.571 115.997 190.09C116.31 190.621 116.558 191.188 116.736 191.778C116.814 192.033 116.876 192.292 116.922 192.554C116.969 192.781 117.001 193.011 117.019 193.242C117.04 193.431 117.048 193.622 117.045 193.812C117.056 193.952 117.056 194.093 117.045 194.234C117.042 194.357 117.03 194.48 117.007 194.601C116.973 194.601 117.028 194.078 116.935 193.242C116.912 193.015 116.875 192.79 116.825 192.567C116.773 192.311 116.708 192.057 116.631 191.807C116.265 190.659 115.637 189.612 114.796 188.748C114.614 188.559 114.422 188.38 114.221 188.212C114.05 188.062 113.871 187.921 113.685 187.79C112.991 187.284 112.51 187.068 112.527 187.039Z" fill="#263238"/>
<path d="M163.094 107.922H160.618V195.302H163.094V107.922Z" fill="#E0E0E0"/>
<path d="M163.09 195.297C163.09 195.297 163.09 195.141 163.09 194.842C163.09 194.542 163.09 194.099 163.09 193.521C163.09 192.352 163.09 190.643 163.09 188.457C163.09 184.047 163.069 177.671 163.056 169.775C163.056 154.001 163.031 132.175 163.01 107.939L163.12 108.049H160.613L160.723 107.939C160.723 150.599 160.685 186.305 160.639 195.314L160.613 195.293H162.473H163.086C163.086 195.293 162.896 195.293 162.486 195.293H160.613V195.268C160.563 186.258 160.529 150.536 160.529 107.914V107.804H163.221V107.914C163.221 132.179 163.187 154.039 163.179 169.834C163.179 177.717 163.153 184.085 163.145 188.486C163.145 190.681 163.145 192.381 163.145 193.55C163.145 194.12 163.145 194.559 163.145 194.859C163.145 195.158 163.09 195.297 163.09 195.297Z" fill="#263238"/>
<path d="M171.573 82.1973H151.103C150.184 82.1973 149.438 82.9417 149.438 83.8599V108.505C149.438 109.423 150.184 110.167 151.103 110.167H171.573C172.493 110.167 173.238 109.423 173.238 108.505V83.8599C173.238 82.9417 172.493 82.1973 171.573 82.1973Z" fill="white"/>
<path d="M171.573 110.167C171.573 110.167 171.662 110.167 171.831 110.134C172.158 110.078 172.461 109.925 172.7 109.694C172.939 109.464 173.103 109.167 173.171 108.842C173.205 108.584 173.215 108.322 173.2 108.062C173.2 107.779 173.2 107.479 173.2 107.159C173.2 104.605 173.2 100.926 173.166 96.3806C173.166 94.1018 173.166 91.612 173.166 88.9323C173.166 87.5946 173.166 86.2104 173.166 84.7883C173.166 84.4338 173.166 84.0624 173.166 83.7206C173.136 83.3742 172.991 83.0477 172.753 82.7932C172.516 82.5386 172.2 82.3704 171.856 82.3154C171.675 82.2953 171.493 82.2883 171.311 82.2943H170.715H151.108C150.905 82.2926 150.704 82.3308 150.516 82.4067C150.328 82.4825 150.157 82.5946 150.013 82.7364C149.868 82.8783 149.753 83.0472 149.674 83.2334C149.595 83.4197 149.554 83.6196 149.552 83.8219C149.552 84.6659 149.552 85.5169 149.552 86.375V91.3715C149.552 94.6462 149.552 97.807 149.552 100.816C149.552 102.321 149.552 103.787 149.552 105.213V107.323C149.552 107.669 149.552 108.015 149.552 108.353C149.532 108.676 149.605 108.998 149.763 109.281C149.92 109.556 150.157 109.776 150.444 109.91C150.729 110.042 151.044 110.097 151.357 110.07H156.852L167.651 110.108H170.584H171.349C171.522 110.108 171.607 110.108 171.607 110.108H171.349H170.584L167.651 110.129L156.852 110.163H153.276H151.37C151.029 110.189 150.688 110.129 150.376 109.99C150.059 109.838 149.796 109.594 149.62 109.29C149.443 108.979 149.359 108.625 149.379 108.268V107.239C149.379 106.551 149.379 105.846 149.379 105.129C149.379 103.702 149.379 102.237 149.379 100.731C149.379 97.7226 149.379 94.5618 149.379 91.2871C149.379 89.6497 149.379 87.9842 149.379 86.2906C149.379 85.4466 149.379 84.6026 149.379 83.7375C149.383 83.2711 149.573 82.8255 149.905 82.4981C150.238 82.1707 150.687 81.9882 151.154 81.9904H170.762H171.324C171.516 81.9823 171.708 81.9908 171.898 82.0158C172.29 82.0747 172.649 82.2653 172.917 82.5559C173.18 82.8441 173.342 83.21 173.378 83.5983C173.378 83.9738 173.378 84.3199 173.378 84.6828C173.378 86.1049 173.378 87.4891 173.378 88.8268C173.378 91.5065 173.378 93.9963 173.378 96.2751C173.378 100.82 173.348 104.5 173.34 107.053C173.34 107.374 173.34 107.673 173.34 107.956C173.352 108.221 173.338 108.487 173.298 108.749C173.228 109.084 173.056 109.389 172.805 109.622C172.555 109.855 172.238 110.004 171.898 110.049C171.797 110.107 171.687 110.147 171.573 110.167Z" fill="#263238"/>
<path d="M167.642 87.8014H155.516C155.177 87.8014 154.903 88.0753 154.903 88.4133V104.065C154.903 104.403 155.177 104.677 155.516 104.677H167.642C167.981 104.677 168.255 104.403 168.255 104.065V88.4133C168.255 88.0753 167.981 87.8014 167.642 87.8014Z" fill="#5E53B8"/>
<path d="M155.144 91.0508H154.73C154.284 91.0508 153.922 91.4117 153.922 91.8568V95.1526C153.922 95.5978 154.284 95.9586 154.73 95.9586H155.144C155.59 95.9586 155.951 95.5978 155.951 95.1526V91.8568C155.951 91.4117 155.59 91.0508 155.144 91.0508Z" fill="#5E53B8"/>
<path d="M168.496 91.0508H168.082C167.636 91.0508 167.275 91.4117 167.275 91.8568V95.1526C167.275 95.5978 167.636 95.9586 168.082 95.9586H168.496C168.942 95.9586 169.303 95.5978 169.303 95.1526V91.8568C169.303 91.4117 168.942 91.0508 168.496 91.0508Z" fill="#5E53B8"/>
<path d="M166.67 91.0508H156.488V97.4103H166.67V91.0508Z" fill="white"/>
<path d="M165.334 101.474C166.07 101.474 166.666 100.879 166.666 100.145C166.666 99.4107 166.07 98.8156 165.334 98.8156C164.599 98.8156 164.003 99.4107 164.003 100.145C164.003 100.879 164.599 101.474 165.334 101.474Z" fill="white"/>
<path d="M157.879 101.474C158.614 101.474 159.21 100.879 159.21 100.145C159.21 99.4107 158.614 98.8156 157.879 98.8156C157.143 98.8156 156.547 99.4107 156.547 100.145C156.547 100.879 157.143 101.474 157.879 101.474Z" fill="white"/>
<path d="M155.816 102.858H158.196V105.58C158.196 105.831 158.096 106.071 157.918 106.249C157.741 106.426 157.5 106.525 157.249 106.525H156.763C156.512 106.525 156.271 106.426 156.093 106.249C155.916 106.071 155.816 105.831 155.816 105.58V102.858Z" fill="#5E53B8"/>
<path d="M164.607 102.858H166.987V105.58C166.987 105.831 166.887 106.071 166.71 106.249C166.532 106.426 166.291 106.525 166.04 106.525H165.554C165.303 106.525 165.062 106.426 164.885 106.249C164.707 106.071 164.607 105.831 164.607 105.58V102.858Z" fill="#5E53B8"/>
<path d="M164.147 89.194H159.016V89.7594H164.147V89.194Z" fill="white"/>
</svg>
