<svg width="308" height="205" viewBox="0 0 308 205" fill="none" xmlns="http://www.w3.org/2000/svg">
<path d="M276.68 130.948H202.454C201.126 130.948 200.046 129.87 200.046 128.545V20.6026C200.046 19.2773 201.126 18.1992 202.454 18.1992H276.68C278.007 18.1992 279.087 19.2773 279.087 20.6026V128.545C279.087 129.87 278.007 130.948 276.68 130.948ZM202.454 18.3017C201.183 18.3017 200.149 19.3339 200.149 20.6026V128.545C200.149 129.814 201.183 130.846 202.454 130.846H276.68C277.951 130.846 278.985 129.814 278.985 128.545V20.6026C278.985 19.3339 277.951 18.3017 276.68 18.3017H202.454Z" fill="#E0E0E0"/>
<path d="M191.086 130.948H116.859C115.532 130.948 114.452 129.87 114.452 128.545V20.6026C114.452 19.2773 115.532 18.1992 116.859 18.1992H191.086C192.413 18.1992 193.493 19.2773 193.493 20.6026V128.545C193.493 129.87 192.413 130.948 191.086 130.948ZM116.859 18.3017C115.588 18.3017 114.555 19.3339 114.555 20.6026V128.545C114.555 129.814 115.588 130.846 116.859 130.846H191.086C192.357 130.846 193.391 129.814 193.391 128.545V20.6026C193.391 19.3339 192.357 18.3017 191.086 18.3017H116.859Z" fill="#E0E0E0"/>
<path d="M105.546 130.948H31.3198C29.9924 130.948 28.9126 129.87 28.9126 128.545V20.6026C28.9126 19.2773 29.9924 18.1992 31.3198 18.1992H105.546C106.874 18.1992 107.954 19.2773 107.954 20.6026V128.545C107.954 129.87 106.874 130.948 105.546 130.948ZM31.3198 18.3017C30.0492 18.3017 29.0153 19.3339 29.0153 20.6026V128.545C29.0153 129.814 30.0492 130.846 31.3198 130.846H105.546C106.817 130.846 107.851 129.814 107.851 128.545V20.6026C107.851 19.3339 106.817 18.3017 105.546 18.3017H31.3198Z" fill="#E0E0E0"/>
<path d="M308 155.987H0V156.036H308V155.987Z" fill="#E0E0E0"/>
<path d="M291.309 168.031H268.423V168.203H291.309V168.031Z" fill="#EBEBEB"/>
<path d="M209.305 169.903H203.298V170.075H209.305V169.903Z" fill="#EBEBEB"/>
<path d="M46.5364 162.784H16.6914V162.956H46.5364V162.784Z" fill="#EBEBEB"/>
<path d="M57.0641 162.784H52.6882V162.956H57.0641V162.784Z" fill="#EBEBEB"/>
<path d="M136.012 165.697H71.2859V165.869H136.012V165.697Z" fill="#EBEBEB"/>
<path d="M136.469 31.6775C135.59 31.0147 134.308 30.9396 133.358 31.4953C132.097 28.9506 128.582 27.8276 126.075 29.1684C125.421 26.4263 122.715 24.3186 119.892 24.3525C117.069 24.3864 114.414 26.5584 113.827 29.3155C113.733 29.7536 113.672 30.2336 113.358 30.5537C112.848 31.0736 111.996 30.8992 111.27 30.8425C108.983 30.6645 106.683 32.2671 106.061 34.4708L137.547 34.3564C137.822 33.2921 137.348 32.3403 136.469 31.6775Z" fill="#E6E6E6"/>
<path d="M168.927 45.8275C168.369 45.4072 167.557 45.3596 166.954 45.7119C166.154 44.0984 163.926 43.3863 162.336 44.2364C161.921 42.4977 160.205 41.1613 158.415 41.1827C156.625 41.2042 154.942 42.5815 154.569 44.3297C154.51 44.6075 154.471 44.9119 154.272 45.1149C153.949 45.4446 153.409 45.3339 152.948 45.298C151.498 45.1851 150.04 46.2013 149.645 47.5987L169.61 47.5261C169.785 46.8512 169.484 46.2477 168.927 45.8275Z" fill="#E6E6E6"/>
<path d="M227.358 27.6403C226.801 27.22 225.988 27.1724 225.386 27.5248C224.586 25.9112 222.357 25.1992 220.768 26.0493C220.353 24.3106 218.637 22.9742 216.847 22.9956C215.057 23.0171 213.374 24.3944 213.001 26.1426C212.942 26.4204 212.903 26.7248 212.704 26.9277C212.38 27.2574 211.84 27.1468 211.38 27.1109C209.93 26.998 208.471 28.0141 208.077 29.4115L228.042 29.339C228.216 28.6641 227.915 28.0606 227.358 27.6403Z" fill="#F5F5F5"/>
<path d="M48.9408 38.8064C48.0621 38.1437 46.7802 38.0685 45.8299 38.6243C44.5687 36.0795 41.0537 34.9565 38.547 36.2973C37.893 33.5552 35.1869 31.4475 32.3638 31.4814C29.5406 31.5153 26.8861 33.6873 26.2985 36.4444C26.2051 36.8825 26.1432 37.3625 25.8293 37.6826C25.3194 38.2025 24.4681 38.0281 23.7414 37.9715C21.4551 37.7934 19.1545 39.396 18.5327 41.5997L50.0183 41.4853C50.2941 40.421 49.8195 39.4692 48.9408 38.8064Z" fill="#E6E6E6"/>
<path d="M88.3955 55.1241C87.7993 54.6743 86.9293 54.6234 86.2845 55.0005C85.4286 53.2737 83.0434 52.5115 81.3423 53.4214C80.8985 51.5606 79.0622 50.1303 77.1464 50.1533C75.2307 50.1764 73.4293 51.6503 73.0305 53.5212C72.9672 53.8185 72.9252 54.1443 72.7122 54.3615C72.3662 54.7143 71.7884 54.5959 71.2953 54.5575C69.7438 54.4367 68.1827 55.5241 67.7607 57.0196L89.1267 56.942C89.3138 56.2197 88.9918 55.5738 88.3955 55.1241Z" fill="#F5F5F5"/>
<path d="M66.9893 91.1686C66.3931 90.7188 65.5231 90.6679 64.8783 91.045C64.0224 89.3182 61.6372 88.5561 59.9361 89.4659C59.4923 87.6051 57.6559 86.1749 55.7402 86.1979C53.8244 86.2209 52.0231 87.6949 51.6243 89.5658C51.5609 89.8631 51.5189 90.1888 51.3059 90.406C50.9599 90.7589 50.3822 90.6405 49.8891 90.602C48.3376 90.4812 46.7765 91.5687 46.3545 93.0641L67.7205 92.9865C67.9076 92.2642 67.5855 91.6183 66.9893 91.1686Z" fill="#F5F5F5"/>
<path d="M287.508 44.9602C286.912 44.5105 286.042 44.4595 285.397 44.8366C284.541 43.1098 282.156 42.3477 280.455 43.2575C280.011 41.3968 278.175 39.9665 276.259 39.9895C274.343 40.0125 272.542 41.4865 272.143 43.3574C272.08 43.6547 272.038 43.9805 271.825 44.1976C271.479 44.5505 270.901 44.4321 270.408 44.3936C268.857 44.2728 267.295 45.3603 266.874 46.8558L288.24 46.7781C288.427 46.0559 288.105 45.41 287.508 44.9602Z" fill="#F5F5F5"/>
<path d="M273.951 91.4226L273.605 73.2935H262.974V77.4279H255.147V32.1416H240.097V49.9659H235.582V41.0652H223.839V84.4729H207.28V69.1365H196.898V35.8848H184.085V58.0526H172.042V105.808H162.711V82.5536H153.076V67.5901H142.841V56.1014L131.422 61.8594V92.596H119.379V86.2559H103.292V130.805L290.543 130.892V91.4226H273.951Z" fill="#EBEBEB"/>
<path d="M153.861 130.829V64.5474H141.066V130.892C145.116 130.796 153.861 130.829 153.861 130.829Z" fill="#E6E6E6"/>
<path d="M142.208 130.892V94.4381H115.877V130.811L142.208 130.892Z" fill="#FAFAFA"/>
<path d="M174.202 130.838V77.3232H159.285V130.831L174.202 130.838Z" fill="#E0E0E0"/>
<path d="M162.226 79.4199H160.418V82.9857H162.226V79.4199Z" fill="#FAFAFA"/>
<path d="M165.842 79.4199H164.034V82.9857H165.842V79.4199Z" fill="#FAFAFA"/>
<path d="M169.458 79.4199H167.65V82.9857H169.458V79.4199Z" fill="#FAFAFA"/>
<path d="M173.074 79.4199H171.266V82.9857H173.074V79.4199Z" fill="#FAFAFA"/>
<path d="M162.226 85.4008H160.418V88.9665H162.226V85.4008Z" fill="#FAFAFA"/>
<path d="M165.842 85.4008H164.034V88.9665H165.842V85.4008Z" fill="#FAFAFA"/>
<path d="M169.458 85.4008H167.65V88.9665H169.458V85.4008Z" fill="#FAFAFA"/>
<path d="M173.074 85.4008H171.266V88.9665H173.074V85.4008Z" fill="#FAFAFA"/>
<path d="M162.226 91.3771H160.418V94.9428H162.226V91.3771Z" fill="#FAFAFA"/>
<path d="M165.842 91.3771H164.034V94.9428H165.842V91.3771Z" fill="#FAFAFA"/>
<path d="M169.458 91.3771H167.65V94.9428H169.458V91.3771Z" fill="#FAFAFA"/>
<path d="M173.074 91.3771H171.266V94.9428H173.074V91.3771Z" fill="#FAFAFA"/>
<path d="M162.226 97.3534H160.418V100.919H162.226V97.3534Z" fill="#FAFAFA"/>
<path d="M165.842 97.3534H164.034V100.919H165.842V97.3534Z" fill="#FAFAFA"/>
<path d="M169.458 97.3534H167.65V100.919H169.458V97.3534Z" fill="#FAFAFA"/>
<path d="M173.074 97.3534H171.266V100.919H173.074V97.3534Z" fill="#FAFAFA"/>
<path d="M162.226 103.33H160.418V106.895H162.226V103.33Z" fill="#FAFAFA"/>
<path d="M165.842 103.33H164.034V106.895H165.842V103.33Z" fill="#FAFAFA"/>
<path d="M169.458 103.33H167.65V106.895H169.458V103.33Z" fill="#FAFAFA"/>
<path d="M173.074 103.33H171.266V106.895H173.074V103.33Z" fill="#FAFAFA"/>
<path d="M162.226 109.306H160.418V112.872H162.226V109.306Z" fill="#FAFAFA"/>
<path d="M165.842 109.306H164.034V112.872H165.842V109.306Z" fill="#FAFAFA"/>
<path d="M169.458 109.306H167.65V112.872H169.458V109.306Z" fill="#FAFAFA"/>
<path d="M173.074 109.306H171.266V112.872H173.074V109.306Z" fill="#FAFAFA"/>
<path d="M162.226 115.282H160.418V118.848H162.226V115.282Z" fill="#FAFAFA"/>
<path d="M165.842 115.282H164.034V118.848H165.842V115.282Z" fill="#FAFAFA"/>
<path d="M169.458 115.282H167.65V118.848H169.458V115.282Z" fill="#FAFAFA"/>
<path d="M173.074 115.282H171.266V118.848H173.074V115.282Z" fill="#FAFAFA"/>
<path d="M162.226 121.263H160.418V124.829H162.226V121.263Z" fill="#FAFAFA"/>
<path d="M165.842 121.263H164.034V124.829H165.842V121.263Z" fill="#FAFAFA"/>
<path d="M169.458 121.263H167.65V124.829H169.458V121.263Z" fill="#FAFAFA"/>
<path d="M173.074 121.263H171.266V124.829H173.074V121.263Z" fill="#FAFAFA"/>
<path d="M226.037 130.862V69.7004H195.109V130.883C195.109 130.883 225.8 130.892 226.037 130.862Z" fill="#F5F5F5"/>
<path d="M201.18 72.1383H197.431V76.2453H201.18V72.1383Z" fill="#E6E6E6"/>
<path d="M208.684 72.1383H204.935V76.2453H208.684V72.1383Z" fill="#E6E6E6"/>
<path d="M216.183 72.1383H212.433V76.2453H216.183V72.1383Z" fill="#E6E6E6"/>
<path d="M223.686 72.1383H219.937V76.2453H223.686V72.1383Z" fill="#E6E6E6"/>
<path d="M201.18 79.0288H197.431V83.1358H201.18V79.0288Z" fill="#E6E6E6"/>
<path d="M208.684 79.0288H204.935V83.1358H208.684V79.0288Z" fill="#E6E6E6"/>
<path d="M216.183 79.0288H212.433V83.1358H216.183V79.0288Z" fill="#E6E6E6"/>
<path d="M223.686 79.0288H219.937V83.1358H223.686V79.0288Z" fill="#E6E6E6"/>
<path d="M201.18 85.9147H197.431V90.0217H201.18V85.9147Z" fill="#E6E6E6"/>
<path d="M208.684 85.9147H204.935V90.0217H208.684V85.9147Z" fill="#E6E6E6"/>
<path d="M216.183 85.9147H212.433V90.0217H216.183V85.9147Z" fill="#E6E6E6"/>
<path d="M223.686 85.9147H219.937V90.0217H223.686V85.9147Z" fill="#E6E6E6"/>
<path d="M201.18 92.8007H197.431V96.9077H201.18V92.8007Z" fill="#E6E6E6"/>
<path d="M208.684 92.8007H204.935V96.9077H208.684V92.8007Z" fill="#E6E6E6"/>
<path d="M216.183 92.8007H212.433V96.9077H216.183V92.8007Z" fill="#E6E6E6"/>
<path d="M223.686 92.8007H219.937V96.9077H223.686V92.8007Z" fill="#E6E6E6"/>
<path d="M201.18 99.6912H197.431V103.798H201.18V99.6912Z" fill="#E6E6E6"/>
<path d="M208.684 99.6912H204.935V103.798H208.684V99.6912Z" fill="#E6E6E6"/>
<path d="M216.183 99.6912H212.433V103.798H216.183V99.6912Z" fill="#E6E6E6"/>
<path d="M223.686 99.6912H219.937V103.798H223.686V99.6912Z" fill="#E6E6E6"/>
<path d="M201.18 106.577H197.431V110.684H201.18V106.577Z" fill="#E6E6E6"/>
<path d="M208.684 106.577H204.935V110.684H208.684V106.577Z" fill="#E6E6E6"/>
<path d="M216.183 106.577H212.433V110.684H216.183V106.577Z" fill="#E6E6E6"/>
<path d="M223.686 106.577H219.937V110.684H223.686V106.577Z" fill="#E6E6E6"/>
<path d="M201.18 113.468H197.431V117.575H201.18V113.468Z" fill="#E6E6E6"/>
<path d="M208.684 113.468H204.935V117.575H208.684V113.468Z" fill="#E6E6E6"/>
<path d="M216.183 113.468H212.433V117.575H216.183V113.468Z" fill="#E6E6E6"/>
<path d="M223.686 113.468H219.937V117.575H223.686V113.468Z" fill="#E6E6E6"/>
<path d="M201.18 120.354H197.431V124.461H201.18V120.354Z" fill="#E6E6E6"/>
<path d="M208.684 120.354H204.935V124.461H208.684V120.354Z" fill="#E6E6E6"/>
<path d="M216.183 120.354H212.433V124.461H216.183V120.354Z" fill="#E6E6E6"/>
<path d="M223.686 120.354H219.937V124.461H223.686V120.354Z" fill="#E6E6E6"/>
<path d="M146.881 69.0524H143.426V72.837H146.881V69.0524Z" fill="#FAFAFA"/>
<path d="M146.881 75.3978H143.426V79.1824H146.881V75.3978Z" fill="#FAFAFA"/>
<path d="M146.881 81.7474H143.426V85.532H146.881V81.7474Z" fill="#FAFAFA"/>
<path d="M146.881 88.0929H143.426V91.8775H146.881V88.0929Z" fill="#FAFAFA"/>
<path d="M146.881 94.4382H143.426V98.2229H146.881V94.4382Z" fill="#FAFAFA"/>
<path d="M146.881 100.788H143.426V104.573H146.881V100.788Z" fill="#FAFAFA"/>
<path d="M146.881 107.133H143.426V110.918H146.881V107.133Z" fill="#FAFAFA"/>
<path d="M146.881 113.483H143.426V117.268H146.881V113.483Z" fill="#FAFAFA"/>
<path d="M151.502 69.0524H148.047V72.837H151.502V69.0524Z" fill="#FAFAFA"/>
<path d="M151.502 75.3978H148.047V79.1824H151.502V75.3978Z" fill="#FAFAFA"/>
<path d="M151.502 81.7474H148.047V85.532H151.502V81.7474Z" fill="#FAFAFA"/>
<path d="M151.502 88.0929H148.047V91.8775H151.502V88.0929Z" fill="#FAFAFA"/>
<path d="M151.502 94.4382H148.047V98.2229H151.502V94.4382Z" fill="#FAFAFA"/>
<path d="M151.502 100.788H148.047V104.573H151.502V100.788Z" fill="#FAFAFA"/>
<path d="M151.502 107.133H148.047V110.918H151.502V107.133Z" fill="#FAFAFA"/>
<path d="M151.502 113.483H148.047V117.268H151.502V113.483Z" fill="#FAFAFA"/>
<path d="M190.765 40.2836H187.016V44.3906H190.765V40.2836Z" fill="#FAFAFA"/>
<path d="M190.765 47.1694H187.016V51.2764H190.765V47.1694Z" fill="#FAFAFA"/>
<path d="M190.765 53.5863H187.016V57.6933H190.765V53.5863Z" fill="#FAFAFA"/>
<path d="M190.765 60.4722H187.016V64.5792H190.765V60.4722Z" fill="#FAFAFA"/>
<path d="M190.765 67.3582H187.016V71.4652H190.765V67.3582Z" fill="#FAFAFA"/>
<path d="M190.765 74.2487H187.016V78.3557H190.765V74.2487Z" fill="#FAFAFA"/>
<path d="M190.765 81.1346H187.016V85.2416H190.765V81.1346Z" fill="#FAFAFA"/>
<path d="M190.765 88.0251H187.016V92.1321H190.765V88.0251Z" fill="#FAFAFA"/>
<path d="M247.087 34.3112H243.337V38.4181H247.087V34.3112Z" fill="#FAFAFA"/>
<path d="M247.087 41.1971H243.337V45.3042H247.087V41.1971Z" fill="#FAFAFA"/>
<path d="M247.087 48.0875H243.337V52.1945H247.087V48.0875Z" fill="#FAFAFA"/>
<path d="M247.087 54.9735H243.337V59.0806H247.087V54.9735Z" fill="#FAFAFA"/>
<path d="M247.087 61.8639H243.337V65.9709H247.087V61.8639Z" fill="#FAFAFA"/>
<path d="M247.087 68.7499H243.337V72.8568H247.087V68.7499Z" fill="#FAFAFA"/>
<path d="M247.087 75.6404H243.337V79.7474H247.087V75.6404Z" fill="#FAFAFA"/>
<path d="M247.087 82.5264H243.337V86.6333H247.087V82.5264Z" fill="#FAFAFA"/>
<path d="M273.951 65.9528H251.369V130.892H273.951V65.9528Z" fill="#E6E6E6"/>
<path d="M261.328 69.1547H254.709V73.2616H261.328V69.1547Z" fill="#FAFAFA"/>
<path d="M261.328 76.0452H254.709V80.1521H261.328V76.0452Z" fill="#FAFAFA"/>
<path d="M261.328 82.9312H254.709V87.0381H261.328V82.9312Z" fill="#FAFAFA"/>
<path d="M261.328 89.8217H254.709V93.9287H261.328V89.8217Z" fill="#FAFAFA"/>
<path d="M261.328 96.7075H254.709V100.815H261.328V96.7075Z" fill="#FAFAFA"/>
<path d="M261.328 103.594H254.709V107.701H261.328V103.594Z" fill="#FAFAFA"/>
<path d="M261.328 110.484H254.709V114.591H261.328V110.484Z" fill="#FAFAFA"/>
<path d="M261.328 117.37H254.709V121.477H261.328V117.37Z" fill="#FAFAFA"/>
<path d="M270.183 69.1547H263.564V73.2616H270.183V69.1547Z" fill="#FAFAFA"/>
<path d="M270.183 76.0452H263.564V80.1521H270.183V76.0452Z" fill="#FAFAFA"/>
<path d="M270.183 82.9312H263.564V87.0381H270.183V82.9312Z" fill="#FAFAFA"/>
<path d="M270.183 89.8217H263.564V93.9287H270.183V89.8217Z" fill="#FAFAFA"/>
<path d="M270.183 96.7075H263.564V100.815H270.183V96.7075Z" fill="#FAFAFA"/>
<path d="M270.183 103.594H263.564V107.701H270.183V103.594Z" fill="#FAFAFA"/>
<path d="M270.183 110.484H263.564V114.591H270.183V110.484Z" fill="#FAFAFA"/>
<path d="M270.183 117.37H263.564V121.477H270.183V117.37Z" fill="#FAFAFA"/>
<path d="M239.055 130.868V85.9147H229.206V130.863L239.055 130.868Z" fill="#E0E0E0"/>
<path d="M231.147 87.734H229.953V90.7949H231.147V87.734Z" fill="#FAFAFA"/>
<path d="M233.536 87.734H232.341V90.7949H233.536V87.734Z" fill="#FAFAFA"/>
<path d="M235.919 87.734H234.725V90.7949H235.919V87.734Z" fill="#FAFAFA"/>
<path d="M238.308 87.734H237.114V90.7949H238.308V87.734Z" fill="#FAFAFA"/>
<path d="M231.147 92.8689H229.953V95.9298H231.147V92.8689Z" fill="#FAFAFA"/>
<path d="M233.536 92.8689H232.341V95.9298H233.536V92.8689Z" fill="#FAFAFA"/>
<path d="M235.919 92.8689H234.725V95.9298H235.919V92.8689Z" fill="#FAFAFA"/>
<path d="M238.308 92.8689H237.114V95.9298H238.308V92.8689Z" fill="#FAFAFA"/>
<path d="M231.147 98.0038H229.953V101.065H231.147V98.0038Z" fill="#FAFAFA"/>
<path d="M233.536 98.0038H232.341V101.065H233.536V98.0038Z" fill="#FAFAFA"/>
<path d="M235.919 98.0038H234.725V101.065H235.919V98.0038Z" fill="#FAFAFA"/>
<path d="M238.308 98.0038H237.114V101.065H238.308V98.0038Z" fill="#FAFAFA"/>
<path d="M231.147 103.139H229.953V106.2H231.147V103.139Z" fill="#FAFAFA"/>
<path d="M233.536 103.139H232.341V106.2H233.536V103.139Z" fill="#FAFAFA"/>
<path d="M235.919 103.139H234.725V106.2H235.919V103.139Z" fill="#FAFAFA"/>
<path d="M238.308 103.139H237.114V106.2H238.308V103.139Z" fill="#FAFAFA"/>
<path d="M231.147 108.278H229.953V111.339H231.147V108.278Z" fill="#FAFAFA"/>
<path d="M233.536 108.278H232.341V111.339H233.536V108.278Z" fill="#FAFAFA"/>
<path d="M235.919 108.278H234.725V111.339H235.919V108.278Z" fill="#FAFAFA"/>
<path d="M238.308 108.278H237.114V111.339H238.308V108.278Z" fill="#FAFAFA"/>
<path d="M231.147 113.413H229.953V116.474H231.147V113.413Z" fill="#FAFAFA"/>
<path d="M233.536 113.413H232.341V116.474H233.536V113.413Z" fill="#FAFAFA"/>
<path d="M235.919 113.413H234.725V116.474H235.919V113.413Z" fill="#FAFAFA"/>
<path d="M238.308 113.413H237.114V116.474H238.308V113.413Z" fill="#FAFAFA"/>
<path d="M231.147 118.548H229.953V121.609H231.147V118.548Z" fill="#FAFAFA"/>
<path d="M233.536 118.548H232.341V121.609H233.536V118.548Z" fill="#FAFAFA"/>
<path d="M235.919 118.548H234.725V121.609H235.919V118.548Z" fill="#FAFAFA"/>
<path d="M238.308 118.548H237.114V121.609H238.308V118.548Z" fill="#FAFAFA"/>
<path d="M231.147 123.683H229.953V126.744H231.147V123.683Z" fill="#FAFAFA"/>
<path d="M233.536 123.683H232.341V126.744H233.536V123.683Z" fill="#FAFAFA"/>
<path d="M235.919 123.683H234.725V126.744H235.919V123.683Z" fill="#FAFAFA"/>
<path d="M238.308 123.683H237.114V126.744H238.308V123.683Z" fill="#FAFAFA"/>
<path d="M121.063 95.9617H117.871V98.5314H121.063V95.9617Z" fill="#E6E6E6"/>
<path d="M127.449 95.9617H124.256V98.5314H127.449V95.9617Z" fill="#E6E6E6"/>
<path d="M133.829 95.9617H130.637V98.5314H133.829V95.9617Z" fill="#E6E6E6"/>
<path d="M140.215 95.9617H137.022V98.5314H140.215V95.9617Z" fill="#E6E6E6"/>
<path d="M121.063 100.269H117.871V102.838H121.063V100.269Z" fill="#E6E6E6"/>
<path d="M127.449 100.269H124.256V102.838H127.449V100.269Z" fill="#E6E6E6"/>
<path d="M133.829 100.269H130.637V102.838H133.829V100.269Z" fill="#E6E6E6"/>
<path d="M140.215 100.269H137.022V102.838H140.215V100.269Z" fill="#E6E6E6"/>
<path d="M121.063 104.576H117.871V107.146H121.063V104.576Z" fill="#E6E6E6"/>
<path d="M127.449 104.576H124.256V107.146H127.449V104.576Z" fill="#E6E6E6"/>
<path d="M133.829 104.576H130.637V107.146H133.829V104.576Z" fill="#E6E6E6"/>
<path d="M140.215 104.576H137.022V107.146H140.215V104.576Z" fill="#E6E6E6"/>
<path d="M121.063 108.883H117.871V111.453H121.063V108.883Z" fill="#E6E6E6"/>
<path d="M127.449 108.883H124.256V111.453H127.449V108.883Z" fill="#E6E6E6"/>
<path d="M133.829 108.883H130.637V111.453H133.829V108.883Z" fill="#E6E6E6"/>
<path d="M140.215 108.883H137.022V111.453H140.215V108.883Z" fill="#E6E6E6"/>
<path d="M121.063 113.186H117.871V115.755H121.063V113.186Z" fill="#E6E6E6"/>
<path d="M127.449 113.186H124.256V115.755H127.449V113.186Z" fill="#E6E6E6"/>
<path d="M133.829 113.186H130.637V115.755H133.829V113.186Z" fill="#E6E6E6"/>
<path d="M140.215 113.186H137.022V115.755H140.215V113.186Z" fill="#E6E6E6"/>
<path d="M121.063 117.493H117.871V120.062H121.063V117.493Z" fill="#E6E6E6"/>
<path d="M127.449 117.493H124.256V120.062H127.449V117.493Z" fill="#E6E6E6"/>
<path d="M133.829 117.493H130.637V120.062H133.829V117.493Z" fill="#E6E6E6"/>
<path d="M140.215 117.493H137.022V120.062H140.215V117.493Z" fill="#E6E6E6"/>
<path d="M121.063 121.8H117.871V124.37H121.063V121.8Z" fill="#E6E6E6"/>
<path d="M127.449 121.8H124.256V124.37H127.449V121.8Z" fill="#E6E6E6"/>
<path d="M133.829 121.8H130.637V124.37H133.829V121.8Z" fill="#E6E6E6"/>
<path d="M140.215 121.8H137.022V124.37H140.215V121.8Z" fill="#E6E6E6"/>
<path d="M106.314 130.85V49.1207H129.095V130.839L106.314 130.85Z" fill="#E0E0E0"/>
<path d="M127.366 52.3229H124.604V57.7686H127.366V52.3229Z" fill="#FAFAFA"/>
<path d="M121.843 52.3229H119.082V57.7686H121.843V52.3229Z" fill="#FAFAFA"/>
<path d="M116.32 52.3229H113.559V57.7686H116.32V52.3229Z" fill="#FAFAFA"/>
<path d="M110.797 52.3229H108.036V57.7686H110.797V52.3229Z" fill="#FAFAFA"/>
<path d="M127.366 61.457H124.604V66.9027H127.366V61.457Z" fill="#FAFAFA"/>
<path d="M121.843 61.457H119.082V66.9027H121.843V61.457Z" fill="#FAFAFA"/>
<path d="M116.32 61.457H113.559V66.9027H116.32V61.457Z" fill="#FAFAFA"/>
<path d="M110.797 61.457H108.036V66.9027H110.797V61.457Z" fill="#FAFAFA"/>
<path d="M127.366 70.5841H124.604V76.0298H127.366V70.5841Z" fill="#FAFAFA"/>
<path d="M121.843 70.5841H119.082V76.0298H121.843V70.5841Z" fill="#FAFAFA"/>
<path d="M116.32 70.5841H113.559V76.0298H116.32V70.5841Z" fill="#FAFAFA"/>
<path d="M110.797 70.5841H108.036V76.0298H110.797V70.5841Z" fill="#FAFAFA"/>
<path d="M127.366 79.7113H124.604V85.157H127.366V79.7113Z" fill="#FAFAFA"/>
<path d="M121.843 79.7113H119.082V85.157H121.843V79.7113Z" fill="#FAFAFA"/>
<path d="M116.32 79.7113H113.559V85.157H116.32V79.7113Z" fill="#FAFAFA"/>
<path d="M110.797 79.7113H108.036V85.157H110.797V79.7113Z" fill="#FAFAFA"/>
<path d="M127.366 88.8384H124.604V94.284H127.366V88.8384Z" fill="#FAFAFA"/>
<path d="M121.843 88.8384H119.082V94.284H121.843V88.8384Z" fill="#FAFAFA"/>
<path d="M116.32 88.8384H113.559V94.284H116.32V88.8384Z" fill="#FAFAFA"/>
<path d="M110.797 88.8384H108.036V94.284H110.797V88.8384Z" fill="#FAFAFA"/>
<path d="M127.366 97.9656H124.604V103.411H127.366V97.9656Z" fill="#FAFAFA"/>
<path d="M121.843 97.9656H119.082V103.411H121.843V97.9656Z" fill="#FAFAFA"/>
<path d="M116.32 97.9656H113.559V103.411H116.32V97.9656Z" fill="#FAFAFA"/>
<path d="M110.797 97.9656H108.036V103.411H110.797V97.9656Z" fill="#FAFAFA"/>
<path d="M127.366 107.093H124.604V112.538H127.366V107.093Z" fill="#FAFAFA"/>
<path d="M121.843 107.093H119.082V112.538H121.843V107.093Z" fill="#FAFAFA"/>
<path d="M116.32 107.093H113.559V112.538H116.32V107.093Z" fill="#FAFAFA"/>
<path d="M110.797 107.093H108.036V112.538H110.797V107.093Z" fill="#FAFAFA"/>
<path d="M127.366 116.227H124.604V121.673H127.366V116.227Z" fill="#FAFAFA"/>
<path d="M121.843 116.227H119.082V121.673H121.843V116.227Z" fill="#FAFAFA"/>
<path d="M116.32 116.227H113.559V121.673H116.32V116.227Z" fill="#FAFAFA"/>
<path d="M110.797 116.227H108.036V121.673H110.797V116.227Z" fill="#FAFAFA"/>
<path d="M74.0637 130.862V69.7004H104.991V130.883C104.991 130.883 74.3007 130.892 74.0637 130.862Z" fill="#F5F5F5"/>
<path d="M102.67 72.1383H98.9202V76.2453H102.67V72.1383Z" fill="#E6E6E6"/>
<path d="M95.1659 72.1383H91.4165V76.2453H95.1659V72.1383Z" fill="#E6E6E6"/>
<path d="M87.6671 72.1383H83.9177V76.2453H87.6671V72.1383Z" fill="#E6E6E6"/>
<path d="M80.1637 72.1383H76.4143V76.2453H80.1637V72.1383Z" fill="#E6E6E6"/>
<path d="M102.67 79.0288H98.9202V83.1358H102.67V79.0288Z" fill="#E6E6E6"/>
<path d="M95.1659 79.0288H91.4165V83.1358H95.1659V79.0288Z" fill="#E6E6E6"/>
<path d="M87.6671 79.0288H83.9177V83.1358H87.6671V79.0288Z" fill="#E6E6E6"/>
<path d="M80.1637 79.0288H76.4143V83.1358H80.1637V79.0288Z" fill="#E6E6E6"/>
<path d="M102.67 85.9147H98.9202V90.0217H102.67V85.9147Z" fill="#E6E6E6"/>
<path d="M95.1659 85.9147H91.4165V90.0217H95.1659V85.9147Z" fill="#E6E6E6"/>
<path d="M87.6671 85.9147H83.9177V90.0217H87.6671V85.9147Z" fill="#E6E6E6"/>
<path d="M80.1637 85.9147H76.4143V90.0217H80.1637V85.9147Z" fill="#E6E6E6"/>
<path d="M102.67 92.8007H98.9202V96.9077H102.67V92.8007Z" fill="#E6E6E6"/>
<path d="M95.1659 92.8007H91.4165V96.9077H95.1659V92.8007Z" fill="#E6E6E6"/>
<path d="M87.6671 92.8007H83.9177V96.9077H87.6671V92.8007Z" fill="#E6E6E6"/>
<path d="M80.1637 92.8007H76.4143V96.9077H80.1637V92.8007Z" fill="#E6E6E6"/>
<path d="M102.67 99.6912H98.9202V103.798H102.67V99.6912Z" fill="#E6E6E6"/>
<path d="M95.1659 99.6912H91.4165V103.798H95.1659V99.6912Z" fill="#E6E6E6"/>
<path d="M87.6671 99.6912H83.9177V103.798H87.6671V99.6912Z" fill="#E6E6E6"/>
<path d="M80.1637 99.6912H76.4143V103.798H80.1637V99.6912Z" fill="#E6E6E6"/>
<path d="M102.67 106.577H98.9202V110.684H102.67V106.577Z" fill="#E6E6E6"/>
<path d="M95.1659 106.577H91.4165V110.684H95.1659V106.577Z" fill="#E6E6E6"/>
<path d="M87.6671 106.577H83.9177V110.684H87.6671V106.577Z" fill="#E6E6E6"/>
<path d="M80.1637 106.577H76.4143V110.684H80.1637V106.577Z" fill="#E6E6E6"/>
<path d="M102.67 113.468H98.9202V117.575H102.67V113.468Z" fill="#E6E6E6"/>
<path d="M95.1659 113.468H91.4165V117.575H95.1659V113.468Z" fill="#E6E6E6"/>
<path d="M87.6671 113.468H83.9177V117.575H87.6671V113.468Z" fill="#E6E6E6"/>
<path d="M80.1637 113.468H76.4143V117.575H80.1637V113.468Z" fill="#E6E6E6"/>
<path d="M102.67 120.354H98.9202V124.461H102.67V120.354Z" fill="#E6E6E6"/>
<path d="M95.1659 120.354H91.4165V124.461H95.1659V120.354Z" fill="#E6E6E6"/>
<path d="M87.6671 120.354H83.9177V124.461H87.6671V120.354Z" fill="#E6E6E6"/>
<path d="M80.1637 120.354H76.4143V124.461H80.1637V120.354Z" fill="#E6E6E6"/>
<path d="M48.7315 65.9528H26.1494V130.892H48.7315V65.9528Z" fill="#E6E6E6"/>
<path d="M45.3913 69.1547H38.7727V73.2616H45.3913V69.1547Z" fill="#FAFAFA"/>
<path d="M45.3913 76.0452H38.7727V80.1521H45.3913V76.0452Z" fill="#FAFAFA"/>
<path d="M45.3913 82.9312H38.7727V87.0381H45.3913V82.9312Z" fill="#FAFAFA"/>
<path d="M45.3913 89.8217H38.7727V93.9287H45.3913V89.8217Z" fill="#FAFAFA"/>
<path d="M45.3913 96.7075H38.7727V100.815H45.3913V96.7075Z" fill="#FAFAFA"/>
<path d="M45.3913 103.594H38.7727V107.701H45.3913V103.594Z" fill="#FAFAFA"/>
<path d="M45.3913 110.484H38.7727V114.591H45.3913V110.484Z" fill="#FAFAFA"/>
<path d="M45.3913 117.37H38.7727V121.477H45.3913V117.37Z" fill="#FAFAFA"/>
<path d="M36.5365 69.1547H29.918V73.2616H36.5365V69.1547Z" fill="#FAFAFA"/>
<path d="M36.5365 76.0452H29.918V80.1521H36.5365V76.0452Z" fill="#FAFAFA"/>
<path d="M36.5365 82.9312H29.918V87.0381H36.5365V82.9312Z" fill="#FAFAFA"/>
<path d="M36.5365 89.8217H29.918V93.9287H36.5365V89.8217Z" fill="#FAFAFA"/>
<path d="M36.5365 96.7075H29.918V100.815H36.5365V96.7075Z" fill="#FAFAFA"/>
<path d="M36.5365 103.594H29.918V107.701H36.5365V103.594Z" fill="#FAFAFA"/>
<path d="M36.5365 110.484H29.918V114.591H36.5365V110.484Z" fill="#FAFAFA"/>
<path d="M36.5365 117.37H29.918V121.477H36.5365V117.37Z" fill="#FAFAFA"/>
<path d="M51.833 129.977V60.6022H67.0332V129.97L51.833 129.977Z" fill="#E0E0E0"/>
<path d="M65.8802 63.4099H64.0371V68.1337H65.8802V63.4099Z" fill="#FAFAFA"/>
<path d="M62.1941 63.4099H60.3511V68.1337H62.1941V63.4099Z" fill="#FAFAFA"/>
<path d="M58.5152 63.4099H56.6721V68.1337H58.5152V63.4099Z" fill="#FAFAFA"/>
<path d="M54.829 63.4099H52.9858V68.1337H54.829V63.4099Z" fill="#FAFAFA"/>
<path d="M65.8802 71.3344H64.0371V76.0582H65.8802V71.3344Z" fill="#FAFAFA"/>
<path d="M62.1941 71.3344H60.3511V76.0582H62.1941V71.3344Z" fill="#FAFAFA"/>
<path d="M58.5152 71.3344H56.6721V76.0582H58.5152V71.3344Z" fill="#FAFAFA"/>
<path d="M54.829 71.3344H52.9858V76.0582H54.829V71.3344Z" fill="#FAFAFA"/>
<path d="M65.8802 79.2589H64.0371V83.9828H65.8802V79.2589Z" fill="#FAFAFA"/>
<path d="M62.1941 79.2589H60.3511V83.9828H62.1941V79.2589Z" fill="#FAFAFA"/>
<path d="M58.5152 79.2589H56.6721V83.9828H58.5152V79.2589Z" fill="#FAFAFA"/>
<path d="M54.829 79.2589H52.9858V83.9828H54.829V79.2589Z" fill="#FAFAFA"/>
<path d="M65.8802 87.1835H64.0371V91.9073H65.8802V87.1835Z" fill="#FAFAFA"/>
<path d="M62.1941 87.1835H60.3511V91.9073H62.1941V87.1835Z" fill="#FAFAFA"/>
<path d="M58.5152 87.1835H56.6721V91.9073H58.5152V87.1835Z" fill="#FAFAFA"/>
<path d="M54.829 87.1835H52.9858V91.9073H54.829V87.1835Z" fill="#FAFAFA"/>
<path d="M65.8802 95.115H64.0371V99.8388H65.8802V95.115Z" fill="#FAFAFA"/>
<path d="M62.1941 95.115H60.3511V99.8388H62.1941V95.115Z" fill="#FAFAFA"/>
<path d="M58.5152 95.115H56.6721V99.8388H58.5152V95.115Z" fill="#FAFAFA"/>
<path d="M54.829 95.115H52.9858V99.8388H54.829V95.115Z" fill="#FAFAFA"/>
<path d="M65.8802 103.04H64.0371V107.763H65.8802V103.04Z" fill="#FAFAFA"/>
<path d="M62.1941 103.04H60.3511V107.763H62.1941V103.04Z" fill="#FAFAFA"/>
<path d="M58.5152 103.04H56.6721V107.763H58.5152V103.04Z" fill="#FAFAFA"/>
<path d="M54.829 103.04H52.9858V107.763H54.829V103.04Z" fill="#FAFAFA"/>
<path d="M65.8802 110.964H64.0371V115.688H65.8802V110.964Z" fill="#FAFAFA"/>
<path d="M62.1941 110.964H60.3511V115.688H62.1941V110.964Z" fill="#FAFAFA"/>
<path d="M58.5152 110.964H56.6721V115.688H58.5152V110.964Z" fill="#FAFAFA"/>
<path d="M54.829 110.964H52.9858V115.688H54.829V110.964Z" fill="#FAFAFA"/>
<path d="M65.8802 118.889H64.0371V123.613H65.8802V118.889Z" fill="#FAFAFA"/>
<path d="M62.1941 118.889H60.3511V123.613H62.1941V118.889Z" fill="#FAFAFA"/>
<path d="M58.5152 118.889H56.6721V123.613H58.5152V118.889Z" fill="#FAFAFA"/>
<path d="M54.829 118.889H52.9858V123.613H54.829V118.889Z" fill="#FAFAFA"/>
<path d="M288.991 182.109C288.991 183.497 228.267 184.623 153.36 184.623C78.4539 184.623 17.7302 183.497 17.7302 182.109C17.7302 180.72 78.4539 179.595 153.36 179.595C228.267 179.595 288.991 180.72 288.991 182.109Z" fill="#F5F5F5"/>
<path d="M156.228 172.037H188.942V146.044H156.228V172.037Z" fill="#5E53B8"/>
<path opacity="0.5" d="M156.228 172.037H188.942V146.044H156.228V172.037Z" fill="black"/>
<path d="M175.827 182.109C180.99 182.109 185.176 175.571 185.176 167.505C185.176 159.44 180.99 152.901 175.827 152.901C170.664 152.901 166.478 159.44 166.478 167.505C166.478 175.571 170.664 182.109 175.827 182.109Z" fill="#263238"/>
<path d="M174.58 167.505C174.58 172.546 173.34 179.484 175.827 182.109H183.929C189.092 182.109 193.278 175.571 193.278 167.505C193.278 159.44 189.092 152.902 183.929 152.902C181.708 152.902 176.089 152.637 175.827 152.902C173.421 155.33 174.58 162.909 174.58 167.505Z" fill="#263238"/>
<path opacity="0.3" d="M175.177 174.505C177.81 174.505 179.944 171.171 179.944 167.058C179.944 162.946 177.81 159.612 175.177 159.612C172.544 159.612 170.41 162.946 170.41 167.058C170.41 171.171 172.544 174.505 175.177 174.505Z" fill="white"/>
<path d="M48.8361 172.037H81.55V146.044H48.8361V172.037Z" fill="#5E53B8"/>
<path opacity="0.5" d="M48.8361 172.037H81.55V146.044H48.8361V172.037Z" fill="black"/>
<path d="M68.4354 182.109C73.5989 182.109 77.7847 175.571 77.7847 167.505C77.7847 159.44 73.5989 152.901 68.4354 152.901C63.272 152.901 59.0862 159.44 59.0862 167.505C59.0862 175.571 63.272 182.109 68.4354 182.109Z" fill="#263238"/>
<path d="M67.1881 167.505C67.1881 172.546 65.9484 179.484 68.4354 182.109H76.5374C81.7008 182.109 85.8866 175.571 85.8866 167.505C85.8866 159.44 81.7008 152.902 76.5374 152.902C74.3164 152.902 68.6977 152.637 68.4354 152.902C66.0295 155.33 67.1881 162.909 67.1881 167.505Z" fill="#263238"/>
<path opacity="0.3" d="M67.7853 174.505C70.4182 174.505 72.5525 171.171 72.5525 167.058C72.5525 162.946 70.4182 159.612 67.7853 159.612C65.1524 159.612 63.0181 162.946 63.0181 167.058C63.0181 171.171 65.1524 174.505 67.7853 174.505Z" fill="white"/>
<path d="M111.197 182.109C116.361 182.109 120.546 175.571 120.546 167.505C120.546 159.44 116.361 152.901 111.197 152.901C106.034 152.901 101.848 159.44 101.848 167.505C101.848 175.571 106.034 182.109 111.197 182.109Z" fill="#263238"/>
<path d="M109.95 167.505C109.95 172.546 108.71 179.484 111.197 182.109H119.299C124.463 182.109 128.648 175.571 128.648 167.505C128.648 159.44 124.463 152.902 119.299 152.902C117.078 152.902 111.459 152.637 111.197 152.902C108.791 155.33 109.95 162.909 109.95 167.505Z" fill="#263238"/>
<path opacity="0.3" d="M110.547 174.505C113.18 174.505 115.314 171.171 115.314 167.058C115.314 162.946 113.18 159.612 110.547 159.612C107.914 159.612 105.78 162.946 105.78 167.058C105.78 171.171 107.914 174.505 110.547 174.505Z" fill="white"/>
<path opacity="0.3" d="M119.299 152.902C117.078 152.902 111.46 152.637 111.197 152.902C106.034 152.902 101.848 159.44 101.848 167.505C101.848 175.571 106.034 182.109 111.197 182.109H119.299C124.463 182.109 128.648 175.571 128.648 167.505C128.648 159.44 124.463 152.902 119.299 152.902Z" fill="black"/>
<path d="M233.253 182.109C238.417 182.109 242.603 175.571 242.603 167.505C242.603 159.44 238.417 152.901 233.253 152.901C228.09 152.901 223.904 159.44 223.904 167.505C223.904 175.571 228.09 182.109 233.253 182.109Z" fill="#263238"/>
<path d="M232.006 167.505C232.006 172.546 230.766 179.484 233.253 182.109H241.355C246.519 182.109 250.704 175.571 250.704 167.505C250.704 159.44 246.519 152.902 241.355 152.902C239.134 152.902 233.516 152.637 233.253 152.902C230.847 155.33 232.006 162.909 232.006 167.505Z" fill="#263238"/>
<path opacity="0.3" d="M232.603 174.505C235.236 174.505 237.37 171.171 237.37 167.058C237.37 162.946 235.236 159.612 232.603 159.612C229.97 159.612 227.836 162.946 227.836 167.058C227.836 171.171 229.97 174.505 232.603 174.505Z" fill="white"/>
<path opacity="0.3" d="M241.421 152.902C239.2 152.902 233.582 152.637 233.319 152.902C228.156 152.902 223.97 159.44 223.97 167.505C223.97 175.571 228.156 182.109 233.319 182.109H241.421C246.585 182.109 250.771 175.571 250.771 167.505C250.771 159.44 246.585 152.902 241.421 152.902Z" fill="black"/>
<path d="M26.4351 87.8344L278.56 88.051C283.14 88.055 286.102 88.5848 287.004 93.0878C290.102 108.55 297.782 145.013 295.601 160.322L294.991 163.304C294.521 168.255 290.374 172.037 285.414 172.037H185.999C186.596 170.056 186.93 167.869 186.93 165.568C186.93 156.657 181.959 149.433 175.827 149.433C169.695 149.433 164.724 156.657 164.724 165.568C164.724 167.869 165.058 170.056 165.655 172.037H77.4617C78.0591 170.056 78.3928 167.869 78.3928 165.568C78.3928 156.657 73.4218 149.433 67.2897 149.433C61.1577 149.433 56.1866 156.657 56.1866 165.568C56.1866 167.869 56.5204 170.056 57.1178 172.037H26.4268C21.1133 172.037 16.8059 167.717 16.8059 162.389V93.5657C16.8059 88.2339 21.1183 87.8298 26.4351 87.8344Z" fill="#5E53B8"/>
<path opacity="0.5" d="M16.8059 154.466H21.4486V166.94H17.9422C17.9422 166.94 16.8059 165.055 16.8059 162.73V154.466Z" fill="white"/>
<path d="M240.912 88.0186L236.182 80.9047C235.72 80.2103 234.941 79.7928 234.106 79.7928H84.2643C83.2707 79.7928 82.3586 80.3416 81.8944 81.2187L78.3928 87.8343L240.912 88.0186Z" fill="#5E53B8"/>
<path d="M151.773 164.526H155.342C156.034 164.526 156.594 163.966 156.594 163.276V163.276C156.594 162.586 156.034 162.026 155.342 162.026H151.773C151.082 162.026 150.521 162.586 150.521 163.276V163.276C150.521 163.966 151.082 164.526 151.773 164.526Z" fill="white"/>
<path d="M88.5968 164.504H92.1664C92.8576 164.504 93.418 163.945 93.418 163.255C93.418 162.564 92.8576 162.005 92.1664 162.005H88.5968C87.9056 162.005 87.3452 162.564 87.3452 163.255C87.3452 163.945 87.9056 164.504 88.5968 164.504Z" fill="white"/>
<path d="M27.3669 164.526H30.9364C31.6276 164.526 32.188 163.966 32.188 163.276V163.276C32.188 162.586 31.6276 162.026 30.9364 162.026H27.3669C26.6756 162.026 26.1153 162.586 26.1153 163.276V163.276C26.1153 163.966 26.6756 164.526 27.3669 164.526Z" fill="white"/>
<path d="M164.767 166.735H77.7847V167.145H164.767V166.735Z" fill="#263238"/>
<path d="M56.4703 166.735H17.9424V167.145H56.4703V166.735Z" fill="#263238"/>
<path d="M49.741 141.226H49.3303V167.058H49.741V141.226Z" fill="#263238"/>
<path d="M24.4363 129.681H24.0256V166.94H24.4363V129.681Z" fill="#263238"/>
<path d="M83.4163 141.849H83.0056V166.559H83.4163V141.849Z" fill="#263238"/>
<path d="M159.95 142.375H159.54V166.94H159.95V142.375Z" fill="#263238"/>
<path opacity="0.2" d="M85.8866 159.612H157.164V144.865H85.8866V159.612Z" fill="black"/>
<path opacity="0.3" d="M191.684 79.7928H234.181C235.016 79.7928 235.822 80.3639 236.284 81.0584L240.912 88.0186L186.722 87.843L191.684 79.7928Z" fill="white"/>
<path d="M191.054 167.058H216.198V91.8783H191.054V167.058Z" fill="#263238"/>
<path opacity="0.3" d="M192.623 153.138H214.606V97.1377H192.623V153.138Z" fill="white"/>
<path opacity="0.3" d="M192.623 98.9934L214.606 108.783V125.138C214.094 125.649 192.623 114.172 192.623 114.172V98.9934Z" fill="white"/>
<path opacity="0.3" d="M192.623 117.846L214.608 128.386L214.618 132.141L192.635 121.176L192.623 117.846Z" fill="white"/>
<path d="M207.154 164.504H210.723C211.414 164.504 211.975 163.945 211.975 163.255C211.975 162.564 211.414 162.005 210.723 162.005H207.154C206.462 162.005 205.902 162.564 205.902 163.255C205.902 163.945 206.462 164.504 207.154 164.504Z" fill="white"/>
<path d="M202.678 153.759H204.348V96.5168H202.678V153.759Z" fill="#263238"/>
<path opacity="0.2" d="M191.684 79.7929L186.722 87.843H78.3928L81.7897 81.337C82.2853 80.3879 83.268 79.7922 84.3401 79.791" fill="black"/>
<path opacity="0.2" d="M240.912 88.0186L78.4705 88.0005L79.353 86.2489H239.726L240.912 88.0186Z" fill="black"/>
<path d="M181.714 82.3551L179.734 85.4233L179.906 85.5342L181.886 82.466L181.714 82.3551Z" fill="#263238"/>
<path d="M180.217 82.355L178.238 85.4233L178.41 85.5342L180.39 82.4659L180.217 82.355Z" fill="#263238"/>
<path d="M178.722 82.3549L176.742 85.4233L176.914 85.5342L178.894 82.4659L178.722 82.3549Z" fill="#263238"/>
<path d="M177.226 82.3549L175.246 85.4233L175.418 85.5342L177.398 82.4659L177.226 82.3549Z" fill="#263238"/>
<path d="M175.73 82.3549L173.75 85.4233L173.922 85.5342L175.902 82.4659L175.73 82.3549Z" fill="#263238"/>
<path d="M144.58 82.3151L142.604 85.3855L142.776 85.4964L144.753 82.426L144.58 82.3151Z" fill="#263238"/>
<path d="M143.084 82.3151L141.107 85.3855L141.28 85.4964L143.257 82.426L143.084 82.3151Z" fill="#263238"/>
<path d="M141.588 82.3151L139.612 85.3855L139.784 85.4964L141.761 82.426L141.588 82.3151Z" fill="#263238"/>
<path d="M140.092 82.3152L138.116 85.3856L138.289 85.4965L140.265 82.4262L140.092 82.3152Z" fill="#263238"/>
<path d="M138.596 82.3152L136.62 85.3856L136.793 85.4965L138.769 82.4262L138.596 82.3152Z" fill="#263238"/>
<path d="M107.448 82.354L105.472 85.4243L105.645 85.5352L107.621 82.4649L107.448 82.354Z" fill="#263238"/>
<path d="M105.952 82.3541L103.976 85.4244L104.149 85.5353L106.125 82.465L105.952 82.3541Z" fill="#263238"/>
<path d="M104.456 82.3539L102.48 85.4243L102.653 85.5352L104.629 82.4648L104.456 82.3539Z" fill="#263238"/>
<path d="M102.961 82.3539L100.984 85.4243L101.157 85.5352L103.133 82.4648L102.961 82.3539Z" fill="#263238"/>
<path d="M101.465 82.3541L99.4883 85.4244L99.6611 85.5353L101.638 82.465L101.465 82.3541Z" fill="#263238"/>
<path d="M186.799 142.149H49.5005L40.7026 129.936L19.8652 129.613V91.8783H186.799V142.149Z" fill="#263238"/>
<path opacity="0.3" d="M161.111 136.357H184.058V96.5813H161.111V136.357Z" fill="white"/>
<path opacity="0.3" d="M161.148 97.6168L184.022 107.407V123.761C183.489 124.272 161.148 112.795 161.148 112.795V97.6168Z" fill="white"/>
<path opacity="0.3" d="M161.141 116.469L184.018 127.01L184.028 130.765L161.154 119.799L161.141 116.469Z" fill="white"/>
<path opacity="0.3" d="M51.997 136.292H81.5501V96.5167H44.5888L44.3523 126.455L51.997 136.292Z" fill="white"/>
<path opacity="0.3" d="M86.8083 136.292H156.396V96.5167H86.8083V136.292Z" fill="white"/>
<path opacity="0.3" d="M22.3339 125.105H39.6028V96.5167H22.3339L22.3339 125.105Z" fill="white"/>
<path opacity="0.3" d="M156.396 115.217L110.396 96.5167H86.8083V104.023L156.396 132.141V115.217Z" fill="white"/>
<path opacity="0.3" d="M81.55 120.209L44.5127 106.144L44.5611 100.019L81.55 114.172V118.656" fill="white"/>
<path opacity="0.3" d="M44.5611 108.613L81.5501 122.766V125.105L44.5127 110.811L44.5611 108.613Z" fill="white"/>
<path d="M21.1839 103.845L184.912 103.845V102.321L21.1839 102.321V103.845Z" fill="#263238"/>
<path opacity="0.3" d="M287.004 93.0878C290.102 108.55 297.782 145.013 295.601 160.322L294.991 163.304C294.521 168.255 290.374 172.037 285.414 172.037H222.496L218.084 88.0006L278.56 88.051C283.14 88.055 286.102 88.5848 287.004 93.0878Z" fill="white"/>
<path opacity="0.4" d="M293.893 153.873C293.893 153.873 293.05 159.442 288.834 160.025C284.619 160.607 273.853 160.154 273.853 160.154L274.663 158.086C275.586 155.733 277.839 154.167 280.37 154.121L293.893 153.873Z" fill="white"/>
<path opacity="0.4" d="M231.113 153.873C231.113 153.873 231.956 159.442 236.171 160.025C240.387 160.607 251.153 160.154 251.153 160.154L250.243 157.832C249.381 155.632 247.275 154.169 244.909 154.126L231.113 153.873Z" fill="white"/>
<path d="M254.451 172.037H272.966V166.655H254.451V172.037Z" fill="#263238"/>
<path d="M286.836 168.89C286.836 169.688 287.319 170.334 287.914 170.334C288.509 170.334 288.991 169.688 288.991 168.89C288.991 168.093 288.509 167.447 287.914 167.447C287.319 167.447 286.836 168.093 286.836 168.89Z" fill="white"/>
<path d="M283.622 168.89C283.622 169.422 283.943 169.853 284.34 169.853C284.737 169.853 285.058 169.422 285.058 168.89C285.058 168.359 284.737 167.928 284.34 167.928C283.943 167.928 283.622 168.359 283.622 168.89Z" fill="white"/>
<path d="M277.356 172.037H276.945C276.945 168.697 279.667 165.98 283.012 165.98H294.258V166.39H283.012C279.893 166.39 277.356 168.923 277.356 172.037Z" fill="#263238"/>
<path d="M237.317 168.89C237.317 169.688 236.835 170.334 236.24 170.334C235.645 170.334 235.163 169.688 235.163 168.89C235.163 168.093 235.645 167.447 236.24 167.447C236.835 167.447 237.317 168.093 237.317 168.89Z" fill="white"/>
<path d="M239.814 169.853C240.211 169.853 240.532 169.422 240.532 168.89C240.532 168.359 240.211 167.928 239.814 167.928C239.417 167.928 239.096 168.359 239.096 168.89C239.096 169.422 239.417 169.853 239.814 169.853Z" fill="white"/>
<path d="M247.209 172.037H246.798C246.798 168.923 244.261 166.39 241.142 166.39H222.163V165.98H241.142C244.487 165.98 247.209 168.697 247.209 172.037Z" fill="#263238"/>
<path opacity="0.4" d="M285.395 157.071C285.395 158.546 286.593 159.742 288.07 159.742C289.548 159.742 290.746 158.546 290.746 157.071C290.746 155.596 289.548 154.4 288.07 154.4C286.593 154.4 285.395 155.596 285.395 157.071Z" fill="white"/>
<path opacity="0.4" d="M235.774 157.071C235.774 158.546 236.972 159.742 238.45 159.742C239.928 159.742 241.125 158.546 241.125 157.071C241.125 155.596 239.928 154.4 238.45 154.4C236.972 154.4 235.774 155.596 235.774 157.071Z" fill="white"/>
<path d="M283.996 91.8784L292.261 140.768C292.674 143.208 290.79 145.433 288.311 145.433H234.993C231.851 145.433 229.196 143.106 228.789 139.995L222.496 91.8784H283.996Z" fill="#263238"/>
<path opacity="0.3" d="M290.746 136.293L284.624 99.8536H224.191L229.291 136.474L290.746 136.293Z" fill="white"/>
<path opacity="0.3" d="M245.881 99.8536L287.507 117.014L289.435 128.491L224.191 99.8536H245.881Z" fill="white"/>
<path opacity="0.3" d="M224.786 104.126L290.229 132.716L290.746 136.292L225.334 108.066L224.786 104.126Z" fill="white"/>
<path opacity="0.5" d="M224.728 98.4907H284.188L283.071 93.4429H224.191L224.728 98.4907Z" fill="black"/>
<path d="M245.107 96.9749H274.965V95.3854H245.107V96.9749Z" fill="white"/>
<path d="M241.496 97.7772H243.531V94.5831H241.496V97.7772Z" fill="white"/>
<path d="M239.108 97.7772H241.057V94.5831H239.108V97.7772Z" fill="white"/>
<path d="M276.091 150.567C254.167 150.567 221.846 150.56 221.358 150.56V150.15C222.093 150.151 294.86 150.165 295.905 150.15L295.911 150.56C295.559 150.565 287.146 150.567 276.091 150.567Z" fill="#263238"/>
<path d="M296.828 119.845C298.938 119.845 300.648 118.137 300.648 116.031V102.607C300.648 100.501 298.938 98.7935 296.828 98.7935C294.718 98.7935 293.008 100.501 293.008 102.607V116.031C293.008 118.137 294.718 119.845 296.828 119.845Z" fill="#5E53B8"/>
<path d="M297.74 100.093C297.74 100.093 296.748 96.5032 294.206 96.1317C291.664 95.7604 287.138 96.1317 287.138 96.1317V98.03C287.138 98.03 292.346 97.8236 293.214 98.03C294.082 98.2363 295.074 100.898 295.074 100.898L297.74 100.093Z" fill="#5E53B8"/>
<g opacity="0.3">
<path d="M296.828 119.845C298.938 119.845 300.648 118.137 300.648 116.031V102.607C300.648 100.501 298.938 98.7935 296.828 98.7935C294.718 98.7935 293.008 100.501 293.008 102.607V116.031C293.008 118.137 294.718 119.845 296.828 119.845Z" fill="white"/>
<path d="M297.74 100.093C297.74 100.093 296.748 96.5032 294.206 96.1317C291.664 95.7604 287.138 96.1317 287.138 96.1317V98.03C287.138 98.03 292.346 97.8236 293.214 98.03C294.082 98.2363 295.074 100.898 295.074 100.898L297.74 100.093Z" fill="white"/>
</g>
<path d="M232.186 121.013C234.296 121.013 236.006 119.306 236.006 117.199V103.776C236.006 101.67 234.296 99.962 232.186 99.962C230.076 99.962 228.366 101.67 228.366 103.776V117.199C228.366 119.306 230.076 121.013 232.186 121.013Z" fill="#5E53B8"/>
<path d="M233.098 101.262C233.098 101.262 232.106 97.6719 229.564 97.3004C227.022 96.9291 222.496 97.3004 222.496 97.3004V99.1987C222.496 99.1987 227.704 98.9923 228.572 99.1987C229.44 99.405 230.432 102.067 230.432 102.067L233.098 101.262Z" fill="#5E53B8"/>
<g opacity="0.3">
<path d="M232.186 121.013C234.296 121.013 236.006 119.306 236.006 117.199V103.776C236.006 101.67 234.296 99.962 232.186 99.962C230.076 99.962 228.366 101.67 228.366 103.776V117.199C228.366 119.306 230.076 121.013 232.186 121.013Z" fill="white"/>
<path d="M233.098 101.262C233.098 101.262 232.106 97.6719 229.564 97.3004C227.022 96.9291 222.496 97.3004 222.496 97.3004V99.1987C222.496 99.1987 227.704 98.9923 228.572 99.1987C229.44 99.405 230.432 102.067 230.432 102.067L233.098 101.262Z" fill="white"/>
</g>
</svg>
