<svg width="182" height="182" viewBox="0 0 182 182" fill="none" xmlns="http://www.w3.org/2000/svg">
<path d="M182 139.194H0V139.285H182V139.194Z" fill="#EBEBEB"/>
<path d="M114.904 141.672H105.636V141.763H114.904V141.672Z" fill="#EBEBEB"/>
<path d="M165.78 143.642H143.82V143.733H165.78V143.642Z" fill="#EBEBEB"/>
<path d="M103.664 141.716H80.9754V141.807H103.664V141.716Z" fill="#EBEBEB"/>
<path d="M66.2626 144.439H61.516V144.53H66.2626V144.439Z" fill="#EBEBEB"/>
<path d="M92.4888 144.439H70.8744V144.53H92.4888V144.439Z" fill="#EBEBEB"/>
<path d="M33.0912 142.903H19.0954V142.994H33.0912V142.903Z" fill="#EBEBEB"/>
<path d="M71.3294 107.624H47.1598L45.6929 90.6979H69.8625L71.3294 107.624Z" fill="#E6E6E6"/>
<path d="M72.5816 107.624H48.412L46.9451 90.6979H71.1147L72.5816 107.624Z" fill="#F0F0F0"/>
<path d="M51.7171 103.988L50.909 94.3307H67.8096L68.6176 103.988H51.7171Z" fill="#FEFFE8"/>
<path d="M50.2102 111.107H77.6594V107.624H50.2102V111.107Z" fill="#F0F0F0"/>
<path d="M38.3583 92.0265C38.4748 90.3376 41.1757 87.229 47.6731 88.6413C52.3687 89.6642 54.1159 87.229 54.1159 87.229C54.1159 87.229 53.6791 94.1013 46.6175 96.1652C39.909 98.1272 38.1508 95.004 38.3583 92.0265Z" fill="#E6E6E6"/>
<path d="M39.8398 102.43C39.8764 102.43 39.9126 102.422 39.9459 102.407C39.9792 102.392 40.0089 102.37 40.0327 102.342C40.5023 101.785 40.1164 100.453 39.585 98.6076C38.9007 96.2416 38.0489 93.2932 38.7696 91.1566C39.1691 90.0279 39.6359 88.9242 40.1674 87.8514C41.1866 85.6966 42.0675 83.8474 41.3322 81.8891C41.3207 81.858 41.3032 81.8294 41.2806 81.8051C41.258 81.7807 41.2309 81.7611 41.2006 81.7473C41.1704 81.7336 41.1378 81.7259 41.1046 81.7249C41.0714 81.7238 41.0384 81.7293 41.0073 81.7411C40.9763 81.7529 40.9479 81.7707 40.9238 81.7935C40.8997 81.8164 40.8804 81.8438 40.8669 81.8741C40.8534 81.9045 40.8461 81.9372 40.8454 81.9704C40.8447 82.0036 40.8505 82.0366 40.8626 82.0675C41.5215 83.811 40.7243 85.5 39.7124 87.6403C39.1741 88.7304 38.7001 89.851 38.2928 90.9964C37.5248 93.2823 38.3984 96.3144 39.1009 98.746C39.5158 100.202 39.9454 101.658 39.6505 102.022C39.6271 102.047 39.6092 102.077 39.5979 102.109C39.5866 102.142 39.5822 102.176 39.5849 102.21C39.5877 102.245 39.5975 102.278 39.6138 102.308C39.6301 102.338 39.6525 102.365 39.6796 102.386C39.7261 102.419 39.7829 102.435 39.8398 102.43Z" fill="#E6E6E6"/>
<path d="M91 155.632C129.978 155.632 161.576 153.787 161.576 151.511C161.576 149.236 129.978 147.391 91 147.391C52.022 147.391 20.424 149.236 20.424 151.511C20.424 153.787 52.022 155.632 91 155.632Z" fill="#5E53B8"/>
<path d="M90.9854 131.422H39.2974L36.4692 48.2955H88.1572L90.9854 131.422Z" fill="#5E53B8"/>
<path d="M93.5662 128.841H41.8782L39.0463 45.7147H90.7343L93.5662 128.841Z" fill="#5E53B8"/>
<path opacity="0.3" d="M93.5662 128.841H41.8782L39.0463 45.7147H90.7343L93.5662 128.841Z" fill="#FEFFE8"/>
<path d="M76.248 79.9212C81.7824 74.2914 81.5469 65.0858 75.7221 59.3598C69.8974 53.6338 60.689 53.5558 55.1547 59.1856C49.6204 64.8154 49.8558 74.0211 55.6806 79.7471C61.5054 85.4731 70.7137 85.551 76.248 79.9212Z" fill="#5E53B8"/>
<path d="M77.7031 69.5567C77.7775 71.5375 77.3453 73.5045 76.4473 75.2715C75.4781 77.1758 73.9974 78.7724 72.1714 79.8821C70.3454 80.9919 68.2464 81.5709 66.1097 81.5542C63.9228 81.5424 61.7774 80.9557 59.8889 79.853C58.0003 78.7502 56.435 77.1703 55.3498 75.2715C54.338 73.5316 53.7728 71.5683 53.7046 69.5567C53.6374 67.997 53.8881 66.4399 54.4413 64.9801C54.9945 63.5203 55.8388 62.1881 56.9228 61.0646C58.0068 59.9412 59.3078 59.0498 60.747 58.4447C62.1861 57.8396 63.7332 57.5334 65.2943 57.5447C68.5104 57.5675 71.594 58.8283 73.9048 61.0652C76.2156 63.3021 77.5759 66.3431 77.7031 69.5567Z" fill="#FEFFE8"/>
<path opacity="0.6" d="M76.44 75.2715C75.4708 77.1758 73.9901 78.7723 72.1641 79.8821C70.3382 80.9918 68.2391 81.5708 66.1024 81.5541C63.9155 81.5423 61.7702 80.9556 59.8816 79.8529C57.9931 78.7502 56.4277 77.1702 55.3426 75.2715C58.421 73.1727 62.0636 72.0571 65.7894 72.0719C69.5752 72.0801 73.2764 73.192 76.44 75.2715Z" fill="#058275"/>
<path opacity="0.6" d="M69.441 69.2575C71.476 67.1873 71.3894 63.8023 69.2476 61.6968C67.1058 59.5913 63.7198 59.5627 61.6848 61.6328C59.6497 63.7029 59.7363 67.0879 61.8781 69.1934C64.0199 71.2989 67.4059 71.3276 69.441 69.2575Z" fill="#058275"/>
<path d="M83.1813 98.7387H50.2102L49.9881 92.1866H82.9592L83.1813 98.7387Z" fill="#FEFFE8"/>
<path d="M83.5817 110.448H50.6069L50.3849 103.896H83.3596L83.5817 110.448Z" fill="#FEFFE8"/>
<path d="M70.8562 104.799L62.9101 105.891C62.8343 105.9 62.7611 105.924 62.6951 105.962C62.6291 106.001 62.5717 106.052 62.5266 106.114C62.4815 106.175 62.4496 106.246 62.4329 106.32C62.4162 106.394 62.4151 106.472 62.4296 106.546L63.4743 111.872C63.5085 112.028 63.5999 112.166 63.7306 112.258C63.8613 112.35 64.0218 112.391 64.1805 112.37L72.1266 111.278C72.2022 111.269 72.2751 111.244 72.3407 111.205C72.4063 111.166 72.4632 111.114 72.5079 111.052C72.5526 110.991 72.5842 110.92 72.6006 110.846C72.617 110.771 72.618 110.694 72.6034 110.62L71.5624 105.294C71.5282 105.138 71.4366 105.001 71.3058 104.909C71.175 104.817 71.0146 104.778 70.8562 104.799ZM68.574 110.194L67.118 110.387L66.976 108.669C66.826 108.604 66.6938 108.504 66.5905 108.377C66.4872 108.25 66.416 108.101 66.3827 107.941C66.3559 107.817 66.3555 107.688 66.3814 107.564C66.4073 107.44 66.459 107.323 66.5331 107.22C66.6072 107.117 66.7021 107.031 66.8116 106.967C66.9211 106.903 67.0429 106.863 67.1689 106.849C67.4275 106.815 67.6891 106.88 67.9021 107.031C68.115 107.181 68.2639 107.406 68.3192 107.66C68.3507 107.814 68.3411 107.974 68.2912 108.123C68.2414 108.271 68.1531 108.405 68.0352 108.508L68.574 110.194Z" fill="#5E53B8"/>
<path d="M70.07 104.512C69.9295 104.53 69.7874 104.494 69.6716 104.413C69.5558 104.331 69.4746 104.209 69.4439 104.071L69.342 103.551C69.1965 102.84 68.7984 102.207 68.2214 101.768C67.6444 101.329 66.9277 101.114 66.2043 101.163C65.8393 101.184 65.483 101.283 65.1596 101.454C64.8363 101.624 64.5535 101.863 64.3304 102.152C64.1073 102.442 63.9492 102.776 63.8668 103.133C63.7844 103.489 63.7797 103.859 63.8529 104.217L63.9694 104.817C63.9829 104.884 63.9824 104.953 63.9679 105.019C63.9534 105.085 63.9252 105.148 63.8851 105.203C63.8451 105.258 63.794 105.303 63.7351 105.337C63.6763 105.371 63.611 105.393 63.5435 105.4C63.4027 105.419 63.2598 105.385 63.1436 105.303C63.0273 105.221 62.9465 105.098 62.9174 104.959L62.8191 104.453C62.7192 103.981 62.7159 103.492 62.8094 103.018C62.9029 102.544 63.0913 102.094 63.3633 101.694C63.6353 101.295 63.9853 100.954 64.3922 100.693C64.7991 100.433 65.2545 100.257 65.7311 100.176C66.7645 100.003 67.825 100.234 68.6926 100.822C69.5601 101.409 70.1681 102.308 70.3903 103.332L70.5068 103.929C70.5204 103.997 70.5196 104.066 70.5044 104.133C70.4893 104.2 70.4601 104.263 70.4189 104.318C70.3776 104.373 70.3252 104.419 70.2651 104.452C70.205 104.486 70.1385 104.506 70.07 104.512Z" fill="#5E53B8"/>
<path d="M78.1399 119.625H56.6748L56.5328 115.359H77.9943L78.1399 119.625Z" fill="#5E53B8"/>
<path d="M67.7841 95.4626C67.7905 95.6182 67.7652 95.7735 67.7098 95.919C67.6545 96.0646 67.5701 96.1974 67.4619 96.3094C67.3536 96.4213 67.2238 96.5102 67.0802 96.5705C66.9366 96.6308 66.7823 96.6613 66.6266 96.6602C66.3056 96.6577 65.9979 96.532 65.7669 96.3092C65.5359 96.0863 65.3993 95.7833 65.3853 95.4626C65.3789 95.307 65.4042 95.1517 65.4595 95.0062C65.5149 94.8606 65.5993 94.7278 65.7075 94.6159C65.8158 94.5039 65.9456 94.415 66.0892 94.3547C66.2328 94.2944 66.3871 94.2639 66.5428 94.265C66.8641 94.2666 67.1723 94.392 67.4035 94.615C67.6347 94.8381 67.771 95.1416 67.7841 95.4626Z" fill="#058275"/>
<path d="M62.608 95.4626C62.6149 95.6183 62.59 95.7738 62.5348 95.9196C62.4796 96.0654 62.3953 96.1984 62.287 96.3105C62.1786 96.4226 62.0486 96.5114 61.9047 96.5715C61.7609 96.6316 61.6064 96.6618 61.4505 96.6602C61.1299 96.6576 60.8226 96.5319 60.5922 96.3089C60.3618 96.086 60.2259 95.7829 60.2129 95.4626C60.2065 95.307 60.2317 95.1517 60.2871 95.0062C60.3425 94.8606 60.4269 94.7278 60.5351 94.6159C60.6433 94.5039 60.7732 94.415 60.9167 94.3547C61.0603 94.2944 61.2147 94.2639 61.3704 94.265C61.6913 94.2667 61.9991 94.3922 62.2297 94.6153C62.4603 94.8384 62.5958 95.142 62.608 95.4626Z" fill="#058275"/>
<path d="M57.4647 95.4626C57.4711 95.6182 57.4458 95.7735 57.3904 95.919C57.3351 96.0646 57.2507 96.1974 57.1425 96.3094C57.0342 96.4213 56.9044 96.5102 56.7608 96.5705C56.6172 96.6308 56.4629 96.6613 56.3072 96.6602C55.9863 96.6585 55.6785 96.533 55.4479 96.3099C55.2173 96.0868 55.0817 95.7832 55.0696 95.4626C55.0631 95.307 55.0884 95.1517 55.1438 95.0062C55.1992 94.8606 55.2835 94.7278 55.3918 94.6159C55.5 94.5039 55.6298 94.415 55.7734 94.3547C55.917 94.2944 56.0713 94.2639 56.2271 94.265C56.5479 94.2667 56.8558 94.3922 57.0864 94.6153C57.317 94.8384 57.4525 95.142 57.4647 95.4626Z" fill="#058275"/>
<path d="M72.942 95.4626C72.9484 95.6182 72.9231 95.7735 72.8677 95.9191C72.8123 96.0646 72.728 96.1974 72.6197 96.3094C72.5115 96.4213 72.3817 96.5102 72.2381 96.5705C72.0945 96.6308 71.9402 96.6613 71.7844 96.6602C71.4636 96.6585 71.1557 96.5331 70.9251 96.3099C70.6946 96.0868 70.559 95.7833 70.5468 95.4626C70.5414 95.3075 70.5675 95.1528 70.6236 95.0081C70.6797 94.8634 70.7646 94.7315 70.8732 94.6206C70.9818 94.5096 71.1118 94.4218 71.2553 94.3626C71.3987 94.3034 71.5528 94.2739 71.708 94.276C72.0264 94.2784 72.3318 94.4028 72.5613 94.6235C72.7909 94.8443 72.9271 95.1445 72.942 95.4626Z" fill="#058275"/>
<path d="M78.0998 95.4626C78.1068 95.6183 78.0819 95.7738 78.0267 95.9196C77.9715 96.0654 77.8871 96.1984 77.7788 96.3105C77.6705 96.4226 77.5404 96.5114 77.3966 96.5715C77.2528 96.6316 77.0982 96.6618 76.9423 96.6602C76.6217 96.6576 76.3144 96.5319 76.084 96.3089C75.8536 96.086 75.7178 95.7829 75.7047 95.4626C75.6983 95.307 75.7236 95.1517 75.7789 95.0062C75.8343 94.8606 75.9187 94.7278 76.0269 94.6159C76.1352 94.5039 76.265 94.415 76.4086 94.3547C76.5522 94.2944 76.7065 94.2639 76.8622 94.265C77.1831 94.2667 77.4909 94.3922 77.7215 94.6153C77.9521 94.8384 78.0876 95.142 78.0998 95.4626Z" fill="#058275"/>
<path d="M121.543 63.438C122.027 64.2169 122.431 64.9595 122.846 65.7348C123.261 66.5101 123.636 67.2891 124.004 68.0863C124.754 69.7004 125.375 71.3716 125.86 73.084C125.926 73.2987 125.973 73.5281 126.028 73.7501L126.108 74.0886L126.148 74.2561L126.195 74.5327C126.277 75.1603 126.239 75.7977 126.082 76.4109C125.831 77.3631 125.449 78.2757 124.947 79.1227C124.048 80.6621 122.963 82.084 121.714 83.3561L120.182 82.1986C120.951 80.7845 121.635 79.3259 122.231 77.8306C122.497 77.1717 122.684 76.4838 122.788 75.7812C122.822 75.5667 122.812 75.3476 122.759 75.1369L122.613 74.6929C122.555 74.5109 122.501 74.3289 122.431 74.1432C121.878 72.6416 121.237 71.1734 120.513 69.7461C119.785 68.2901 119.003 66.8341 118.22 65.4436L121.543 63.438Z" fill="#FF8B7B"/>
<path d="M120.571 81.6925L118.897 82.577L120.819 84.8265C120.819 84.8265 122.02 84.0148 122.075 82.7772L120.571 81.6925Z" fill="#FF8B7B"/>
<path d="M116.651 83.9639L118.708 85.5982L120.819 84.8265L118.897 82.577L116.651 83.9639Z" fill="#FF8B7B"/>
<path d="M109.619 51.5279C109.579 51.7317 109.437 51.8737 109.306 51.8482C109.175 51.8227 109.098 51.6335 109.138 51.4333C109.178 51.2331 109.32 51.0693 109.455 51.1129C109.589 51.1566 109.659 51.3241 109.619 51.5279Z" fill="#263238"/>
<path d="M109.455 51.8773C109.088 52.4475 108.645 52.9644 108.137 53.4134C108.257 53.5377 108.402 53.6345 108.563 53.6974C108.724 53.7602 108.897 53.7875 109.069 53.7774L109.455 51.8773Z" fill="#FF5652"/>
<path d="M108.8 59.0189V56.6311L111.959 56.9951C111.959 56.9951 111.908 59.0481 110.139 59.6523L108.8 59.0189Z" fill="#FF8B7B"/>
<path d="M109.71 54.9131L111.934 55.5537L111.974 57.0134L108.814 56.6312L109.71 54.9131Z" fill="#FF8B7B"/>
<path opacity="0.2" d="M111.934 55.5537L109.71 54.9131L109.276 55.743C109.3 56.3969 109.504 57.0316 109.867 57.5764C110.229 58.1213 110.735 58.5551 111.329 58.8297C111.712 58.296 111.935 57.665 111.974 57.0097L111.934 55.5537Z" fill="black"/>
<path d="M110.587 50.556C110.61 50.5553 110.633 50.5481 110.652 50.5352C110.672 50.5222 110.687 50.504 110.697 50.4827C110.706 50.4614 110.709 50.4378 110.706 50.4147C110.703 50.3916 110.693 50.3699 110.678 50.3521C110.55 50.2077 110.389 50.0961 110.21 50.0264C110.03 49.9567 109.836 49.9311 109.644 49.9517C109.613 49.9571 109.585 49.9746 109.566 50.0006C109.548 50.0265 109.541 50.0587 109.546 50.0901C109.551 50.1216 109.569 50.1499 109.594 50.1689C109.62 50.1879 109.652 50.1962 109.684 50.192C109.836 50.1771 109.989 50.1987 110.131 50.255C110.273 50.3114 110.399 50.4008 110.499 50.5159C110.511 50.5281 110.524 50.5379 110.539 50.5448C110.554 50.5517 110.57 50.5555 110.587 50.556Z" fill="#263238"/>
<path d="M115.239 55.2115C114.875 57.0861 114.649 59.6815 115.967 60.93C115.967 60.93 115.457 62.8301 111.963 62.8301C108.137 62.8301 110.125 61.163 110.125 61.163C111.715 60.6679 111.701 58.8588 111.337 57.4028L115.239 55.2115Z" fill="#FF8B7B"/>
<path d="M116.677 62.1822C117.019 61.7017 117.004 60.1765 116.64 59.9072C116.054 59.474 113.539 59.3721 110.157 60.1511C110.521 61.6289 109.739 62.4006 109.739 62.4006L116.677 62.1822Z" fill="#5E53B8"/>
<path d="M128.055 148.599C127.951 148.636 127.841 148.652 127.731 148.645C127.621 148.639 127.514 148.611 127.415 148.563C127.377 148.528 127.351 148.482 127.341 148.432C127.33 148.382 127.336 148.33 127.356 148.283C127.368 148.243 127.388 148.207 127.415 148.176C127.442 148.145 127.475 148.121 127.513 148.104C127.859 147.937 128.652 148.261 128.689 148.275C128.699 148.28 128.709 148.287 128.715 148.297C128.722 148.307 128.725 148.318 128.725 148.33C128.725 148.342 128.722 148.353 128.716 148.363C128.71 148.374 128.702 148.382 128.692 148.388C128.487 148.478 128.274 148.549 128.055 148.599ZM127.637 148.188C127.613 148.194 127.589 148.202 127.567 148.214C127.545 148.222 127.524 148.235 127.508 148.253C127.491 148.271 127.479 148.292 127.473 148.315C127.44 148.425 127.473 148.461 127.495 148.472C127.633 148.588 128.143 148.472 128.503 148.337C128.229 148.224 127.933 148.173 127.637 148.188Z" fill="#5E53B8"/>
<path d="M128.678 148.392H128.649C128.357 148.308 127.739 147.868 127.731 147.58C127.731 147.534 127.746 147.49 127.775 147.454C127.803 147.419 127.843 147.394 127.888 147.384C127.931 147.367 127.977 147.361 128.023 147.365C128.069 147.369 128.114 147.382 128.153 147.405C128.496 147.58 128.714 148.286 128.721 148.319C128.726 148.328 128.729 148.338 128.729 148.348C128.729 148.358 128.726 148.368 128.721 148.377C128.716 148.383 128.709 148.387 128.701 148.39C128.694 148.392 128.686 148.393 128.678 148.392ZM127.95 147.486H127.921C127.848 147.511 127.848 147.547 127.848 147.566C127.848 147.737 128.263 148.082 128.576 148.221C128.499 148.017 128.332 147.613 128.11 147.493C128.06 147.47 128.004 147.468 127.953 147.486H127.95Z" fill="#5E53B8"/>
<path d="M109.149 149.029C108.821 149.029 108.505 148.982 108.399 148.836C108.372 148.797 108.357 148.751 108.357 148.703C108.357 148.656 108.372 148.609 108.399 148.57C108.42 148.535 108.448 148.504 108.481 148.479C108.514 148.455 108.552 148.438 108.592 148.428C109.018 148.312 109.913 148.821 109.95 148.843C109.961 148.849 109.97 148.858 109.975 148.869C109.981 148.88 109.982 148.893 109.979 148.905C109.978 148.918 109.972 148.929 109.964 148.938C109.955 148.948 109.944 148.954 109.932 148.956C109.673 149.003 109.412 149.028 109.149 149.029ZM108.745 148.53C108.706 148.524 108.667 148.524 108.629 148.53C108.604 148.535 108.581 148.545 108.56 148.56C108.539 148.574 108.522 148.593 108.508 148.614C108.465 148.69 108.483 148.727 108.508 148.749C108.629 148.916 109.273 148.92 109.75 148.851C109.438 148.68 109.097 148.572 108.745 148.53Z" fill="#5E53B8"/>
<path d="M109.928 148.956H109.903C109.593 148.818 108.982 148.264 109.029 147.973C109.029 147.904 109.087 147.82 109.255 147.806C109.314 147.799 109.375 147.804 109.433 147.822C109.49 147.839 109.544 147.869 109.589 147.908C109.823 148.187 109.963 148.532 109.99 148.894C109.99 148.905 109.987 148.915 109.983 148.924C109.979 148.934 109.972 148.942 109.964 148.949C109.953 148.954 109.941 148.957 109.928 148.956ZM109.302 147.919H109.266C109.156 147.919 109.149 147.97 109.149 147.984C109.12 148.159 109.535 148.596 109.852 148.785C109.824 148.493 109.705 148.217 109.513 147.995C109.453 147.944 109.377 147.917 109.298 147.919H109.302Z" fill="#5E53B8"/>
<path d="M112.738 148.898H110.179L109.924 142.968H112.483L112.738 148.898Z" fill="#FF8B7B"/>
<path d="M131.531 147.711L129.031 148.254L126.515 142.732L129.02 142.189L131.531 147.711Z" fill="#FF8B7B"/>
<path d="M128.787 148.002L131.601 147.394C131.65 147.384 131.701 147.391 131.746 147.413C131.791 147.436 131.827 147.473 131.848 147.518L132.824 149.637C132.85 149.688 132.863 149.745 132.863 149.802C132.863 149.86 132.849 149.916 132.823 149.968C132.796 150.019 132.758 150.063 132.712 150.096C132.665 150.13 132.611 150.152 132.554 150.161C131.571 150.354 131.08 150.401 129.846 150.667C129.085 150.834 127.367 151.253 126.315 151.479C125.263 151.704 124.903 150.696 125.314 150.51C127.152 149.669 127.917 148.931 128.416 148.243C128.506 148.12 128.638 148.034 128.787 148.002Z" fill="#263238"/>
<path d="M110.197 148.599H112.993C113.044 148.6 113.093 148.617 113.132 148.649C113.172 148.681 113.2 148.725 113.211 148.774L113.717 151.049C113.732 151.104 113.734 151.162 113.722 151.218C113.711 151.273 113.686 151.326 113.651 151.37C113.616 151.415 113.57 151.451 113.518 151.474C113.467 151.498 113.41 151.51 113.353 151.508C112.345 151.49 110.889 151.431 109.622 151.431C108.137 151.431 106.859 151.511 105.12 151.511C104.068 151.511 103.776 150.448 104.217 150.35C106.219 149.913 107.857 149.866 109.586 148.8C109.767 148.678 109.979 148.609 110.197 148.599Z" fill="#263238"/>
<path d="M120.546 61.516C122.945 62.0657 124.914 68.1918 124.914 68.1918L120.12 71.8573C118.876 70.5269 117.998 68.8964 117.572 67.1253C116.724 63.9148 118.093 60.9482 120.546 61.516Z" fill="#5E53B8"/>
<path opacity="0.4" d="M120.546 61.516C122.945 62.0657 124.914 68.1918 124.914 68.1918L120.12 71.8573C118.876 70.5269 117.998 68.8964 117.572 67.1253C116.724 63.9148 118.093 60.9482 120.546 61.516Z" fill="black"/>
<path d="M107.926 68.8215C107.329 69.4658 106.732 70.0409 106.106 70.6416C105.797 70.9327 105.484 71.2239 105.163 71.5042L104.679 71.9301L104.559 72.0357L104.352 72.2031C104.138 72.3737 103.901 72.5134 103.649 72.6181C103.368 72.7373 103.066 72.7992 102.761 72.8001C102.5 72.8012 102.241 72.7556 101.996 72.6654C101.725 72.562 101.477 72.4048 101.268 72.2031C101.002 71.9425 100.806 71.6179 100.701 71.2603C100.645 71.0841 100.61 70.9021 100.595 70.718C100.576 70.5024 100.576 70.2856 100.595 70.0701C100.613 69.8953 100.635 69.7425 100.664 69.6005C100.764 69.1042 100.905 68.6171 101.086 68.1445C101.25 67.6953 101.439 67.2554 101.651 66.8268C101.884 66.3645 102.106 66.026 102.328 65.6402C103.23 64.1628 104.259 62.767 105.403 61.4687C106.537 60.1782 107.786 58.9939 109.134 57.9307L110.474 59.3102C109.535 60.5697 108.61 61.9201 107.755 63.2487C106.904 64.5698 106.126 65.9369 105.425 67.3437C105.269 67.6859 105.061 68.0717 104.963 68.3483C104.833 68.6697 104.72 68.9978 104.625 69.3311C104.533 69.6314 104.463 69.938 104.417 70.2484C104.415 70.2969 104.415 70.3455 104.417 70.394C104.417 70.4231 104.417 70.4377 104.417 70.3613C104.411 70.2796 104.395 70.1989 104.37 70.121C104.291 69.863 104.147 69.6297 103.951 69.444C103.777 69.284 103.573 69.1603 103.351 69.08C103.155 69.006 102.948 68.9677 102.739 68.9671C102.538 68.9647 102.339 69.0031 102.153 69.08C102.09 69.1057 102.029 69.1361 101.971 69.171L102.109 69.0436L102.55 68.6432L103.42 67.8278C103.995 67.2855 104.574 66.7067 105.12 66.168L107.926 68.8215Z" fill="#FF8B7B"/>
<path opacity="0.2" d="M118.489 66.015C119.792 67.3036 120.218 69.655 120.309 71.6934L120.098 71.8572C118.854 70.5268 117.976 68.8964 117.55 67.1252C117.503 66.9359 117.459 66.7612 117.426 66.5537L118.489 66.015Z" fill="black"/>
<path d="M105.382 64.064C104.857 66.8304 104.53 72.5124 106.048 83.76H119.756C119.851 81.6597 118.529 71.4022 120.557 61.4978C119.042 61.2069 117.51 61.0136 115.97 60.919C114.031 60.8078 112.086 60.8078 110.146 60.919C109.506 60.9772 108.872 61.0719 108.326 61.1702C107.6 61.2976 106.93 61.6424 106.404 62.1592C105.878 62.6759 105.522 63.3401 105.382 64.064Z" fill="#5E53B8"/>
<path opacity="0.4" d="M105.382 64.064C104.857 66.8304 104.53 72.5124 106.048 83.76H119.756C119.851 81.6597 118.529 71.4022 120.557 61.4978C119.042 61.2069 117.51 61.0136 115.97 60.919C114.031 60.8078 112.086 60.8078 110.146 60.919C109.506 60.9772 108.872 61.0719 108.326 61.1702C107.6 61.2976 106.93 61.6424 106.404 62.1592C105.878 62.6759 105.522 63.3401 105.382 64.064Z" fill="black"/>
<path opacity="0.2" d="M107.478 68.1663L105.003 67.573C104.927 69.0727 104.919 70.9291 105.029 73.2259C106.168 71.9301 107.624 69.9062 107.478 68.1663Z" fill="black"/>
<path opacity="0.2" d="M109.924 142.968L110.055 146.026H112.618L112.487 142.968H109.924Z" fill="black"/>
<path opacity="0.2" d="M129.02 142.189L126.515 142.732L127.811 145.578L130.316 145.036L129.02 142.189Z" fill="black"/>
<path d="M116.455 52.4743C115.799 54.9277 115.537 56.3982 114.023 57.4174C111.748 58.9681 108.909 57.1918 108.836 54.6001C108.756 52.2596 109.844 48.6378 112.476 48.1427C113.054 48.0342 113.651 48.0747 114.209 48.2604C114.767 48.4462 115.269 48.7711 115.667 49.2044C116.065 49.6378 116.347 50.1654 116.484 50.7375C116.622 51.3095 116.612 51.9073 116.455 52.4743Z" fill="#FF8B7B"/>
<path d="M110.711 52.5653C110.587 52.2377 110.023 49.7006 110.554 49.0418C111.086 48.3829 117.146 48.8598 118.042 49.7406C119.53 51.1966 118.497 52.507 116.869 54.1924C115.646 55.4591 115.599 56.886 114.98 57.1044C113.888 57.4684 112.221 57.1262 111.886 55.9723C111.551 54.8184 110.711 52.5653 110.711 52.5653Z" fill="#263238"/>
<path d="M117.306 46.8541C115.166 45.9441 111.151 46.9524 108.982 46.4282C108.954 47.2349 109.219 48.0243 109.728 48.6506C110.238 49.2769 110.956 49.6977 111.752 49.8353C113.551 50.1782 115.38 50.3477 117.212 50.3412C119.592 50.232 119.126 47.6294 117.306 46.8541Z" fill="#263238"/>
<path d="M117.641 49.8171C118.423 49.894 119.21 49.7436 119.909 49.3839C120.309 50.3522 118.107 50.6179 117.641 49.8171Z" fill="#263238"/>
<path d="M111.875 52.6672C111.826 53.2985 111.57 53.8959 111.147 54.3671C110.587 54.9822 110.004 54.5964 109.906 53.8502C109.819 53.1732 110.001 52.0302 110.685 51.7026C111.369 51.375 111.923 51.9064 111.875 52.6672Z" fill="#FF8B7B"/>
<path d="M110.907 83.771C110.907 83.771 113.819 103.336 115.41 110.667C117.153 118.693 126.523 145.247 126.523 145.247L131.106 144.253C131.106 144.253 124.554 122.61 123.098 111.388C121.969 102.768 119.752 83.7637 119.752 83.7637L110.907 83.771Z" fill="#5E53B8"/>
<path d="M125.423 143.722C125.405 143.722 126.279 145.382 126.279 145.382L131.433 144.264L131 142.714L125.423 143.722Z" fill="#263238"/>
<path opacity="0.3" d="M112.745 90.7416C116.105 91.4004 115.748 103.929 115.344 110.376C114.376 105.818 112.956 97.0534 111.988 90.8326C112.223 90.7168 112.49 90.6847 112.745 90.7416Z" fill="black"/>
<path d="M106.048 83.771C106.048 83.771 105.684 102.914 105.975 110.707C106.266 118.828 109.102 145.418 109.102 145.418H113.441C113.441 145.418 113.597 119.301 113.805 111.326C114.016 102.634 115.064 83.7565 115.064 83.7565L106.048 83.771Z" fill="#5E53B8"/>
<path d="M108.268 143.707C108.246 143.707 108.512 145.505 108.512 145.505H113.786L113.932 143.9L108.268 143.707Z" fill="#263238"/>
<path d="M110.747 64.9158C111.974 68.2245 104.763 72.123 104.763 72.123L101.64 68.119C101.64 68.119 103.74 63.9621 106.288 62.0911C109.437 59.7834 109.812 62.3969 110.747 64.9158Z" fill="#5E53B8"/>
<path opacity="0.4" d="M110.747 64.9158C111.974 68.2245 104.763 72.123 104.763 72.123L101.64 68.119C101.64 68.119 103.74 63.9621 106.288 62.0911C109.437 59.7834 109.812 62.3969 110.747 64.9158Z" fill="black"/>
<path d="M139.001 39.7961C146.256 39.7961 152.137 36.0479 152.137 31.4241C152.137 26.8004 146.256 23.0521 139.001 23.0521C131.745 23.0521 125.864 26.8004 125.864 31.4241C125.864 36.0479 131.745 39.7961 139.001 39.7961Z" fill="#5E53B8"/>
<path d="M134.261 35.6392C133.396 35.6364 132.559 35.3288 131.898 34.7702C131.237 34.2117 130.794 33.4381 130.647 32.5853C130.502 31.6615 130.71 30.7172 131.231 29.9401C131.751 29.1631 132.544 28.6104 133.453 28.392C134.199 28.2201 134.981 28.2863 135.687 28.5815C136.394 28.8766 136.99 29.3857 137.392 30.0373L145.826 28.2974C146.15 28.2264 146.489 28.2803 146.775 28.4483C147.061 28.6163 147.273 28.8861 147.369 29.2037C147.413 29.3707 147.423 29.545 147.397 29.7158C147.372 29.8866 147.312 30.0505 147.221 30.1973C147.13 30.3442 147.01 30.4709 146.868 30.5698C146.727 30.6687 146.566 30.7377 146.397 30.7726L146.179 30.8162C146.146 30.8221 146.116 30.8353 146.089 30.8548C146.063 30.8744 146.041 30.8998 146.026 30.9291C146.012 30.9588 146.005 30.9911 146.005 31.0237C146.005 31.0564 146.012 31.0886 146.026 31.1184L146.175 31.5042C146.225 31.6293 146.23 31.7679 146.189 31.8961C146.148 32.0243 146.063 32.1342 145.949 32.2067C145.86 32.262 145.784 32.337 145.728 32.4259C145.672 32.5148 145.637 32.6154 145.625 32.72C145.615 32.84 145.566 32.9535 145.487 33.0444C145.408 33.1352 145.302 33.1988 145.185 33.2259L145.014 33.2623C144.895 33.2842 144.773 33.2678 144.664 33.2155C144.556 33.1631 144.466 33.0775 144.41 32.9711C144.334 32.8442 144.221 32.7439 144.086 32.6844C143.95 32.6249 143.8 32.6091 143.655 32.6391C143.511 32.6692 143.379 32.7436 143.279 32.8521C143.178 32.9605 143.114 33.0976 143.096 33.2441C143.086 33.3633 143.038 33.4763 142.959 33.5666C142.881 33.6569 142.776 33.7198 142.659 33.7464L142.488 33.7828C142.369 33.8042 142.247 33.7875 142.138 33.7352C142.03 33.6829 141.941 33.5977 141.884 33.4916C141.829 33.4014 141.756 33.324 141.668 33.2649C141.581 33.2059 141.482 33.1665 141.378 33.1495C141.238 33.1326 141.109 33.0653 141.015 32.9601C140.921 32.8548 140.869 32.719 140.868 32.578V32.163C140.867 32.1306 140.858 32.0988 140.843 32.0699C140.828 32.041 140.807 32.0157 140.782 31.9957C140.756 31.9756 140.727 31.9613 140.695 31.9538C140.663 31.9462 140.631 31.9456 140.599 31.9519L137.909 32.5052C137.799 33.2504 137.462 33.9438 136.945 34.4909C136.427 35.038 135.753 35.4122 135.015 35.5628C134.767 35.6135 134.514 35.6391 134.261 35.6392ZM133.533 28.7232C132.708 28.9161 131.986 29.4146 131.513 30.1184C131.04 30.8221 130.852 31.6789 130.985 32.5161C131.129 33.295 131.546 33.997 132.162 34.495C132.777 34.993 133.551 35.2543 134.343 35.2314C135.134 35.2085 135.892 34.9031 136.477 34.3703C137.063 33.8376 137.439 33.1127 137.537 32.3268V32.1958L140.504 31.5952C140.589 31.5746 140.678 31.5732 140.763 31.5912C140.849 31.6091 140.93 31.6459 140.999 31.6989C141.069 31.7518 141.126 31.8197 141.166 31.8975C141.207 31.9752 141.229 32.061 141.232 32.1485V32.5634C141.233 32.6128 141.251 32.6605 141.282 32.6983C141.314 32.736 141.358 32.7617 141.407 32.7709C141.566 32.7937 141.718 32.8524 141.851 32.9426C141.984 33.0328 142.095 33.1521 142.175 33.2914C142.194 33.3307 142.225 33.363 142.264 33.3839C142.302 33.4048 142.346 33.4132 142.39 33.4079L142.557 33.3715C142.599 33.3606 142.637 33.3363 142.665 33.3022C142.692 33.2681 142.708 33.226 142.71 33.1822C142.733 32.9556 142.827 32.7422 142.979 32.5728C143.132 32.4034 143.334 32.2867 143.557 32.2397C143.779 32.1927 144.011 32.2178 144.219 32.3113C144.427 32.4048 144.599 32.562 144.712 32.76C144.731 32.799 144.761 32.8312 144.799 32.8521C144.837 32.8729 144.88 32.8815 144.923 32.8765L145.098 32.8401C145.139 32.8285 145.176 32.8039 145.203 32.7699C145.23 32.7358 145.245 32.6941 145.247 32.6508C145.265 32.491 145.319 32.3374 145.406 32.2018C145.492 32.0661 145.608 31.952 145.746 31.8682C145.786 31.8393 145.815 31.7978 145.829 31.7503C145.843 31.7028 145.84 31.6521 145.822 31.6061L145.673 31.2203C145.642 31.1407 145.629 31.0554 145.634 30.9703C145.64 30.8851 145.664 30.8022 145.705 30.7274C145.746 30.6525 145.803 30.5874 145.871 30.5368C145.94 30.4861 146.019 30.4511 146.102 30.434L146.324 30.3867C146.445 30.3611 146.558 30.3115 146.659 30.2409C146.759 30.1703 146.845 30.0801 146.91 29.9758C146.974 29.8715 147.018 29.7551 147.037 29.6337C147.055 29.5123 147.05 29.3884 147.02 29.2692C146.949 29.0402 146.794 28.8464 146.586 28.7269C146.378 28.6074 146.132 28.571 145.898 28.625L137.228 30.4268L137.162 30.3139C136.814 29.6938 136.273 29.2038 135.622 28.9182C134.97 28.6325 134.244 28.5667 133.552 28.7305L133.533 28.7232ZM134.261 34.2852C133.809 34.2902 133.365 34.1637 132.984 33.9212C132.532 33.6248 132.198 33.1811 132.037 32.6657C131.876 32.1502 131.899 31.5949 132.102 31.0945C132.305 30.5941 132.675 30.1794 133.149 29.9213C133.623 29.6632 134.172 29.5776 134.703 29.679C135.233 29.7804 135.712 30.0627 136.057 30.4776C136.403 30.8925 136.594 31.4144 136.597 31.9544C136.601 32.4943 136.418 33.0189 136.078 33.4386C135.738 33.8583 135.263 34.1472 134.735 34.256C134.58 34.2841 134.422 34.2963 134.265 34.2924L134.261 34.2852ZM134.261 29.9863C134.126 29.9871 133.99 30.0005 133.857 30.0264C133.604 30.0804 133.363 30.1838 133.15 30.3308C132.936 30.4777 132.754 30.6653 132.612 30.8828C132.471 31.1003 132.374 31.3435 132.327 31.5984C132.28 31.8534 132.284 32.1151 132.338 32.3687C132.392 32.6223 132.495 32.8627 132.642 33.0764C132.789 33.29 132.977 33.4725 133.194 33.6137C133.412 33.7548 133.655 33.8517 133.91 33.8988C134.165 33.946 134.426 33.9424 134.68 33.8884C135.061 33.8091 135.409 33.619 135.682 33.3418C135.955 33.0647 136.14 32.713 136.213 32.3311C136.286 31.9492 136.244 31.5542 136.093 31.1959C135.942 30.8376 135.689 30.5319 135.364 30.3176C135.042 30.1032 134.663 29.9904 134.276 29.9936L134.261 29.9863Z" fill="#058275"/>
<path opacity="0.6" d="M128.31 44.7064C130.694 44.7064 132.627 43.4744 132.627 41.9546C132.627 40.4348 130.694 39.2028 128.31 39.2028C125.926 39.2028 123.993 40.4348 123.993 41.9546C123.993 43.4744 125.926 44.7064 128.31 44.7064Z" fill="#5E53B8"/>
<path opacity="0.3" d="M121.441 45.8349C122.42 45.8349 123.214 45.3297 123.214 44.7065C123.214 44.0833 122.42 43.5781 121.441 43.5781C120.462 43.5781 119.669 44.0833 119.669 44.7065C119.669 45.3297 120.462 45.8349 121.441 45.8349Z" fill="#5E53B8"/>
</svg>
