<svg width="375" height="264" viewBox="0 0 375 264" fill="none" xmlns="http://www.w3.org/2000/svg">
<path d="M255.926 58.6555H192.286V170.972H255.926V58.6555Z" fill="#FEFFE8"/>
<path d="M256.544 85.8951V85.1875H242.99V58.0325H242.077V85.1875H226.184V57.2352H222.631V85.1875H206.263V58.0325H205.349V85.1875H192.218V85.8951H205.307V113.04H192.218V116.593H205.307V144.852H192.218V145.559H205.307V170.956H206.22V145.559H222.588V170.164H226.184V145.559H242.077V170.956H242.99V145.559H256.544V144.852H242.99V116.593H256.544V113.04H242.99V85.8951H256.544ZM206.22 85.8951H222.588V113.04H206.22V85.8951ZM206.22 144.852V116.593H222.588V144.852H206.22ZM242.077 144.852H226.184V116.593H242.077V144.852ZM242.077 113.04H226.184V85.8951H242.077V113.04Z" fill="#8F8AB8"/>
<path d="M62.4512 191.875V237.23H130.436V191.506L62.4512 191.875Z" fill="#FAFAFA"/>
<path d="M127.865 194.689H65.0172V206.163H127.865V194.689Z" fill="#FEFFE8"/>
<path d="M127.865 208.85H65.0172V220.324H127.865V208.85Z" fill="#FEFFE8"/>
<path d="M127.865 223.017H65.0172V234.49H127.865V223.017Z" fill="#FEFFE8"/>
<path d="M84.5004 194.689H65.0172V206.163H84.5004V194.689Z" fill="#8F8AB8"/>
<path d="M84.5004 208.85H65.0172V220.324H84.5004V208.85Z" fill="#8F8AB8"/>
<path d="M84.4159 222.938H64.9327V234.411H84.4159V222.938Z" fill="#8F8AB8"/>
<path d="M73.592 191.506C73.1923 190.502 73.1923 189.383 73.592 188.38H91.544V191.506H73.592Z" fill="#FEFFE8"/>
<path d="M73.8771 188.85V191.036L91.544 190.793V188.85H73.8771Z" fill="#8F8AB8"/>
<path d="M75.4241 188.38C75.023 187.375 75.023 186.254 75.4241 185.249H93.3761V188.38H75.4241Z" fill="#8F8AB8"/>
<path d="M75.704 185.719V187.91L93.3761 187.662V185.719H75.704Z" fill="#8F8AB8"/>
<path d="M74.4685 182.118C74.1147 180.866 74.0303 179.927 74.4685 178.01L92.4205 177.482V182.123L74.4685 182.118Z" fill="#EBEBEB"/>
<path d="M75.1284 178.95L75.1812 181.547L92.4151 181.268V178.3L75.1284 178.95Z" fill="#8F8AB8"/>
<path d="M73.592 185.249C73.1909 184.244 73.1909 183.123 73.592 182.118H91.544V185.249H73.592Z" fill="#8F8AB8"/>
<path d="M74.1675 182.831V184.436L91.544 184.531V182.588L74.1675 182.831Z" fill="#8F8AB8"/>
<path d="M75.704 177.973C75.4741 177.482 75.3549 176.947 75.3549 176.405C75.3549 175.863 75.4741 175.327 75.704 174.837L93.3762 174.541C93.6628 174.977 93.8155 175.487 93.8155 176.009C93.8155 176.531 93.6628 177.041 93.3762 177.477L75.704 177.973Z" fill="#FEFFE8"/>
<path d="M80.7517 176.035V176.959L89.8544 176.5V175.539L80.7517 176.035Z" fill="#8F8AB8"/>
<path d="M79.7696 176.452C79.7694 176.563 79.7361 176.671 79.674 176.763C79.6118 176.855 79.5236 176.926 79.4208 176.967C79.3179 177.008 79.2051 177.017 79.0969 176.993C78.9887 176.97 78.8901 176.914 78.8137 176.834C78.7373 176.754 78.6867 176.653 78.6684 176.543C78.6501 176.434 78.6649 176.322 78.7109 176.221C78.757 176.121 78.8321 176.036 78.9267 175.978C79.0213 175.921 79.1309 175.893 79.2416 175.898C79.3132 175.898 79.3841 175.912 79.4499 175.941C79.5158 175.969 79.5752 176.01 79.6246 176.062C79.674 176.114 79.7123 176.175 79.7372 176.242C79.7621 176.309 79.7731 176.381 79.7696 176.452Z" fill="#8F8AB8"/>
<path d="M104.1 206.163L110.24 196.627L116.978 206.163H104.1Z" fill="#8F8AB8"/>
<path d="M110.24 196.627L110.536 206.163H104.1L110.24 196.627Z" fill="#F5F5F5"/>
<path d="M118.578 206.163L121.191 202.541L124.301 206.163H118.578Z" fill="#8F8AB8"/>
<path d="M121.191 202.541L121.439 206.163H118.578L121.191 202.541Z" fill="#F5F5F5"/>
<path d="M108.804 181.838L108.276 191.59H117.675L117.321 181.838H108.804Z" fill="#8F8AB8"/>
<path d="M112.374 179.024C112.374 179.024 109.417 178.976 109.28 176.69C109.28 176.69 111.835 175.523 112.374 179.024Z" fill="#E6E6E6"/>
<path d="M109.396 172.476C109.396 172.476 108.276 174.625 110.98 175.523C110.964 175.523 111.608 172.698 109.396 172.476Z" fill="#F5F5F5"/>
<path d="M106.17 176.019C106.17 176.019 105.969 178.274 109.105 178.464C109.105 178.464 109.105 175.634 106.17 176.019Z" fill="#F5F5F5"/>
<path d="M112.664 176.827C112.564 176.591 112.522 176.335 112.543 176.079C112.564 175.824 112.647 175.577 112.784 175.361C112.921 175.144 113.108 174.964 113.33 174.836C113.552 174.708 113.802 174.636 114.058 174.625C114.058 174.625 114.855 176.405 112.664 176.827Z" fill="#F5F5F5"/>
<path d="M115.938 177.683C115.938 177.683 115.758 175.977 117.865 175.708C117.865 175.708 118.044 177.144 115.938 177.683Z" fill="#F5F5F5"/>
<path d="M112.78 178.575C112.78 178.575 109.723 177.757 108.493 179.631C108.493 179.631 110.383 180.914 112.342 180.423L114.222 179.034C114.222 179.034 115.425 177.118 115.019 176.394C115.019 176.405 112.548 177.229 112.78 178.575Z" fill="#E6E6E6"/>
<path d="M117.516 180.391C117.516 180.391 119.919 180.301 119.628 177.646C118.988 177.739 118.41 178.078 118.016 178.59C117.621 179.103 117.442 179.749 117.516 180.391Z" fill="#F5F5F5"/>
<path d="M114.776 178.269C114.776 178.269 116.798 178.506 117.168 179.209C117.168 179.209 115.879 181.468 113.377 179.599C113.35 179.599 112.854 178.29 114.776 178.269Z" fill="#E6E6E6"/>
<path d="M112.342 180.412L110.563 180.338L110.436 181.843H115.684L116.888 181.104C116.888 181.104 117.131 180.412 114.818 180.354L113.995 179.298H112.564L112.342 180.412Z" fill="#E6E6E6"/>
<path d="M112.252 180.861C112.252 180.861 110.235 178.464 107.912 180.365C107.912 180.365 109.876 182.878 112.252 180.861Z" fill="#F5F5F5"/>
<path d="M115.13 180.048C115.161 180.222 112.49 180.729 112.252 178.226C112.252 178.221 114.581 177.144 115.13 180.048Z" fill="#F5F5F5"/>
<path d="M76.6332 218.064C76.6581 217.534 76.8816 217.033 77.2593 216.66C77.6369 216.287 78.141 216.07 78.6713 216.052L95.2875 215.667V220.229H78.7241C78.444 220.226 78.1673 220.168 77.91 220.057C77.6527 219.946 77.42 219.786 77.2255 219.584C77.0309 219.383 76.8783 219.145 76.7766 218.884C76.675 218.623 76.6262 218.344 76.6332 218.064Z" fill="#FEFFE8"/>
<path d="M78.3439 216.924C78.119 217.302 78.0002 217.734 78.0002 218.175C78.0002 218.615 78.119 219.048 78.3439 219.426H95.3139V216.427L78.3439 216.924Z" fill="#8F8AB8"/>
<path d="M80.7991 213.988C80.8085 213.571 80.9785 213.173 81.2735 212.878C81.5685 212.583 81.966 212.413 82.3831 212.404L95.3297 212.092V215.651H82.4148C82.1992 215.649 81.9861 215.604 81.7879 215.519C81.5897 215.434 81.4103 215.311 81.2601 215.156C81.1099 215.002 80.9918 214.819 80.9126 214.618C80.8335 214.418 80.7949 214.203 80.7991 213.988Z" fill="#EBEBEB"/>
<path d="M82.1087 213.132C81.934 213.428 81.8419 213.766 81.8419 214.109C81.8419 214.453 81.934 214.79 82.1087 215.086H95.3087V212.752L82.1087 213.132Z" fill="#8F8AB8"/>
<path d="M95.3614 209.827L95.3245 220.297L97.5104 220.324V209.827H95.3614Z" fill="#8F8AB8"/>
<path d="M99.9973 211.279L99.9392 220.297L103.324 220.324V211.279H99.9973Z" fill="#8F8AB8"/>
<path d="M97.5579 211.279L97.5367 220.297L98.6297 220.324V211.279H97.5579Z" fill="#8F8AB8"/>
<path d="M103.345 211.279L103.324 220.297L104.417 220.324V211.279H103.345Z" fill="#8F8AB8"/>
<path d="M98.4661 209.827L98.4397 220.297L99.9339 220.324V209.827H98.4661Z" fill="#FEFFE8"/>
<path d="M104.491 209.827L104.464 220.297L105.953 220.324V209.827H104.491Z" fill="#8F8AB8"/>
<path d="M119.259 220.176H114.158L110.462 216.506L110.504 216.464L114.2 212.768L117.944 212.488L122.078 215.741L119.259 220.176ZM114.216 220.044H119.185L121.909 215.783L117.891 212.615L114.195 212.89L110.61 216.48L114.216 220.044Z" fill="#8F8AB8"/>
<path d="M115.225 220.16L112.379 216.147L112.395 216.11L114.169 212.736L115.262 213.808H116.983L117.912 212.446L120.024 215.778L120.003 215.809L117.828 220.15L117.706 220.091L119.871 215.783L117.907 212.689L117.052 213.94H115.209L115.188 213.919L114.206 212.958L112.532 216.137L115.33 220.086L115.225 220.16Z" fill="#8F8AB8"/>
<path d="M110.547 216.57L110.531 216.438L114.523 215.883L118.72 215.714H121.999V215.846H118.72L114.533 216.015L110.547 216.57Z" fill="#8F8AB8"/>
<path d="M115.748 220.144L114.459 215.947L114.47 215.926L115.172 213.856L115.299 213.898L114.602 215.952L115.874 220.102L115.748 220.144Z" fill="#8F8AB8"/>
<path d="M116.888 220.139L116.761 220.102L118.018 215.788L116.962 213.909L117.078 213.84L118.16 215.772L118.155 215.799L116.888 220.139Z" fill="#8F8AB8"/>
<path d="M307.554 81.6552H285.209V109.861H307.554V81.6552Z" fill="#F5F5F5"/>
<path d="M298.071 109.233H294.972V109.982H298.071V109.233Z" fill="#8F8AB8"/>
<path d="M297.094 91.3651L292.976 91.9723L291.445 95.8373L294.021 99.1003L298.135 98.4984L299.671 94.6282L297.094 91.3651Z" fill="#EBEBEB"/>
<path d="M299.016 93.8678L294.903 94.4697L293.367 98.3347L295.943 101.598L300.062 100.996L301.598 97.1308L299.016 93.8678Z" fill="#8F8AB8"/>
<path d="M298.509 81.275H295.41V81.9192H298.509V81.275Z" fill="#8F8AB8"/>
<path d="M89.5587 112.955H76.1581V129.877H89.5587V112.955Z" fill="#FEFFE8"/>
<path d="M83.8721 129.497H82.0135V129.946H83.8721V129.497Z" fill="#8F8AB8"/>
<path d="M83.286 118.779L80.8202 119.143L79.8962 121.461L81.4433 123.415L83.9143 123.056L84.833 120.738L83.286 118.779Z" fill="#E6E6E6"/>
<path d="M84.4424 120.278L81.9713 120.637L81.0526 122.961L82.5996 124.914L85.0654 124.555L85.9894 122.237L84.4424 120.278Z" fill="#8F8AB8"/>
<path d="M84.1362 112.723H82.2776V113.108H84.1362V112.723Z" fill="#8F8AB8"/>
<path d="M142.232 76.9032L146.942 88.9469L144.017 88.931L141.667 81.5285L142.232 76.9032Z" fill="#8F8AB8"/>
<path d="M126.16 65.7729L124.539 88.8466L141.245 89.2003L143.124 65.7729H126.16Z" fill="#FEFFE8"/>
<path d="M127.828 67.6315L126.482 86.8402L138.9 87.421L140.637 67.5206L127.828 67.6315Z" fill="#8F8AB8"/>
<path d="M130.553 70.3455L129.549 83.8517H136.398L137.607 70.3455H130.553Z" fill="#8F8AB8"/>
<path d="M101.349 89.0314V70.0551H115.246V89.0155L101.349 89.0314Z" fill="#FEFFE8"/>
<path d="M109.248 70.055C109.248 70.055 112.601 45.5611 111.661 45.5928C110.721 45.6245 108.366 67.9272 108.366 67.9272C108.366 67.9272 108.266 49.4472 107.384 49.5581C106.502 49.669 107.384 69.0941 107.384 69.0941C107.384 69.0941 105.874 53.3069 105.056 53.6818C104.237 54.0566 105.404 70.0498 105.404 70.0498H109.248" fill="#8F8AB8"/>
<path d="M106.724 70.055C106.724 70.055 107.886 57.8477 108.266 58.6819C108.646 59.5162 108.266 65.9525 108.266 65.9525C108.266 65.9525 111.487 50.16 112.326 50.688C113.166 51.216 109.031 67.811 109.031 67.811C109.031 67.811 112.173 58.344 112.865 59.363C113.556 60.3821 110.262 69.2419 110.262 69.2419C110.262 69.2419 113.63 62.964 113.857 63.8035C114.084 64.643 112.273 70.055 112.273 70.055H106.724Z" fill="#FEFFE8"/>
<path d="M104.744 70.1289C104.744 70.1289 97.315 55.5456 98.2337 55.9996C99.1524 56.4537 103.899 65.8732 103.899 65.8732C103.899 65.8732 100.731 56.7758 101.449 56.5012C102.167 56.2267 105.583 66.7128 105.583 66.7128L106.36 70.1289H104.744Z" fill="#FEFFE8"/>
<path d="M107.78 70.0867L108.134 89.063H101.528L101.396 70.0233L107.78 70.0867Z" fill="#8F8AB8"/>
<path d="M101.365 71.7288L107.764 71.8396L115.246 71.7288L115.478 69.9177H101.185L101.365 71.7288Z" fill="#F5F5F5"/>
<path d="M154.154 88.7198H94.9232V91.7717H154.154V88.7198Z" fill="#8F8AB8"/>
<path d="M333.336 237.473C333.336 237.552 266.919 237.616 185.005 237.616C103.091 237.616 36.6637 237.552 36.6637 237.473C36.6637 237.394 103.065 237.331 185.032 237.331C266.998 237.331 333.336 237.394 333.336 237.473Z" fill="#263238"/>
<path d="M189.007 108.594C189.613 108.641 190.222 108.566 190.798 108.372C191.374 108.178 191.905 107.87 192.359 107.467C192.813 107.063 193.181 106.572 193.441 106.022C193.701 105.473 193.847 104.877 193.87 104.269C193.965 101.814 194.05 99.3274 194.05 99.3274C194.05 99.3274 197.772 98.9842 198.047 95.2987C198.321 91.6133 198.205 83.1019 198.205 83.1019C196.161 82.0754 193.88 81.613 191.598 81.7624C189.316 81.9119 187.114 82.6677 185.222 83.952L184.651 84.3427L184.842 104.164C184.86 105.288 185.298 106.365 186.068 107.184C186.838 108.003 187.886 108.506 189.007 108.594Z" fill="#B78876"/>
<path d="M196.447 89.5858C196.397 89.5366 196.357 89.4779 196.33 89.4131C196.302 89.3483 196.288 89.2786 196.288 89.2083C196.288 89.138 196.302 89.0683 196.33 89.0035C196.357 88.9387 196.397 88.88 196.447 88.8308C196.521 88.7581 196.615 88.709 196.718 88.6896C196.82 88.6702 196.925 88.6813 197.021 88.7216C197.117 88.7619 197.199 88.8296 197.256 88.9162C197.314 89.0028 197.344 89.1044 197.344 89.2083C197.344 89.3122 197.314 89.4138 197.256 89.5004C197.199 89.587 197.117 89.6547 197.021 89.695C196.925 89.7353 196.82 89.7464 196.718 89.727C196.615 89.7076 196.521 89.6585 196.447 89.5858Z" fill="#263238"/>
<path d="M197.883 88.9681C197.82 89.0262 197.477 88.7252 196.97 88.6935C196.463 88.6619 196.077 88.8995 196.025 88.8308C195.972 88.7622 196.062 88.6883 196.231 88.5721C196.457 88.4287 196.724 88.3637 196.991 88.3873C197.258 88.4054 197.511 88.5091 197.714 88.683C197.862 88.8203 197.91 88.9417 197.883 88.9681Z" fill="#263238"/>
<path d="M191.632 88.8889C191.69 88.9289 191.74 88.9804 191.779 89.0401C191.817 89.0999 191.843 89.1668 191.854 89.2368C191.866 89.3068 191.864 89.3785 191.847 89.4475C191.831 89.5165 191.801 89.5815 191.758 89.6386C191.677 89.7548 191.552 89.8338 191.412 89.858C191.272 89.8823 191.128 89.8499 191.011 89.768C190.895 89.6861 190.816 89.5613 190.792 89.4212C190.768 89.2811 190.8 89.1371 190.882 89.0209C190.922 88.9618 190.973 88.9114 191.032 88.8727C191.092 88.8339 191.159 88.8076 191.229 88.7952C191.299 88.7829 191.371 88.7848 191.44 88.8009C191.509 88.817 191.574 88.8469 191.632 88.8889Z" fill="#263238"/>
<path d="M192.339 89.079C192.276 89.1371 191.933 88.8361 191.426 88.8044C190.919 88.7727 190.533 89.0103 190.481 88.9417C190.428 88.873 190.518 88.7991 190.687 88.6882C190.914 88.5461 191.18 88.4796 191.447 88.4982C191.715 88.5142 191.97 88.6203 192.17 88.7991C192.323 88.9311 192.392 89.0526 192.339 89.079Z" fill="#263238"/>
<path d="M194.145 93.0231C194.412 92.936 194.693 92.8949 194.974 92.9016C195.106 92.9016 195.217 92.8699 195.227 92.8013C195.242 92.6689 195.219 92.535 195.159 92.4159L194.821 91.3599C194.493 90.4641 194.257 89.537 194.119 88.5931C194.533 89.4506 194.86 90.3474 195.095 91.2701C195.206 91.6397 195.307 91.9882 195.412 92.3261C195.487 92.5014 195.5 92.6968 195.449 92.8805C195.428 92.9312 195.395 92.9759 195.352 93.0109C195.31 93.0458 195.26 93.0699 195.206 93.0811C195.131 93.0908 195.055 93.0908 194.979 93.0811C194.7 93.111 194.417 93.0914 194.145 93.0231Z" fill="#263238"/>
<path d="M192.455 93.4824C192.762 93.6197 193.865 94.3483 194.905 94.3642C194.715 94.6195 194.444 94.8032 194.137 94.8856C193.829 94.968 193.503 94.9443 193.21 94.8183C192.133 94.3483 192.455 93.4824 192.455 93.4824Z" fill="#8F8AB8"/>
<path d="M194.06 99.264C192.346 99.1973 190.691 98.6179 189.308 97.6008C189.308 97.6008 190.28 100.325 193.981 100.241L194.06 99.264Z" fill="#A36957"/>
<path d="M184.857 88.873C184.858 88.7299 184.803 88.5922 184.705 88.4881C184.607 88.384 184.472 88.3215 184.329 88.3134C183.638 88.3134 182.513 88.5668 182.408 90.4676C182.26 93.1815 184.868 92.5004 184.879 92.4265C184.889 92.3526 184.863 89.9238 184.857 88.873Z" fill="#B78876"/>
<path d="M184.271 91.3441C184.271 91.3441 184.224 91.3758 184.145 91.4074C184.031 91.4541 183.904 91.4541 183.791 91.4074C183.624 91.29 183.491 91.1304 183.406 90.9449C183.32 90.7594 183.286 90.5547 183.305 90.3514C183.311 90.1182 183.369 89.8892 183.474 89.6809C183.505 89.5981 183.555 89.5239 183.62 89.4643C183.686 89.4046 183.764 89.3612 183.849 89.3377C183.905 89.3262 183.963 89.3347 184.013 89.3617C184.063 89.3887 184.102 89.4326 184.124 89.4855C184.155 89.5594 184.124 89.6122 184.15 89.6175C184.176 89.6228 184.208 89.5806 184.192 89.4644C184.184 89.3962 184.15 89.3337 184.097 89.2902C184.025 89.2291 183.932 89.1988 183.838 89.2057C183.724 89.2195 183.615 89.2628 183.523 89.3313C183.43 89.3998 183.357 89.4911 183.31 89.5964C183.185 89.8271 183.114 90.0837 183.105 90.3462C183.078 90.5873 183.123 90.8309 183.235 91.0461C183.347 91.2614 183.52 91.4386 183.733 91.5553C183.804 91.5786 183.88 91.5864 183.954 91.5782C184.029 91.57 184.101 91.546 184.166 91.5078C184.266 91.4233 184.282 91.3441 184.271 91.3441Z" fill="#A36957"/>
<path d="M197.419 82.1252C194.39 81.0214 191.107 80.8106 187.962 81.518C187.962 81.518 184.794 82.6215 184.652 84.3164C184.566 85.7025 184.58 87.0929 184.694 88.477H184.889L184.921 91.3176H186.056L186.22 87.4791C186.22 87.4791 188.39 85.9796 188.432 83.6458C189.488 83.5032 194.684 82.896 198.221 84.1052V83.2815C198.219 83.0303 198.142 82.7855 197.999 82.5791C197.856 82.3728 197.653 82.2146 197.419 82.1252Z" fill="#263238"/>
<path d="M152.264 222.589L157.016 220.525L153.204 211.617L146.234 214.569L146.435 215.134C147.354 217.652 151.271 227.864 152.475 229.289C153.79 230.884 152.264 222.589 152.264 222.589Z" fill="#8F8AB8"/>
<path d="M147.66 217.768C148.354 217.314 148.858 216.621 149.075 215.82C149.291 215.03 149.203 214.188 148.827 213.46L146.34 214.516L147.66 217.768Z" fill="#263238"/>
<path d="M152.871 226.697C152.871 226.697 153.241 229.68 152.665 229.532C152.09 229.384 147.734 219.22 146.208 214.569L146.414 214.5L151.388 226.401C151.388 226.401 152.628 226.19 152.871 226.697Z" fill="#263238"/>
<path d="M146.361 214.368C146.37 214.423 146.386 214.476 146.408 214.526L146.567 214.975C146.741 215.424 146.947 215.978 147.19 216.628C147.718 218.017 148.494 219.923 149.386 222.008C150.279 224.094 151.124 225.973 151.757 227.32L152.517 228.904L152.729 229.332C152.752 229.383 152.78 229.433 152.813 229.479C152.799 229.424 152.778 229.371 152.75 229.321C152.692 229.189 152.628 229.046 152.56 228.883C152.359 228.45 152.116 227.911 151.831 227.299C151.219 225.947 150.384 224.067 149.492 221.982C148.6 219.896 147.824 217.99 147.269 216.612C147.01 215.968 146.789 215.419 146.614 214.975C146.546 214.812 146.482 214.669 146.43 214.532C146.411 214.475 146.388 214.421 146.361 214.368Z" fill="#455A64"/>
<path d="M151.245 226.459C151.545 226.426 151.848 226.426 152.148 226.459C152.443 226.522 152.73 226.617 153.003 226.744C152.783 226.511 152.484 226.369 152.164 226.343C151.854 226.266 151.526 226.307 151.245 226.459Z" fill="#455A64"/>
<path d="M151.456 223.26C151.751 223.391 152.075 223.444 152.396 223.413C152.255 223.334 152.098 223.289 151.937 223.281C151.78 223.237 151.616 223.23 151.456 223.26Z" fill="#455A64"/>
<path d="M151.53 222.378C151.53 222.404 151.667 222.505 151.873 222.6C152.079 222.695 152.253 222.747 152.264 222.721C152.275 222.695 152.127 222.589 151.921 222.494C151.715 222.399 151.541 222.346 151.53 222.378Z" fill="#455A64"/>
<path d="M152.174 221.559C152.143 221.559 152.206 221.792 152.311 222.05C152.417 222.309 152.533 222.51 152.56 222.494C152.552 222.323 152.505 222.157 152.422 222.008C152.317 221.76 152.206 221.549 152.174 221.559Z" fill="#455A64"/>
<path d="M152.702 221.153C152.666 221.36 152.697 221.573 152.792 221.76C152.835 221.963 152.94 222.148 153.093 222.288C153.045 222.107 152.981 221.93 152.903 221.76C152.857 221.551 152.789 221.348 152.702 221.153Z" fill="#455A64"/>
<path d="M152.364 223.233C152.412 223.437 152.496 223.63 152.613 223.803C152.728 223.99 152.859 224.166 153.003 224.331C153.091 224.439 153.19 224.536 153.299 224.622C153.368 224.671 153.452 224.694 153.537 224.685C153.583 224.676 153.625 224.654 153.659 224.621C153.693 224.588 153.716 224.546 153.727 224.5C153.742 224.236 153.664 223.975 153.507 223.762C153.35 223.549 153.123 223.397 152.866 223.333C152.715 223.3 152.558 223.3 152.407 223.333C152.349 223.336 152.293 223.352 152.243 223.381C152.445 223.365 152.648 223.383 152.845 223.434C153.051 223.498 153.235 223.621 153.373 223.788C153.459 223.882 153.526 223.993 153.569 224.113C153.611 224.234 153.629 224.362 153.621 224.49C153.595 224.611 153.468 224.622 153.368 224.543C153.269 224.465 153.177 224.378 153.093 224.284C152.944 224.119 152.808 223.942 152.686 223.756C152.475 223.439 152.38 223.223 152.364 223.233Z" fill="#455A64"/>
<path d="M152.396 223.392C152.547 223.41 152.699 223.372 152.824 223.286C152.964 223.203 153.083 223.09 153.172 222.953C153.237 222.869 153.28 222.769 153.296 222.664C153.311 222.559 153.3 222.451 153.262 222.351C153.244 222.325 153.221 222.302 153.194 222.285C153.167 222.268 153.138 222.256 153.106 222.25C153.075 222.244 153.043 222.244 153.011 222.251C152.98 222.257 152.95 222.27 152.924 222.288C152.837 222.34 152.763 222.41 152.708 222.494C152.615 222.624 152.537 222.764 152.475 222.911C152.414 223.045 152.383 223.191 152.386 223.339C152.386 223.339 152.438 223.18 152.554 222.948C152.62 222.81 152.699 222.679 152.792 222.557C152.882 222.431 153.077 222.283 153.162 222.415C153.246 222.547 153.162 222.758 153.082 222.895C153.005 223.022 152.902 223.131 152.782 223.217C152.658 223.286 152.529 223.345 152.396 223.392Z" fill="#455A64"/>
<path d="M148.874 213.497C148.874 213.497 149.006 213.74 149.133 214.162C149.289 214.714 149.289 215.299 149.133 215.852C148.975 216.403 148.67 216.901 148.251 217.293C147.924 217.589 147.676 217.716 147.686 217.731C147.75 217.718 147.811 217.693 147.866 217.657C148.021 217.569 148.168 217.467 148.304 217.351C148.758 216.967 149.086 216.454 149.244 215.88C149.403 215.307 149.384 214.699 149.191 214.136C149.133 213.969 149.059 213.808 148.969 213.655C148.922 213.544 148.88 213.492 148.874 213.497Z" fill="#455A64"/>
<path d="M152.977 212.832C152.342 213.03 151.72 213.267 151.113 213.539C150.491 213.771 149.884 214.042 149.297 214.352C150.556 213.915 151.79 213.407 152.993 212.832H152.977Z" fill="#455A64"/>
<path d="M149.011 218.518C149.092 218.985 149.234 219.44 149.434 219.87C149.602 220.317 149.825 220.741 150.099 221.132C150.126 221.132 149.846 220.546 149.571 219.828C149.297 219.109 149.043 218.508 149.011 218.518Z" fill="#455A64"/>
<path d="M148.267 216.77C148.235 216.77 148.161 216.871 148.056 216.987C147.95 217.103 147.839 217.188 147.855 217.214C147.871 217.24 148.019 217.214 148.14 217.066C148.262 216.918 148.293 216.781 148.267 216.77Z" fill="#455A64"/>
<path d="M148.8 215.762C148.774 215.762 148.705 215.846 148.653 215.978C148.6 216.11 148.579 216.227 148.605 216.242C148.631 216.258 148.705 216.158 148.758 216.021C148.811 215.883 148.832 215.773 148.8 215.762Z" fill="#455A64"/>
<path d="M148.774 214.658C148.748 214.658 148.8 214.796 148.806 214.949C148.811 215.102 148.806 215.223 148.806 215.239C148.806 215.255 148.927 215.123 148.917 214.938C148.906 214.754 148.795 214.637 148.774 214.658Z" fill="#455A64"/>
<path d="M148.663 213.914C148.631 213.914 148.605 213.988 148.61 214.072C148.615 214.157 148.642 214.225 148.674 214.225C148.705 214.225 148.732 214.157 148.726 214.067C148.721 213.977 148.695 213.914 148.663 213.914Z" fill="#455A64"/>
<path d="M213.232 234.765L213.76 229.617L204.129 228.561L203.285 236.079L203.876 236.18C206.516 236.618 217.34 238.207 219.188 237.859C221.216 237.489 213.232 234.765 213.232 234.765Z" fill="#8F8AB8"/>
<path d="M206.78 236.396C206.725 235.568 206.366 234.79 205.772 234.21C205.19 233.634 204.414 233.297 203.596 233.265L203.301 235.958L206.78 236.396Z" fill="#263238"/>
<path d="M217.118 236.238C217.118 236.238 219.895 237.373 219.484 237.822C219.072 238.271 208.079 237.056 203.279 236.106L203.316 235.889L216.152 237.384C216.152 237.384 216.553 236.201 217.118 236.238Z" fill="#263238"/>
<path d="M203.163 235.858L203.327 235.895L203.802 235.974L205.544 236.238C207.018 236.454 209.056 236.724 211.31 236.972C213.565 237.22 215.619 237.399 217.118 237.5L218.876 237.621H219.352C219.408 237.628 219.465 237.628 219.521 237.621H219.357L218.876 237.574L217.124 237.42C215.645 237.288 213.597 237.093 211.342 236.85C209.087 236.607 207.044 236.322 205.571 236.153L203.823 235.921L203.348 235.863C203.287 235.854 203.225 235.852 203.163 235.858Z" fill="#455A64"/>
<path d="M216.11 237.537C216.22 237.255 216.36 236.986 216.527 236.734C216.727 236.509 216.952 236.307 217.197 236.132C216.886 236.206 216.615 236.395 216.437 236.66C216.224 236.902 216.108 237.214 216.11 237.537Z" fill="#455A64"/>
<path d="M213.427 235.784C213.454 235.784 213.607 235.652 213.771 235.446C213.934 235.24 214.045 235.06 214.024 235.039C214.003 235.018 213.845 235.166 213.676 235.372C213.507 235.578 213.401 235.763 213.427 235.784Z" fill="#455A64"/>
<path d="M212.694 235.287C212.694 235.314 212.873 235.229 213.053 235.097C213.232 234.965 213.369 234.839 213.348 234.812C213.327 234.786 213.169 234.87 212.989 235.002C212.81 235.134 212.672 235.261 212.694 235.287Z" fill="#455A64"/>
<path d="M212.298 234.326C212.452 234.402 212.622 234.442 212.794 234.443C213.068 234.474 213.322 234.48 213.322 234.443C213.167 234.367 212.998 234.327 212.826 234.326C212.53 234.295 212.303 234.289 212.298 234.326Z" fill="#455A64"/>
<path d="M212.197 233.667C212.348 233.791 212.531 233.868 212.725 233.888C212.916 233.951 213.121 233.951 213.311 233.888C213.126 233.839 212.937 233.805 212.746 233.788C212.567 233.731 212.384 233.691 212.197 233.667Z" fill="#455A64"/>
<path d="M213.845 234.96C214.045 235.016 214.254 235.038 214.462 235.023C214.689 235.017 214.915 234.992 215.138 234.949C215.274 234.926 215.407 234.887 215.534 234.833C215.612 234.798 215.674 234.736 215.708 234.659C215.714 234.617 215.709 234.575 215.694 234.535C215.68 234.495 215.656 234.46 215.624 234.432C215.4 234.291 215.134 234.231 214.871 234.264C214.608 234.297 214.365 234.42 214.183 234.612C214.075 234.723 213.992 234.856 213.94 235.002C213.916 235.054 213.903 235.109 213.903 235.166C213.987 234.983 214.101 234.815 214.241 234.67C214.398 234.522 214.594 234.423 214.806 234.384C214.93 234.356 215.06 234.353 215.186 234.375C215.312 234.398 215.432 234.446 215.539 234.516C215.629 234.601 215.582 234.712 215.466 234.765C215.348 234.812 215.226 234.849 215.101 234.876C214.886 234.924 214.667 234.956 214.447 234.971C214.082 234.986 213.845 234.96 213.845 234.96Z" fill="#455A64"/>
<path d="M214.003 235.029C214.09 234.906 214.131 234.756 214.119 234.606C214.118 234.442 214.077 234.28 213.998 234.136C213.956 234.039 213.89 233.953 213.806 233.887C213.722 233.822 213.622 233.779 213.517 233.761C213.453 233.769 213.394 233.802 213.353 233.852C213.311 233.902 213.291 233.966 213.296 234.031C213.299 234.13 213.324 234.227 213.369 234.316C213.439 234.46 213.524 234.597 213.623 234.722C213.797 234.934 213.94 235.023 213.95 235.013C213.961 235.002 213.839 234.886 213.692 234.675C213.606 234.548 213.531 234.414 213.47 234.274C213.401 234.131 213.369 233.893 213.528 233.883C213.686 233.872 213.824 234.052 213.903 234.189C213.978 234.318 214.023 234.463 214.035 234.612C214.036 234.751 214.025 234.891 214.003 235.029Z" fill="#455A64"/>
<path d="M203.649 233.244C203.649 233.244 203.929 233.244 204.356 233.344C204.917 233.469 205.43 233.75 205.838 234.155C206.245 234.559 206.53 235.071 206.659 235.631C206.764 236.058 206.748 236.338 206.769 236.338C206.778 236.273 206.778 236.208 206.769 236.143C206.773 235.965 206.757 235.788 206.722 235.615C206.611 235.029 206.326 234.491 205.902 234.071C205.479 233.651 204.938 233.37 204.351 233.265C204.177 233.231 204 233.217 203.823 233.223C203.764 233.22 203.705 233.227 203.649 233.244Z" fill="#455A64"/>
<path d="M205.064 229.347C204.924 229.995 204.824 230.651 204.763 231.312C204.661 231.969 204.601 232.632 204.583 233.297C204.72 232.647 204.819 231.989 204.879 231.327C204.978 230.671 205.04 230.01 205.064 229.347Z" fill="#455A64"/>
<path d="M208.089 235.588C209.001 235.864 209.953 235.976 210.904 235.921C210.904 235.889 210.27 235.858 209.494 235.763C208.718 235.668 208.1 235.557 208.089 235.588Z" fill="#455A64"/>
<path d="M206.204 235.382C206.178 235.382 206.241 235.52 206.289 235.673C206.336 235.826 206.358 235.953 206.395 235.953C206.431 235.953 206.458 235.81 206.395 235.636C206.331 235.462 206.226 235.361 206.204 235.382Z" fill="#455A64"/>
<path d="M205.592 234.432C205.566 234.432 205.592 234.559 205.703 234.675C205.814 234.791 205.888 234.86 205.909 234.839C205.93 234.818 205.882 234.712 205.798 234.601C205.713 234.49 205.592 234.4 205.592 234.432Z" fill="#455A64"/>
<path d="M204.615 233.904C204.615 233.936 204.747 233.946 204.885 234.015C205.022 234.084 205.112 234.168 205.138 234.147C205.164 234.126 205.101 233.983 204.932 233.909C204.763 233.835 204.61 233.872 204.615 233.904Z" fill="#455A64"/>
<path d="M203.913 233.635C203.913 233.661 203.945 233.719 204.024 233.756C204.103 233.793 204.171 233.803 204.187 233.756C204.203 233.708 204.155 233.672 204.076 233.629C203.997 233.587 203.929 233.603 203.913 233.635Z" fill="#455A64"/>
<path d="M185.179 156.816C185.179 156.816 184.192 176.553 181.04 186.754C177.888 196.955 169.735 199.346 164.44 202.594C159.381 205.682 148.072 211.506 148.072 211.506L154.276 222.557C154.276 222.557 185.428 209.827 191.083 198.158C195.444 189.177 200.312 172.656 200.312 172.656L185.179 156.816Z" fill="#263238"/>
<path d="M202.688 148.194C202.688 148.194 215.423 175.724 218.824 183.195C219.178 183.978 219.335 184.835 219.283 185.692L216.411 231.792L203.163 230.958L205.148 186.49L183.015 158.041C181.11 155.627 179.768 152.819 179.086 149.82C178.859 148.84 178.746 147.837 178.748 146.832L202.688 148.189" fill="#263238"/>
<path d="M238.856 92.4634C238.122 92.1941 236.564 96.1594 236.406 95.1034C236.248 94.0474 238.877 90.494 238.096 90.2405C237.082 89.9184 235.524 94.0844 235.366 94.4276C235.208 94.7708 234.706 94.5543 234.87 94.2533C235.097 93.8151 237.383 89.2004 236.39 88.873C235.836 88.6882 235.604 89.7125 235.604 89.7125C235.604 89.7125 233.782 94.19 233.317 94.0157C232.853 93.8415 233.845 91.1804 234.22 90.3197C234.595 89.4591 234.357 88.9205 233.835 89.0631C233.476 89.1634 232.203 91.814 231.834 92.6904C231.464 93.5669 230.492 95.9799 230.001 94.4012C229.51 92.8224 228.539 91.7876 228.08 91.6925C227.975 91.6875 227.871 91.7138 227.781 91.7682C227.691 91.8225 227.62 91.9024 227.575 91.9976C227.531 92.0928 227.516 92.199 227.533 92.3027C227.549 92.4063 227.596 92.5027 227.668 92.5796C227.998 93.031 228.263 93.5269 228.454 94.0527C228.629 94.4666 228.729 94.9081 228.75 95.3569C228.812 96.2566 228.785 97.1603 228.671 98.0549L219.32 114.301L204.8 108.61L202.688 116.926C202.688 116.926 221.765 125.611 222.974 124.972C225.698 123.536 234.5 99.8184 234.5 99.8184C235.783 98.2176 236.978 96.5484 238.08 94.8183C239.3 92.6746 239.109 92.5637 238.856 92.4634Z" fill="#B78876"/>
<path d="M213.628 111.593C209.594 109.518 206.738 108.288 204.536 106.872C197.672 102.48 195.887 103.451 194.277 103.25C192.925 103.668 190.919 104.454 190.164 104.597C189.409 104.739 186.631 103.8 184.842 103.245C180.676 103.425 178.12 105.193 174.282 108.029L167.988 113.309L175.945 121.319L178.611 119.94C179.06 123.547 178.949 124.956 179.113 129.312L178.759 146.821L204.663 148.289L203.237 131.525L202.609 118.325L210.001 122.021L213.649 111.577" fill="#8F8AB8"/>
<g opacity="0.2">
<path d="M213.628 111.593C209.594 109.518 206.738 108.288 204.536 106.872C197.672 102.48 195.887 103.451 194.277 103.25C192.925 103.668 190.919 104.454 190.164 104.597C189.409 104.739 186.631 103.8 184.842 103.245C180.676 103.425 178.12 105.193 174.282 108.029L167.988 113.309L175.945 121.319L178.611 119.94C179.06 123.547 178.949 124.956 179.113 129.312L178.759 146.821L204.663 148.289L203.237 131.525L202.609 118.325L210.001 122.021L213.649 111.577" fill="black"/>
</g>
<path d="M184.651 103.736V101.049C184.651 101.049 189.271 101.534 190.211 104.745L184.651 103.736Z" fill="#8F8AB8"/>
<path d="M194.277 103.25L194.103 101.049C193.146 101.172 192.253 101.597 191.553 102.261C190.854 102.926 190.384 103.795 190.211 104.745L194.277 103.25Z" fill="#8F8AB8"/>
<path d="M167.977 113.325L175.934 121.334L176.832 120.87L168.548 112.844L167.956 113.325" fill="#8F8AB8"/>
<path d="M212.989 111.266L209.087 121.588L209.98 122.037L213.924 111.762L212.989 111.266Z" fill="#455A64"/>
<path d="M194.826 113.187V116.582L196.648 117.739L198.226 116.651V113.187H194.826Z" fill="#8F8AB8"/>
<path d="M198.142 114.048C197.589 114.178 197.018 114.217 196.452 114.164C195.884 114.202 195.314 114.149 194.763 114.006C195.315 113.872 195.887 113.833 196.452 113.89C197.02 113.852 197.591 113.906 198.142 114.048Z" fill="#8F8AB8"/>
<path opacity="0.2" d="M198.142 114.048C197.589 114.178 197.018 114.217 196.452 114.164C195.884 114.202 195.314 114.149 194.763 114.006C195.315 113.872 195.887 113.833 196.452 113.89C197.02 113.852 197.591 113.906 198.142 114.048Z" fill="black"/>
<path d="M190.058 109.924C189.919 109.096 189.873 108.255 189.921 107.416C189.874 106.576 189.92 105.733 190.058 104.903C190.194 105.734 190.24 106.576 190.196 107.416C190.24 108.255 190.194 109.096 190.058 109.924Z" fill="#8F8AB8"/>
<path d="M191.035 105.6C191.035 105.568 191.151 105.505 191.299 105.632C191.34 105.67 191.372 105.718 191.39 105.772C191.409 105.825 191.414 105.882 191.405 105.938C191.391 106.012 191.355 106.079 191.301 106.132C191.247 106.184 191.178 106.217 191.104 106.228C191.029 106.242 190.953 106.233 190.884 106.202C190.815 106.171 190.757 106.119 190.718 106.054C190.692 106.004 190.678 105.947 190.678 105.89C190.678 105.833 190.692 105.777 190.718 105.727C190.813 105.563 190.956 105.579 190.956 105.611C190.956 105.642 190.908 105.7 190.898 105.795C190.887 105.89 190.935 105.975 191.051 105.959C191.167 105.943 191.183 105.853 191.141 105.758C191.098 105.663 191.04 105.6 191.035 105.6Z" fill="#8F8AB8"/>
<path d="M191.362 107.596C191.362 107.559 191.51 107.559 191.595 107.728C191.619 107.778 191.632 107.833 191.632 107.889C191.632 107.945 191.619 108 191.595 108.05C191.575 108.101 191.545 108.147 191.506 108.185C191.467 108.224 191.421 108.253 191.37 108.272C191.319 108.291 191.264 108.299 191.21 108.296C191.155 108.292 191.102 108.277 191.054 108.252C191.006 108.226 190.964 108.191 190.93 108.148C190.897 108.104 190.873 108.055 190.86 108.002C190.848 107.949 190.846 107.894 190.856 107.84C190.866 107.786 190.888 107.736 190.919 107.691C191.024 107.532 191.162 107.548 191.162 107.58C191.162 107.612 191.114 107.67 191.098 107.77C191.083 107.87 191.098 107.965 191.246 107.976C191.394 107.987 191.42 107.897 191.415 107.786C191.41 107.675 191.336 107.628 191.362 107.596Z" fill="#8F8AB8"/>
<path d="M129.935 190.93L116.925 149.081C116.553 147.883 116.422 146.623 116.537 145.374C116.652 144.125 117.013 142.911 117.598 141.801C118.183 140.691 118.981 139.708 119.946 138.907C120.912 138.106 122.025 137.503 123.224 137.132L228.132 104.475C229.329 104.103 230.588 103.969 231.837 104.083C233.086 104.197 234.3 104.555 235.41 105.138C236.52 105.721 237.504 106.517 238.307 107.481C239.109 108.444 239.714 109.556 240.086 110.753L253.075 152.592C253.448 153.791 253.581 155.052 253.467 156.303C253.352 157.554 252.992 158.769 252.407 159.881C251.822 160.992 251.023 161.977 250.057 162.779C249.091 163.582 247.976 164.186 246.776 164.557L141.889 197.213C139.47 197.965 136.853 197.725 134.611 196.547C132.369 195.368 130.687 193.348 129.935 190.93Z" fill="#263238"/>
<path d="M249.347 153.717L246.829 145.601C246.649 145.072 246.268 144.635 245.767 144.387C245.266 144.138 244.687 144.098 244.157 144.276L242.684 144.73C242.154 144.908 241.575 144.868 241.074 144.62C240.573 144.371 240.192 143.934 240.012 143.405L235.097 127.565C234.943 127.027 235.01 126.451 235.281 125.962C235.552 125.473 236.006 125.111 236.543 124.957L238.016 124.497C238.286 124.421 238.538 124.292 238.757 124.117C238.976 123.942 239.158 123.726 239.293 123.48C239.427 123.234 239.512 122.964 239.541 122.686C239.57 122.407 239.544 122.125 239.463 121.857L238.576 119.006L236.364 111.936C236.104 111.097 235.681 110.318 235.119 109.643C234.558 108.968 233.869 108.41 233.091 108.002C232.314 107.593 231.464 107.342 230.589 107.262C229.715 107.183 228.833 107.276 227.995 107.538L125.6 139.429C124.762 139.689 123.983 140.112 123.308 140.673C122.634 141.234 122.076 141.923 121.668 142.699C121.259 143.476 121.008 144.326 120.928 145.2C120.848 146.073 120.941 146.955 121.202 147.793L134.185 189.552C134.446 190.39 134.869 191.169 135.431 191.844C135.992 192.519 136.681 193.076 137.459 193.485C138.236 193.893 139.086 194.144 139.96 194.224C140.834 194.304 141.716 194.211 142.554 193.95L244.954 162.096C245.793 161.835 246.573 161.411 247.248 160.848C247.923 160.286 248.48 159.596 248.888 158.817C249.296 158.039 249.547 157.188 249.626 156.313C249.704 155.437 249.61 154.555 249.347 153.717Z" fill="#8F8AB8"/>
<path d="M214.04 128.14C214.016 128.251 213.983 128.358 213.94 128.462L213.612 129.365V129.418H213.565L211.384 128.489L211.495 128.452C210.856 129.682 210.069 131.197 209.182 132.919L209.124 132.76L211.168 133.711L211.257 133.753V133.843C211.172 134.398 211.018 134.941 210.798 135.458C210.584 136.022 210.205 136.508 209.71 136.852C209.574 136.934 209.426 136.994 209.272 137.032L209.04 137.09H208.76C208.601 137.093 208.443 137.072 208.29 137.027C208.135 136.998 207.984 136.95 207.841 136.884C207.24 136.645 206.739 136.207 206.421 135.643C206.111 135.078 205.984 134.431 206.057 133.79C206.092 133.48 206.169 133.177 206.284 132.887C206.4 132.597 206.548 132.359 206.68 132.085C207.208 131.029 207.736 130.052 208.227 129.101C208.718 128.151 209.193 127.248 209.631 126.398C209.833 125.978 210.062 125.573 210.318 125.184C210.454 125.003 210.624 124.852 210.819 124.738C211.014 124.624 211.229 124.549 211.453 124.518C211.831 124.479 212.213 124.527 212.57 124.658C212.927 124.789 213.249 124.999 213.512 125.273C213.906 125.684 214.159 126.209 214.235 126.773C214.286 127.126 214.262 127.485 214.167 127.829C214.144 127.917 214.114 128.004 214.077 128.088C214.077 128.146 214.035 128.172 214.035 128.167C214.164 127.721 214.196 127.253 214.13 126.794C214.038 126.262 213.784 125.771 213.401 125.389C213.153 125.139 212.851 124.948 212.518 124.831C212.185 124.714 211.83 124.674 211.479 124.714C211.082 124.776 210.726 124.992 210.487 125.316C210.243 125.698 210.026 126.097 209.837 126.509L208.454 129.223L206.917 132.217C206.616 132.699 206.417 133.238 206.331 133.801C206.261 134.383 206.377 134.973 206.664 135.485C206.95 135.997 207.403 136.395 207.947 136.615C208.192 136.739 208.464 136.803 208.739 136.803C209.014 136.803 209.285 136.739 209.531 136.615C209.979 136.301 210.323 135.859 210.518 135.348C210.73 134.854 210.879 134.336 210.962 133.806L211.036 133.933L208.998 132.966L208.887 132.913L208.945 132.808L211.321 128.367L211.358 128.299L211.426 128.33L213.581 129.318L213.512 129.344L213.887 128.457C213.927 128.346 213.978 128.24 214.04 128.14Z" fill="#8F8AB8"/>
<path d="M203.918 138.864C203.918 138.864 203.992 139.075 204.209 139.434C204.483 139.878 204.875 140.238 205.341 140.474C205.806 140.71 206.328 140.812 206.849 140.77C207.365 140.684 207.871 140.544 208.359 140.353L212.055 139.154L216.511 137.708L217.731 137.312C218.15 137.204 218.553 137.04 218.929 136.826C219.295 136.587 219.599 136.264 219.814 135.884C220.029 135.503 220.149 135.077 220.165 134.64C220.162 134.174 220.069 133.713 219.89 133.283L219.441 131.879C219.135 130.939 218.829 129.973 218.512 128.996L216.564 122.918C216.403 122.427 216.107 121.991 215.709 121.661C215.311 121.331 214.827 121.121 214.315 121.055C213.807 121.001 213.294 121.074 212.82 121.266L211.337 121.741L205.677 123.552L203.037 124.392C202.616 124.501 202.208 124.651 201.817 124.84C201.458 125.044 201.15 125.326 200.914 125.664C200.689 125.985 200.537 126.351 200.466 126.736C200.396 127.122 200.41 127.518 200.507 127.898C200.724 128.637 200.961 129.355 201.173 130.036L203.205 136.509C203.433 137.264 203.612 137.85 203.733 138.273C203.786 138.463 203.834 138.616 203.865 138.732C203.883 138.785 203.896 138.84 203.902 138.896C203.876 138.847 203.855 138.796 203.839 138.743C203.797 138.626 203.744 138.479 203.681 138.289C203.538 137.871 203.343 137.285 203.095 136.541C202.567 135.004 201.87 132.803 200.983 130.094C200.766 129.413 200.523 128.711 200.296 127.95C200.19 127.54 200.173 127.113 200.246 126.696C200.319 126.279 200.48 125.882 200.719 125.532C200.973 125.164 201.307 124.857 201.695 124.634C202.1 124.436 202.522 124.277 202.957 124.159L205.597 123.309L211.257 121.488L212.741 121.012C213.243 120.81 213.787 120.734 214.325 120.791C214.889 120.862 215.421 121.093 215.858 121.456C216.296 121.819 216.621 122.298 216.796 122.839C217.461 124.925 218.116 126.952 218.745 128.917L219.663 131.805L220.112 133.209C220.298 133.667 220.393 134.157 220.392 134.651C220.375 135.134 220.241 135.607 220.001 136.027C219.761 136.448 219.422 136.803 219.014 137.064C218.621 137.286 218.2 137.455 217.762 137.565L216.537 137.956L212.071 139.371L208.375 140.533C207.874 140.719 207.356 140.852 206.828 140.929C206.287 140.97 205.746 140.857 205.267 140.603C204.789 140.349 204.392 139.964 204.124 139.492C204.023 139.295 203.953 139.083 203.918 138.864Z" fill="#263238"/>
<path d="M210.872 160.538C210.872 160.538 210.946 160.75 211.162 161.109C211.484 161.627 211.963 162.028 212.53 162.254C212.937 162.416 213.377 162.48 213.813 162.439C214.327 162.354 214.832 162.216 215.318 162.027L219.014 160.824L223.47 159.382L224.695 158.986C225.112 158.877 225.513 158.713 225.888 158.5C226.261 158.261 226.569 157.934 226.787 157.549C227.005 157.163 227.126 156.731 227.14 156.288C227.139 155.821 227.047 155.358 226.87 154.926L226.416 153.527L225.487 150.638C224.859 148.68 224.204 146.647 223.539 144.566C223.38 144.075 223.084 143.639 222.687 143.309C222.29 142.979 221.807 142.769 221.295 142.703C220.787 142.649 220.274 142.722 219.8 142.914L218.317 143.389L212.62 145.2L209.98 146.04C209.56 146.15 209.151 146.3 208.76 146.488C208.237 146.784 207.826 147.244 207.59 147.796C207.353 148.348 207.304 148.963 207.451 149.545C207.667 150.279 207.91 151.003 208.121 151.657L210.149 158.131C210.381 158.88 210.56 159.472 210.677 159.894L210.809 160.354C210.83 160.406 210.842 160.461 210.846 160.517C210.819 160.469 210.798 160.417 210.782 160.364C210.745 160.248 210.692 160.1 210.624 159.91C210.487 159.493 210.286 158.907 210.038 158.162C209.51 156.621 208.813 154.424 207.926 151.716C207.704 151.029 207.466 150.332 207.234 149.572C207.128 149.162 207.111 148.733 207.185 148.316C207.259 147.899 207.421 147.503 207.662 147.154C207.916 146.787 208.248 146.48 208.633 146.256C209.038 146.058 209.461 145.899 209.895 145.781L212.535 144.931L218.19 143.109L219.674 142.634C220.184 142.427 220.737 142.351 221.284 142.412C221.849 142.484 222.381 142.714 222.82 143.077C223.258 143.44 223.585 143.92 223.76 144.461L225.703 150.538C226.015 151.52 226.327 152.481 226.627 153.426C226.775 153.901 226.923 154.366 227.071 154.825C227.257 155.285 227.352 155.776 227.351 156.272C227.335 156.755 227.201 157.226 226.962 157.646C226.723 158.065 226.385 158.42 225.978 158.68C225.586 158.914 225.163 159.092 224.721 159.208L223.496 159.599L219.045 161.04L215.349 162.196C214.85 162.385 214.331 162.52 213.802 162.598C213.35 162.629 212.896 162.555 212.477 162.381C211.895 162.139 211.41 161.71 211.099 161.161C210.991 160.967 210.914 160.757 210.872 160.538Z" fill="#263238"/>
<path d="M219.003 158.083C219.432 157.898 219.848 157.685 220.249 157.444C221.318 156.755 222.125 155.727 222.541 154.525C222.849 153.642 222.931 152.696 222.779 151.773C222.626 150.851 222.245 149.981 221.67 149.245C220.991 148.377 220.073 147.727 219.03 147.375C217.907 146.996 216.693 146.987 215.565 147.349C214.437 147.711 213.454 148.426 212.762 149.387C212.113 150.276 211.745 151.339 211.706 152.439C211.676 153.221 211.809 154 212.096 154.728C212.384 155.455 212.82 156.115 213.377 156.665C213.934 157.214 214.6 157.641 215.331 157.919C216.062 158.197 216.844 158.32 217.625 158.279C218.09 158.24 218.552 158.173 219.008 158.078C218.57 158.253 218.107 158.358 217.636 158.389C216.326 158.494 215.02 158.144 213.94 157.397C213.195 156.885 212.581 156.207 212.144 155.417C211.649 154.501 211.407 153.469 211.442 152.428C211.456 151.867 211.555 151.312 211.738 150.781C211.922 150.225 212.193 149.701 212.54 149.229C213.266 148.221 214.295 147.472 215.477 147.092C216.659 146.712 217.932 146.72 219.109 147.117C220.202 147.483 221.162 148.167 221.865 149.081C222.459 149.851 222.849 150.758 222.999 151.719C223.148 152.68 223.052 153.663 222.72 154.577C222.275 155.809 221.419 156.849 220.297 157.524C219.898 157.777 219.461 157.966 219.003 158.083Z" fill="#8F8AB8"/>
<path d="M219.383 157.999C219.309 157.999 218.459 155.57 217.483 152.518C216.506 149.466 215.772 146.979 215.841 146.958C215.909 146.937 216.764 149.387 217.747 152.434C218.729 155.48 219.457 157.978 219.383 157.999Z" fill="#8F8AB8"/>
<path d="M211.928 154.583C212.012 154.571 212.097 154.571 212.181 154.583L212.905 154.693C213.28 154.767 213.659 154.818 214.04 154.847C214.543 154.9 215.049 154.925 215.555 154.921C216.873 154.959 218.183 154.709 219.394 154.187C220.093 153.855 220.73 153.407 221.279 152.861C221.858 152.271 222.297 151.559 222.562 150.776L222.615 150.924C222.525 150.86 222.409 150.797 222.303 150.733C220.872 149.876 219.217 149.466 217.551 149.556C216.199 149.671 214.931 150.26 213.971 151.219C213.317 151.863 212.76 152.6 212.319 153.405C212.17 153.71 212.005 154.006 211.822 154.292C211.845 154.207 211.875 154.124 211.912 154.044C211.986 153.886 212.071 153.643 212.229 153.358C212.631 152.519 213.166 151.75 213.813 151.082C214.794 150.068 216.104 149.437 217.509 149.303C219.225 149.199 220.932 149.615 222.409 150.496L222.736 150.697L222.826 150.755L222.794 150.844C222.519 151.675 222.055 152.431 221.437 153.051C220.865 153.617 220.199 154.078 219.468 154.414C218.222 154.94 216.874 155.18 215.524 155.116C215.011 155.109 214.5 155.069 213.992 154.994C213.608 154.954 213.227 154.889 212.852 154.799L212.139 154.635C212.067 154.627 211.996 154.61 211.928 154.583Z" fill="#8F8AB8"/>
<path d="M138.758 159.541C138.758 159.541 138.832 159.752 139.048 160.111C139.371 160.628 139.85 161.029 140.416 161.257C140.823 161.418 141.262 161.482 141.699 161.441C142.215 161.357 142.721 161.219 143.209 161.029L146.905 159.826L151.356 158.384L152.581 157.988C152.998 157.879 153.399 157.716 153.774 157.502C154.146 157.263 154.455 156.936 154.673 156.551C154.891 156.165 155.012 155.733 155.025 155.29C155.025 154.823 154.933 154.36 154.756 153.928L154.302 152.529L153.373 149.641C152.745 147.682 152.095 145.649 151.425 143.569C151.266 143.077 150.97 142.641 150.573 142.311C150.176 141.981 149.693 141.771 149.181 141.705C148.673 141.651 148.159 141.724 147.686 141.916L146.203 142.391L140.537 144.197L137.897 145.036C137.478 145.147 137.07 145.296 136.677 145.48C136.32 145.687 136.012 145.97 135.775 146.309C135.551 146.63 135.399 146.996 135.33 147.382C135.261 147.767 135.275 148.163 135.373 148.542C135.585 149.276 135.827 150 136.039 150.681L138.066 157.154C138.298 157.904 138.478 158.495 138.594 158.917C138.652 159.108 138.694 159.261 138.731 159.377C138.75 159.43 138.76 159.485 138.763 159.541L138.705 159.387L138.536 158.928C138.399 158.511 138.198 157.925 137.95 157.18C137.422 155.639 136.725 153.442 135.838 150.733C135.621 150.047 135.379 149.35 135.152 148.59C135.043 148.18 135.025 147.752 135.098 147.334C135.171 146.917 135.333 146.52 135.574 146.172C135.828 145.805 136.16 145.498 136.545 145.274C136.95 145.076 137.373 144.917 137.807 144.799L140.447 143.949L146.102 142.127L147.586 141.652C148.096 141.445 148.649 141.369 149.196 141.43C149.761 141.501 150.294 141.732 150.732 142.095C151.171 142.457 151.497 142.938 151.673 143.479L153.616 149.556C153.927 150.538 154.239 151.499 154.54 152.444C154.688 152.919 154.841 153.384 154.983 153.843C155.169 154.303 155.264 154.794 155.263 155.29C155.247 155.773 155.114 156.244 154.874 156.664C154.635 157.083 154.297 157.438 153.89 157.698C153.498 157.932 153.075 158.11 152.634 158.226L151.414 158.617L146.947 160.032L143.251 161.188C142.751 161.37 142.232 161.497 141.704 161.568C141.25 161.6 140.794 161.526 140.373 161.352C139.791 161.11 139.306 160.68 138.995 160.132C138.887 159.948 138.807 159.749 138.758 159.541Z" fill="#263238"/>
<path d="M147.56 145.897C147.59 145.95 147.615 146.007 147.633 146.066C147.681 146.208 147.744 146.383 147.818 146.594C147.987 147.122 148.22 147.777 148.505 148.627C149.101 150.432 149.925 152.935 150.896 155.892L150.939 156.008L150.817 156.05L143.658 158.358L143.483 158.268V158.236V158.194L143.457 158.104L143.399 157.93L143.288 157.576L143.066 156.885L142.628 155.517L141.794 152.877L140.321 148.21L140.284 148.104L140.389 148.072L145.669 146.446L147.111 146.013C147.271 145.959 147.436 145.915 147.602 145.881C147.43 145.957 147.253 146.022 147.074 146.076L145.627 146.567L140.463 148.283L140.537 148.146C140.991 149.545 141.503 151.114 142.047 152.798C142.322 153.643 142.602 154.519 142.892 155.438C143.04 155.887 143.182 156.341 143.33 156.8C143.404 157.032 143.478 157.26 143.557 157.497L143.668 157.846L143.721 158.02L143.753 158.11V158.152L143.578 158.062L150.749 155.781L150.664 155.934L148.415 148.711C148.151 147.84 147.94 147.127 147.781 146.631C147.718 146.404 147.66 146.219 147.618 146.066C147.575 145.913 147.56 145.902 147.56 145.897Z" fill="#8F8AB8"/>
<path d="M144.592 152.386C144.762 152.454 144.926 152.535 145.083 152.629L146.377 153.337C147.48 153.938 149.017 154.799 150.844 155.829L150.664 155.971C150.173 154.461 149.608 152.756 149.038 150.961L147.454 145.934H147.686C146.81 147.824 146.049 149.424 145.506 150.559C145.242 151.087 145.025 151.541 144.861 151.885C144.788 152.053 144.702 152.215 144.603 152.37C144.651 152.211 144.711 152.056 144.782 151.906C144.93 151.562 145.12 151.114 145.358 150.575C145.854 149.424 146.577 147.777 147.47 145.823L147.602 145.533L147.702 145.839L149.323 150.855L150.907 155.876L151.007 156.182L150.728 156.024C148.88 154.968 147.332 154.028 146.261 153.384L145.02 152.634C144.873 152.56 144.73 152.477 144.592 152.386Z" fill="#8F8AB8"/>
<path d="M145.4 150.586C144.512 150.318 143.653 149.965 142.834 149.53C141.976 149.172 141.155 148.73 140.384 148.21C141.272 148.477 142.131 148.831 142.95 149.266C143.809 149.622 144.63 150.064 145.4 150.586Z" fill="#8F8AB8"/>
<path d="M143.615 158.231C143.954 157.369 144.375 156.542 144.872 155.76C145.282 154.925 145.774 154.133 146.34 153.395C146.011 154.265 145.599 155.101 145.11 155.892C144.691 156.72 144.19 157.503 143.615 158.231Z" fill="#8F8AB8"/>
<path d="M181.985 145.908C181.985 145.908 182.059 146.119 182.276 146.478C182.597 146.996 183.077 147.397 183.643 147.624C184.048 147.785 184.486 147.849 184.921 147.808C185.437 147.724 185.943 147.586 186.431 147.397L190.127 146.193L194.583 144.751L195.803 144.355C196.221 144.245 196.624 144.082 197.001 143.869C197.373 143.629 197.681 143.302 197.899 142.917C198.116 142.532 198.238 142.099 198.253 141.657C198.25 141.19 198.157 140.727 197.978 140.295L197.529 138.896C197.223 137.956 196.917 136.99 196.6 136.008C195.972 134.049 195.317 132.016 194.652 129.936C194.493 129.443 194.196 129.007 193.798 128.677C193.4 128.347 192.916 128.137 192.403 128.072C191.895 128.019 191.382 128.091 190.908 128.283L189.425 128.758L183.765 130.564L181.125 131.403C180.705 131.513 180.297 131.662 179.905 131.847C179.547 132.054 179.239 132.337 179.002 132.676C178.777 132.997 178.625 133.363 178.554 133.748C178.484 134.134 178.498 134.53 178.595 134.909C178.812 135.643 179.049 136.367 179.261 137.048L181.304 143.521C181.531 144.271 181.711 144.862 181.832 145.285C181.885 145.475 181.932 145.628 181.964 145.744C181.982 145.797 181.994 145.852 182.001 145.908C181.975 145.859 181.953 145.808 181.938 145.754C181.895 145.638 181.843 145.49 181.779 145.3L181.188 143.553C180.686 142.011 179.963 139.814 179.076 137.106C178.859 136.419 178.617 135.722 178.389 134.962C178.284 134.552 178.267 134.124 178.339 133.707C178.412 133.29 178.573 132.894 178.812 132.544C179.067 132.176 179.4 131.869 179.789 131.646C180.193 131.448 180.616 131.289 181.051 131.171L183.691 130.321L189.351 128.499L190.834 128.024C191.344 127.817 191.898 127.741 192.445 127.802C193.009 127.873 193.541 128.104 193.979 128.467C194.416 128.83 194.742 129.31 194.916 129.851L196.864 135.928L197.783 138.817C197.936 139.286 198.084 139.756 198.232 140.216C198.418 140.675 198.512 141.167 198.506 141.662C198.492 142.146 198.36 142.618 198.121 143.038C197.881 143.458 197.542 143.812 197.133 144.07C196.743 144.304 196.322 144.482 195.882 144.598L194.657 144.989L190.19 146.399L186.494 147.56C185.994 147.748 185.476 147.883 184.947 147.961C184.493 147.993 184.038 147.919 183.617 147.745C183.036 147.503 182.553 147.074 182.244 146.525C182.125 146.334 182.038 146.126 181.985 145.908Z" fill="#263238"/>
<path d="M190.28 143.389C190.705 143.202 191.117 142.989 191.515 142.75C192.173 142.331 192.736 141.78 193.168 141.131C193.599 140.482 193.891 139.75 194.023 138.982C194.155 138.214 194.125 137.427 193.935 136.671C193.746 135.915 193.4 135.207 192.92 134.592C192.595 134.168 192.207 133.795 191.769 133.489C191.319 133.158 190.818 132.903 190.285 132.734C189.169 132.357 187.961 132.348 186.839 132.707C185.717 133.066 184.74 133.775 184.05 134.73C183.716 135.178 183.458 135.677 183.284 136.208C183.104 136.718 183.005 137.252 182.988 137.792C182.948 138.783 183.172 139.767 183.638 140.643C184.045 141.409 184.628 142.067 185.338 142.565C186.369 143.304 187.618 143.676 188.886 143.621C189.349 143.579 189.809 143.512 190.264 143.421C189.826 143.595 189.362 143.699 188.891 143.727C187.593 143.833 186.298 143.486 185.227 142.745C184.483 142.237 183.87 141.56 183.437 140.77C182.942 139.86 182.699 138.833 182.735 137.797C182.749 137.238 182.851 136.684 183.036 136.155C183.216 135.599 183.483 135.075 183.828 134.603C184.549 133.596 185.574 132.848 186.753 132.467C187.932 132.087 189.201 132.095 190.375 132.491C190.93 132.673 191.452 132.942 191.922 133.288C192.378 133.61 192.781 134.002 193.115 134.45C193.748 135.272 194.148 136.25 194.272 137.28C194.406 138.372 194.221 139.48 193.74 140.469C193.258 141.459 192.5 142.288 191.558 142.856C191.162 143.099 190.731 143.279 190.28 143.389Z" fill="#8F8AB8"/>
<path d="M190.544 143.616C190.286 143.277 190.106 142.886 190.016 142.47C189.847 142.082 189.76 141.663 189.762 141.24C190.021 141.578 190.201 141.969 190.29 142.386C190.459 142.774 190.546 143.193 190.544 143.616Z" fill="#8F8AB8"/>
<path d="M183.041 139.487C183.38 139.23 183.771 139.049 184.187 138.959C184.574 138.787 184.994 138.702 185.417 138.711C185.077 138.966 184.686 139.146 184.271 139.239C183.884 139.409 183.464 139.493 183.041 139.487Z" fill="#8F8AB8"/>
<path d="M191.494 136.752C191.835 136.497 192.225 136.317 192.64 136.224C193.027 136.052 193.447 135.965 193.87 135.971C193.144 136.397 192.333 136.657 191.494 136.731V136.752Z" fill="#8F8AB8"/>
<path d="M187.751 134.899C187.497 134.558 187.317 134.168 187.223 133.753C187.051 133.366 186.967 132.946 186.975 132.523C187.232 132.862 187.412 133.253 187.503 133.669C187.675 134.055 187.76 134.475 187.751 134.899Z" fill="#8F8AB8"/>
<path d="M192.181 139.598C190.847 139.118 189.581 138.467 188.416 137.66C189.75 138.14 191.016 138.791 192.181 139.598Z" fill="#8F8AB8"/>
<path d="M189.224 140.057C188.97 139.712 188.79 139.319 188.696 138.901C188.523 138.51 188.437 138.087 188.443 137.66C188.699 138.004 188.879 138.398 188.971 138.816C189.143 139.207 189.229 139.63 189.224 140.057Z" fill="#8F8AB8"/>
<path d="M160.443 152.814C160.443 152.814 160.517 153.025 160.728 153.384C161.052 153.902 161.533 154.304 162.101 154.53C162.506 154.692 162.944 154.755 163.378 154.715C163.895 154.632 164.401 154.494 164.888 154.303L168.584 153.104L173.041 151.657L174.26 151.261C174.678 151.152 175.079 150.989 175.454 150.776C175.827 150.537 176.136 150.21 176.354 149.825C176.572 149.439 176.693 149.006 176.705 148.563C176.704 148.096 176.613 147.634 176.436 147.201C176.288 146.742 176.135 146.277 175.987 145.802C175.681 144.862 175.369 143.896 175.058 142.919C174.424 140.955 173.775 138.922 173.104 136.842C172.945 136.351 172.649 135.915 172.252 135.585C171.855 135.255 171.372 135.045 170.86 134.978C170.352 134.925 169.839 134.997 169.366 135.189L167.882 135.664L162.222 137.47L159.582 138.31C159.162 138.42 158.754 138.57 158.362 138.758C158.005 138.962 157.699 139.244 157.465 139.582C157.239 139.902 157.085 140.268 157.015 140.654C156.945 141.04 156.96 141.436 157.058 141.816C157.275 142.555 157.512 143.273 157.724 143.954C158.579 146.673 159.271 148.88 159.751 150.427C159.983 151.177 160.163 151.768 160.279 152.191L160.416 152.65C160.434 152.703 160.446 152.758 160.453 152.814C160.427 152.765 160.406 152.714 160.39 152.661L160.226 152.207C160.089 151.789 159.894 151.203 159.64 150.459C159.139 148.917 158.415 146.721 157.528 144.012C157.312 143.331 157.069 142.629 156.842 141.868C156.733 141.459 156.715 141.03 156.788 140.613C156.861 140.196 157.023 139.799 157.264 139.45C157.518 139.083 157.85 138.777 158.236 138.553C158.64 138.355 159.063 138.196 159.498 138.077L162.138 137.227L167.792 135.406L169.276 134.93C169.788 134.724 170.343 134.648 170.892 134.709C171.455 134.781 171.987 135.012 172.424 135.375C172.862 135.737 173.187 136.217 173.363 136.757L175.306 142.835C175.623 143.817 175.931 144.779 176.23 145.723L176.679 147.127C176.863 147.585 176.957 148.075 176.953 148.569C176.938 149.052 176.805 149.523 176.566 149.943C176.327 150.363 175.988 150.717 175.58 150.976C175.19 151.21 174.769 151.387 174.329 151.504L173.104 151.895L168.632 153.289L164.936 154.445C164.437 154.636 163.918 154.771 163.389 154.847C162.935 154.88 162.479 154.806 162.058 154.63C161.476 154.388 160.991 153.959 160.68 153.41C160.572 153.224 160.492 153.023 160.443 152.814Z" fill="#263238"/>
<path d="M164.26 151.663C164.432 151.588 164.609 151.523 164.788 151.467L166.256 150.966L171.478 149.229L171.404 149.371C170.538 146.694 169.493 143.458 168.363 139.978L168.537 140.063H168.505H168.479H168.416L168.294 140.1L168.051 140.179L167.565 140.332L166.604 140.638L164.746 141.235L161.282 142.333L161.361 142.18C162.222 144.941 162.945 147.275 163.473 148.954C163.722 149.767 163.917 150.422 164.065 150.902C164.123 151.114 164.176 151.288 164.218 151.43L164.265 151.62C164.265 151.62 164.239 151.573 164.197 151.462C164.155 151.351 164.096 151.166 164.023 150.971L163.378 149.07C162.824 147.381 162.048 145.031 161.129 142.254L161.092 142.138L161.208 142.095L164.667 140.981L166.52 140.448L167.476 140.142L167.961 139.983L168.204 139.904L168.326 139.867H168.389H168.416H168.447L168.621 139.957C169.73 143.447 170.76 146.684 171.615 149.366L171.647 149.477L171.541 149.508L166.219 151.156L164.756 151.594C164.593 151.627 164.427 151.65 164.26 151.663Z" fill="#8F8AB8"/>
<path d="M170.902 142.639C171.042 142.894 171.153 143.163 171.235 143.442C171.42 143.97 171.679 144.693 171.974 145.554V145.622L171.927 145.675L170.802 146.953L170.644 147.127L170.57 146.9C170.48 146.615 170.385 146.314 170.285 146.013C169.809 144.529 169.392 143.178 169.102 142.185L169.049 142.021L169.213 142.058C170.269 142.322 170.918 142.544 170.881 142.618C170.844 142.692 170.232 142.465 169.171 142.254L169.287 142.127C169.625 143.104 170.073 144.445 170.549 145.929L170.828 146.821L170.601 146.768L171.742 145.512L171.715 145.633C171.446 144.741 171.224 143.996 171.077 143.463C170.987 143.196 170.929 142.92 170.902 142.639Z" fill="#8F8AB8"/>
<path d="M166.34 147.94C166.34 147.914 166.546 147.94 166.868 147.829C167.348 147.704 167.773 147.424 168.078 147.032C168.324 146.719 168.478 146.344 168.524 145.948C168.569 145.552 168.504 145.152 168.335 144.791C168.166 144.431 167.9 144.124 167.567 143.906C167.234 143.687 166.846 143.566 166.448 143.555C166.05 143.544 165.657 143.644 165.312 143.843C164.967 144.043 164.685 144.335 164.496 144.685C164.308 145.036 164.22 145.433 164.244 145.83C164.267 146.228 164.401 146.611 164.63 146.937C164.911 147.346 165.319 147.65 165.791 147.803C166.124 147.909 166.319 147.914 166.319 147.94C166.131 147.971 165.937 147.959 165.754 147.903C165.237 147.784 164.78 147.482 164.466 147.053C164.228 146.734 164.074 146.36 164.02 145.966C163.965 145.572 164.012 145.17 164.155 144.799C164.332 144.338 164.647 143.944 165.058 143.67C165.468 143.396 165.953 143.256 166.447 143.269C166.94 143.282 167.417 143.448 167.812 143.744C168.207 144.04 168.501 144.451 168.653 144.92C168.776 145.299 168.801 145.702 168.725 146.093C168.649 146.483 168.476 146.848 168.22 147.154C167.883 147.563 167.411 147.84 166.89 147.935C166.709 147.979 166.521 147.981 166.34 147.94Z" fill="#8F8AB8"/>
<path d="M167.407 174.53C167.491 174.726 167.586 174.916 167.692 175.101C168.013 175.621 168.492 176.024 169.06 176.252C169.467 176.414 169.906 176.477 170.343 176.437C170.86 176.352 171.366 176.213 171.853 176.019L175.549 174.821L180 173.374L181.225 172.983C181.642 172.874 182.043 172.711 182.418 172.498C182.791 172.258 183.1 171.93 183.318 171.544C183.536 171.157 183.657 170.724 183.669 170.28C183.668 169.815 183.577 169.354 183.4 168.923C183.252 168.464 183.099 167.999 182.951 167.524C182.645 166.581 182.335 165.618 182.022 164.636C181.388 162.677 180.739 160.644 180.068 158.564C179.91 158.072 179.614 157.636 179.217 157.306C178.82 156.976 178.337 156.766 177.824 156.7C177.317 156.647 176.803 156.719 176.33 156.911L174.847 157.381L169.16 159.192L166.52 160.032C166.101 160.142 165.693 160.291 165.3 160.475C164.946 160.684 164.642 160.966 164.408 161.304C164.184 161.626 164.032 161.991 163.963 162.377C163.894 162.762 163.909 163.158 164.007 163.538C164.218 164.271 164.461 164.995 164.672 165.65C165.522 168.369 166.219 170.576 166.699 172.123C166.932 172.873 167.111 173.464 167.227 173.886L167.365 174.346C167.391 174.451 167.402 174.504 167.402 174.504C167.402 174.504 167.375 174.457 167.338 174.356L167.175 173.902C167.037 173.485 166.837 172.899 166.589 172.154C166.061 170.613 165.364 168.416 164.477 165.708C164.26 165.021 164.017 164.324 163.79 163.564C163.682 163.154 163.663 162.726 163.736 162.308C163.809 161.891 163.972 161.494 164.213 161.146C164.467 160.779 164.798 160.473 165.184 160.248C165.589 160.05 166.011 159.891 166.446 159.773L169.086 158.923L174.741 157.101L176.225 156.621C176.737 156.418 177.292 156.344 177.84 156.404C178.404 156.477 178.935 156.707 179.373 157.07C179.81 157.433 180.136 157.912 180.311 158.453L182.254 164.53C182.566 165.512 182.877 166.473 183.178 167.418C183.326 167.888 183.479 168.358 183.627 168.818C183.809 169.278 183.902 169.769 183.902 170.264C183.886 170.747 183.752 171.218 183.513 171.638C183.274 172.057 182.936 172.412 182.529 172.672C182.137 172.906 181.714 173.084 181.272 173.2L180.053 173.591L175.586 175L171.89 176.162C171.39 176.35 170.871 176.485 170.343 176.563C169.888 176.595 169.433 176.521 169.012 176.347C168.43 176.105 167.945 175.676 167.634 175.127C167.527 174.942 167.45 174.74 167.407 174.53Z" fill="#263238"/>
<path d="M174.44 170.016C174.44 169.99 174.683 169.916 175.068 169.662C175.604 169.306 176.007 168.783 176.214 168.173C176.384 167.681 176.413 167.15 176.298 166.642C176.184 166.134 175.93 165.667 175.565 165.295C175.201 164.922 174.74 164.658 174.234 164.533C173.728 164.408 173.198 164.425 172.701 164.584C172.205 164.743 171.763 165.037 171.424 165.433C171.085 165.829 170.863 166.311 170.783 166.826C170.702 167.341 170.767 167.868 170.969 168.348C171.171 168.829 171.502 169.243 171.927 169.546C172.454 169.916 173.089 170.101 173.732 170.074C174.187 170.074 174.435 169.969 174.44 169.995C174.445 170.021 174.387 170.027 174.266 170.069C174.094 170.125 173.917 170.163 173.738 170.18C173.059 170.242 172.379 170.067 171.816 169.683C171.396 169.397 171.055 169.01 170.825 168.556C170.595 168.103 170.483 167.599 170.501 167.091C170.516 166.486 170.715 165.901 171.071 165.412C171.45 164.881 171.991 164.486 172.612 164.288C173.233 164.089 173.902 164.096 174.519 164.308C174.902 164.437 175.255 164.642 175.557 164.909C175.86 165.177 176.106 165.503 176.28 165.867C176.455 166.231 176.555 166.626 176.575 167.03C176.594 167.433 176.532 167.836 176.394 168.216C176.16 168.855 175.71 169.393 175.121 169.736C174.965 169.829 174.798 169.901 174.625 169.953C174.503 170.016 174.44 170.016 174.44 170.016Z" fill="#8F8AB8"/>
<path d="M177.159 165.961C177.159 165.887 177.587 165.681 178.162 165.496C178.738 165.312 179.218 165.216 179.25 165.29C179.282 165.364 178.828 165.57 178.247 165.755C177.666 165.94 177.18 166.035 177.159 165.961Z" fill="#8F8AB8"/>
<path d="M179.118 170.254C178.705 170.15 178.318 169.961 177.983 169.699C177.397 169.324 176.953 168.971 176.995 168.907C177.413 169.017 177.802 169.215 178.136 169.488C178.717 169.837 179.16 170.19 179.118 170.254Z" fill="#8F8AB8"/>
<path d="M175.575 163.448C175.507 163.416 175.623 163.01 175.829 162.54C176.035 162.07 176.262 161.721 176.357 161.748C176.452 161.774 176.314 162.181 176.098 162.656C175.881 163.131 175.639 163.485 175.575 163.448Z" fill="#8F8AB8"/>
<path d="M172.444 163.337C172.375 163.337 172.17 162.936 171.99 162.386C171.837 162.056 171.768 161.694 171.789 161.33C171.863 161.33 172.069 161.732 172.249 162.281C172.428 162.83 172.518 163.31 172.444 163.337Z" fill="#8F8AB8"/>
<path d="M175.649 173.094C175.387 172.74 175.19 172.341 175.068 171.917C174.862 171.526 174.724 171.103 174.662 170.666C174.97 170.991 175.196 171.386 175.322 171.817C175.528 172.212 175.64 172.649 175.649 173.094Z" fill="#8F8AB8"/>
<path d="M171.034 172.17C170.966 172.139 171.098 171.743 171.33 171.294C171.562 170.845 171.8 170.507 171.858 170.544C171.916 170.581 171.795 170.972 171.562 171.421C171.33 171.869 171.103 172.207 171.034 172.17Z" fill="#8F8AB8"/>
<path d="M167.94 168.722C167.94 168.648 168.315 168.49 168.822 168.363C169.329 168.237 169.746 168.2 169.762 168.274C169.778 168.348 169.387 168.506 168.885 168.627C168.384 168.749 167.961 168.796 167.94 168.722Z" fill="#8F8AB8"/>
<path d="M168.151 164.208C168.188 164.145 168.648 164.329 169.171 164.625C169.693 164.921 170.095 165.216 170.058 165.28C170.021 165.343 169.567 165.158 169.039 164.863C168.511 164.567 168.104 164.261 168.151 164.208Z" fill="#8F8AB8"/>
<path d="M188.949 167.624C188.949 167.624 189.023 167.835 189.24 168.194C189.559 168.716 190.039 169.12 190.607 169.345C191.013 169.507 191.451 169.571 191.885 169.53C192.402 169.447 192.909 169.307 193.395 169.113L197.091 167.915L201.548 166.468L202.767 166.072C203.185 165.967 203.586 165.805 203.96 165.591C204.334 165.352 204.644 165.025 204.862 164.638C205.08 164.252 205.2 163.818 205.212 163.374C205.214 162.908 205.122 162.447 204.943 162.017C204.795 161.557 204.647 161.088 204.494 160.618C204.188 159.673 203.881 158.712 203.564 157.729C202.931 155.771 202.281 153.738 201.611 151.657C201.453 151.165 201.158 150.729 200.761 150.398C200.363 150.068 199.88 149.858 199.367 149.794C198.859 149.736 198.346 149.807 197.873 150L196.389 150.475L190.729 152.281L188.089 153.12C187.67 153.234 187.262 153.384 186.869 153.569C186.513 153.774 186.207 154.055 185.972 154.393C185.747 154.714 185.595 155.079 185.525 155.465C185.454 155.85 185.468 156.246 185.565 156.626C185.781 157.365 186.019 158.089 186.23 158.77L188.242 165.264C188.469 166.014 188.648 166.605 188.77 167.028C188.823 167.218 188.865 167.371 188.902 167.487C188.919 167.539 188.931 167.592 188.939 167.645C188.939 167.645 188.912 167.598 188.876 167.497L188.717 167.043L188.136 165.264C187.635 163.722 186.911 161.526 186.024 158.817C185.808 158.131 185.565 157.429 185.338 156.668C185.23 156.259 185.213 155.832 185.285 155.416C185.358 154.999 185.52 154.603 185.76 154.255C186.013 153.887 186.345 153.581 186.732 153.358C187.136 153.159 187.559 152.999 187.994 152.882L190.634 152.032L196.289 150.211L197.778 149.73C198.289 149.528 198.841 149.452 199.388 149.509C199.952 149.582 200.484 149.814 200.921 150.177C201.359 150.541 201.684 151.021 201.859 151.562L203.802 157.64C204.119 158.617 204.425 159.583 204.726 160.528C204.879 160.998 205.027 161.468 205.175 161.927C205.359 162.387 205.452 162.878 205.449 163.374C205.436 163.857 205.303 164.329 205.064 164.749C204.824 165.169 204.485 165.524 204.077 165.781C203.686 166.016 203.265 166.193 202.825 166.309L201.6 166.695L197.144 168.099L193.448 169.261C192.948 169.449 192.429 169.584 191.901 169.662C191.447 169.694 190.991 169.619 190.57 169.446C189.989 169.202 189.505 168.773 189.192 168.226C189.082 168.039 189 167.836 188.949 167.624Z" fill="#263238"/>
<path d="M197.234 164.736C197.659 164.551 198.071 164.34 198.469 164.102C199.531 163.418 200.332 162.397 200.745 161.204C201.052 160.328 201.133 159.389 200.982 158.474C200.831 157.559 200.451 156.696 199.879 155.966C199.556 155.541 199.17 155.169 198.733 154.862C198.287 154.533 197.789 154.28 197.26 154.113C196.146 153.738 194.941 153.729 193.821 154.087C192.701 154.445 191.725 155.152 191.035 156.103C190.706 156.551 190.449 157.048 190.275 157.576C190.095 158.086 189.995 158.62 189.979 159.16C189.949 159.937 190.082 160.712 190.368 161.435C190.654 162.158 191.088 162.813 191.641 163.36C192.194 163.906 192.855 164.331 193.582 164.608C194.308 164.885 195.084 165.008 195.861 164.968C196.322 164.927 196.78 164.86 197.234 164.768C196.797 164.943 196.336 165.046 195.866 165.074C194.571 165.181 193.279 164.833 192.212 164.092C191.471 163.585 190.859 162.911 190.428 162.122C189.933 161.216 189.691 160.193 189.726 159.16C189.774 158.021 190.154 156.919 190.819 155.992C191.546 154.999 192.567 154.26 193.738 153.88C194.913 153.508 196.176 153.519 197.345 153.912C197.898 154.093 198.419 154.362 198.886 154.709C199.343 155.029 199.745 155.42 200.08 155.866C200.672 156.63 201.06 157.531 201.209 158.486C201.357 159.441 201.261 160.418 200.93 161.325C200.49 162.548 199.642 163.582 198.527 164.25C198.125 164.481 197.688 164.645 197.234 164.736Z" fill="#8F8AB8"/>
<path d="M197.672 157.217C197.672 157.191 197.603 157.703 197.44 158.606C197.276 159.509 197.038 160.818 196.727 162.344L196.679 162.566L196.51 162.413L194.604 160.67L192.672 158.886L192.508 158.733L192.719 158.669C194.187 158.205 195.454 157.835 196.326 157.587C197.197 157.339 197.693 157.191 197.672 157.217C197.651 157.244 197.524 157.275 197.281 157.365L196.257 157.73C195.386 158.036 194.198 158.458 192.799 158.912L192.846 158.696L194.789 160.47C195.46 161.088 196.099 161.674 196.685 162.223L196.473 162.291C196.785 160.834 197.086 159.599 197.302 158.69C197.403 158.273 197.493 157.92 197.561 157.634C197.59 157.493 197.627 157.354 197.672 157.217Z" fill="#8F8AB8"/>
<path d="M146.509 181.632C146.509 181.632 146.583 181.843 146.799 182.202C147.071 182.649 147.463 183.01 147.929 183.246C148.395 183.482 148.918 183.583 149.439 183.538C149.956 183.451 150.462 183.312 150.949 183.121L154.645 181.922L159.096 180.476L160.321 180.08C160.74 179.975 161.142 179.812 161.515 179.594C161.887 179.355 162.196 179.028 162.414 178.643C162.632 178.257 162.753 177.824 162.766 177.382C162.766 176.916 162.674 176.455 162.497 176.025L162.043 174.626C161.74 173.679 161.43 172.716 161.113 171.737C160.487 169.773 159.837 167.749 159.165 165.665C159.006 165.174 158.711 164.738 158.313 164.408C157.916 164.078 157.433 163.868 156.921 163.802C156.413 163.744 155.9 163.814 155.427 164.007L153.943 164.483L148.278 166.288L145.638 167.128C145.218 167.24 144.81 167.391 144.418 167.577C143.895 167.873 143.484 168.332 143.248 168.884C143.011 169.437 142.962 170.051 143.108 170.634C143.325 171.373 143.568 172.091 143.779 172.772L145.807 179.246C146.039 180.001 146.218 180.592 146.335 181.014L146.472 181.474C146.489 181.525 146.5 181.578 146.503 181.632L146.44 181.479C146.403 181.363 146.35 181.215 146.282 181.03C146.144 180.613 145.944 180.027 145.696 179.282C145.168 177.741 144.471 175.544 143.584 172.836C143.362 172.149 143.124 171.447 142.897 170.687C142.789 170.278 142.77 169.85 142.843 169.434C142.916 169.017 143.079 168.621 143.32 168.274C143.572 167.904 143.904 167.596 144.291 167.371C144.696 167.175 145.119 167.017 145.553 166.901L148.193 166.051L153.848 164.208L155.332 163.728C155.843 163.526 156.395 163.45 156.942 163.506C157.507 163.578 158.04 163.81 158.478 164.173C158.917 164.537 159.243 165.018 159.418 165.56L161.361 171.632C161.673 172.614 161.984 173.58 162.285 174.525C162.433 174.995 162.586 175.465 162.729 175.924C162.915 176.384 163.01 176.875 163.009 177.371C162.992 177.854 162.858 178.325 162.619 178.744C162.38 179.163 162.043 179.519 161.636 179.779C161.242 180.008 160.819 180.186 160.379 180.307L159.16 180.692L154.693 182.107L150.997 183.269C150.499 183.458 149.982 183.592 149.455 183.67C149 183.703 148.544 183.627 148.124 183.448C147.542 183.206 147.057 182.777 146.746 182.229C146.637 182.043 146.556 181.842 146.509 181.632Z" fill="#263238"/>
<path d="M152.359 169.446C152.359 169.446 152.333 169.525 152.28 169.657L152.053 170.238C151.858 170.734 151.583 171.447 151.219 172.35V172.387H151.176L148.135 173.026L148.188 172.836L150.538 174.868L150.585 174.911V174.974C150.474 175.945 150.358 176.98 150.242 178.063L150.036 177.931L152.676 176.347C152.734 176.347 152.549 176.347 152.803 176.347H152.829H152.877L152.966 176.389L153.146 176.468L153.505 176.632L154.218 176.959L155.606 177.598L155.422 177.751C155.179 176.695 154.952 175.681 154.735 174.721V174.657L154.783 174.61L156.895 172.334L156.963 172.519L153.874 172.213H153.848V172.176C153.383 171.336 153.035 170.66 152.792 170.185C152.676 169.963 152.581 169.784 152.507 169.657L152.401 169.456C152.401 169.456 152.438 169.499 152.507 169.615C152.576 169.731 152.686 169.916 152.813 170.143C153.082 170.592 153.494 171.267 154.001 172.139L153.938 172.096L157.032 172.345H157.254L157.101 172.513L155.015 174.81L155.041 174.699C155.268 175.655 155.501 176.669 155.744 177.72L155.807 177.989L155.559 177.873L154.165 177.239L153.452 176.917L153.093 176.753L152.914 176.669L152.824 176.627H152.776H152.882L150.215 178.211L149.983 178.348L150.015 178.079C150.141 177.023 150.263 175.967 150.379 174.995L150.421 175.106L148.04 172.999L147.871 172.851L148.088 172.809L151.134 172.218L151.076 172.265C151.483 171.347 151.815 170.629 152.037 170.153C152.137 169.937 152.217 169.757 152.285 169.625C152.305 169.563 152.329 169.503 152.359 169.446Z" fill="#8F8AB8"/>
<path d="M221.495 138.753C220.876 138.955 220.211 138.969 219.584 138.792C218.958 138.616 218.397 138.257 217.974 137.762C217.552 137.267 217.285 136.657 217.209 136.011C217.133 135.364 217.25 134.709 217.547 134.129C217.843 133.549 218.304 133.07 218.873 132.753C219.442 132.436 220.092 132.295 220.741 132.347C221.39 132.399 222.009 132.643 222.519 133.048C223.029 133.452 223.408 133.999 223.607 134.619C223.874 135.447 223.801 136.347 223.405 137.122C223.009 137.897 222.323 138.483 221.495 138.753Z" fill="#8F8AB8"/>
<path d="M220.344 136.9C219.885 137.048 219.42 136.826 219.209 136.161C219.081 135.803 219.094 135.41 219.246 135.063L219.515 135.126C219.378 135.427 219.361 135.769 219.468 136.082C219.616 136.536 219.906 136.72 220.249 136.61C220.592 136.499 220.719 136.203 220.555 135.691L220.497 135.495L220.703 135.427L221.902 135.886L221.453 134.476L221.701 134.397L222.271 136.166L222.071 136.229L220.841 135.765C220.999 136.367 220.783 136.752 220.344 136.9Z" fill="#8F8AB8"/>
<path d="M134.312 162.381C134.154 162.435 133.985 162.44 133.824 162.397C133.663 162.354 133.519 162.263 133.409 162.138C133.3 162.013 133.23 161.857 133.209 161.692C133.188 161.527 133.217 161.36 133.291 161.211C133.366 161.062 133.483 160.939 133.627 160.856C133.772 160.774 133.938 160.737 134.104 160.749C134.27 160.761 134.429 160.823 134.56 160.925C134.691 161.028 134.788 161.167 134.84 161.325C134.909 161.535 134.892 161.764 134.793 161.962C134.694 162.159 134.521 162.31 134.312 162.381Z" fill="#8F8AB8"/>
<path d="M135.738 166.848C135.58 166.902 135.41 166.907 135.249 166.864C135.089 166.82 134.944 166.73 134.835 166.605C134.726 166.48 134.656 166.324 134.635 166.159C134.614 165.994 134.642 165.827 134.717 165.678C134.791 165.529 134.908 165.405 135.053 165.323C135.198 165.241 135.364 165.204 135.53 165.216C135.696 165.228 135.854 165.289 135.985 165.392C136.116 165.495 136.214 165.634 136.266 165.792C136.334 166.002 136.317 166.231 136.219 166.429C136.12 166.626 135.947 166.777 135.738 166.848Z" fill="#8F8AB8"/>
<path d="M137.174 171.341C137.016 171.395 136.846 171.4 136.686 171.357C136.525 171.314 136.381 171.224 136.271 171.098C136.162 170.973 136.092 170.818 136.071 170.652C136.05 170.487 136.079 170.32 136.153 170.171C136.227 170.022 136.344 169.899 136.489 169.816C136.634 169.734 136.8 169.697 136.966 169.709C137.132 169.721 137.29 169.783 137.421 169.885C137.552 169.988 137.65 170.127 137.702 170.285C137.77 170.495 137.754 170.724 137.655 170.922C137.556 171.119 137.383 171.27 137.174 171.341Z" fill="#8F8AB8"/>
<path d="M237.679 152.655C237.347 151.901 237.068 151.125 236.844 150.332C236.567 149.556 236.342 148.762 236.168 147.956C236.498 148.711 236.777 149.487 237.003 150.279C237.28 151.056 237.506 151.849 237.679 152.655Z" fill="#263238"/>
<path d="M236.475 153.041C235.866 151.51 235.361 149.94 234.965 148.342C235.297 149.095 235.576 149.872 235.799 150.665C236.076 151.441 236.302 152.235 236.475 153.041Z" fill="#263238"/>
<path d="M235.271 153.426C234.942 152.671 234.664 151.895 234.437 151.103C234.16 150.327 233.936 149.533 233.766 148.727C234.093 149.483 234.37 150.259 234.595 151.05C234.873 151.826 235.099 152.62 235.271 153.426Z" fill="#263238"/>
<path d="M222.652 117.744C222.652 117.744 222.705 117.876 222.789 118.108C222.873 118.341 223 118.716 223.138 119.101L223.079 119.069L223.803 118.832C223.94 118.789 224.056 118.737 224.225 118.7C224.316 118.688 224.408 118.707 224.487 118.752C224.566 118.798 224.628 118.869 224.663 118.953C224.725 119.112 224.778 119.274 224.822 119.439C224.836 119.542 224.813 119.646 224.758 119.734C224.703 119.821 224.619 119.887 224.521 119.919L223.465 120.263L223.512 120.168L223.924 121.429L223.824 121.377L225.408 120.849L225.809 120.722C225.925 120.685 225.973 120.601 226.036 120.463L226.411 119.74C226.538 119.502 226.654 119.27 226.775 119.038L226.95 118.7C227.016 118.611 227.055 118.504 227.061 118.393C227.06 118.344 227.048 118.295 227.025 118.251C227.002 118.207 226.969 118.169 226.929 118.14C226.844 118.087 226.723 118.029 226.628 117.976L226.026 117.665C225.64 117.469 225.271 117.253 224.97 117.137C224.805 117.12 224.639 117.147 224.489 117.216L224.046 117.353L223.322 117.565L222.858 117.702L222.683 117.744C222.683 117.744 222.726 117.718 222.826 117.681L223.275 117.522L223.993 117.274L224.447 117.121C224.611 117.043 224.794 117.01 224.975 117.026C225.35 117.174 225.682 117.369 226.084 117.554L226.686 117.865C226.791 117.918 226.886 117.961 227.008 118.034C227.067 118.076 227.115 118.13 227.15 118.193C227.185 118.257 227.205 118.327 227.208 118.399C227.204 118.538 227.16 118.674 227.082 118.789L226.907 119.127C226.791 119.36 226.675 119.592 226.548 119.83L226.179 120.553C226.155 120.63 226.113 120.701 226.057 120.759C226.001 120.818 225.933 120.863 225.857 120.891L225.455 121.023L223.871 121.551H223.792V121.477C223.65 121.039 223.518 120.616 223.386 120.21V120.136H223.46L224.516 119.803C224.585 119.785 224.645 119.741 224.684 119.68C224.723 119.62 224.738 119.547 224.727 119.476C224.695 119.339 224.632 119.159 224.59 119.022C224.564 118.963 224.52 118.914 224.466 118.881C224.411 118.848 224.347 118.833 224.283 118.837C224.157 118.863 224.009 118.921 223.877 118.958L223.148 119.18H223.101V119.138L222.794 118.082C222.739 117.973 222.692 117.86 222.652 117.744Z" fill="#263238"/>
<path d="M167.792 152.513C167.283 152.28 166.809 151.978 166.383 151.615C166.032 151.335 165.728 151 165.485 150.623C165.128 150.056 164.802 149.471 164.508 148.87C164.508 148.87 164.841 132.729 165.432 130.062C166.024 127.396 175.322 120.759 175.322 120.759L169.06 114.333C164.743 117.505 160.967 121.352 157.877 125.727C154.899 130.094 158.135 150.406 158.141 150.427C157.868 152.162 157.692 153.911 157.613 155.665C157.613 158.131 157.813 158.136 158.104 158.088C158.875 157.962 158.294 153.754 158.943 154.588C159.593 155.422 159.054 159.815 159.857 159.651C160.913 159.435 160.21 155.042 160.179 154.667C160.147 154.292 160.707 154.234 160.707 154.572C160.707 155.063 160.992 160.206 162.021 160.005C162.586 159.894 162.291 158.891 162.291 158.891C162.291 158.891 161.684 154.097 162.175 154.018C162.666 153.938 163.12 156.742 163.204 157.714C163.289 158.685 163.774 159.002 164.16 158.616C164.424 158.352 164.234 155.417 164.128 154.477C164.023 153.537 163.679 150.95 164.883 152.085C166.087 153.22 167.439 153.643 167.882 153.505C167.982 153.46 168.065 153.385 168.12 153.29C168.175 153.196 168.199 153.086 168.189 152.977C168.18 152.868 168.136 152.765 168.065 152.682C167.994 152.599 167.899 152.54 167.792 152.513Z" fill="#B78876"/>
</svg>
